<?xml version="1.0" encoding="iso-8859-1"?>
<!-- Generator: Adobe Illustrator 19.0.0, SVG Export Plug-In . SVG Version: 6.00 Build 0)  -->
<svg version="1.1" id="Layer_1" xmlns="http://www.w3.org/2000/svg" xmlns:xlink="http://www.w3.org/1999/xlink" x="0px" y="0px"
	 viewBox="0 0 300.739 300.739" style="enable-background:new 0 0 300.739 300.739;" xml:space="preserve">
<g>
	<g>
		<g>
			<path d="M59.377,180.3c8.58,0,15.246-7.194,15.246-16.434c0-7.062-8.448-20.592-11.088-24.618
				c-0.858-1.386-2.376-2.244-4.026-2.244c-1.716,0-3.234,0.792-4.158,2.112c-2.838,4.026-12.078,17.688-12.078,24.816
				C43.273,172.842,50.665,180.3,59.377,180.3z M59.179,151.26c3.102,5.412,5.544,10.692,5.478,12.672
				c0,3.168-1.98,6.468-5.346,6.468c-3.234,0-6.204-3.102-6.204-6.468C53.107,162.15,55.681,156.936,59.179,151.26z"/>
			<path d="M47.167,47.64c-2.706-0.396-5.214,1.518-5.61,4.224c-1.914,13.728-4.752,22.836-9.702,31.548
				c-1.32,2.376-0.528,5.346,1.848,6.732c0.792,0.462,1.584,0.66,2.442,0.66c1.716,0,3.366-0.924,4.356-2.442
				c6.93-12.21,9.372-24.09,10.89-35.112C51.787,50.544,49.873,48.036,47.167,47.64z"/>
			<path d="M285.427,187.032h-18.876l0.594-11.418v-0.264c0-17.292-6.6-33.528-17.292-42.438c-10.56-8.58-24.42-8.25-35.442,0.792
				c-0.528,0.396-0.99,0.792-1.452,1.188c-6.27-11.814-15.774-18.876-26.862-19.8h-0.396c-10.56,0-20.658,6.996-27.192,18.348
				c-0.132-0.132-0.264-0.264-0.396-0.396l-0.396-0.33c-11.616-8.58-25.146-8.184-36.168,0.99c-1.386,1.122-2.706,2.442-3.96,3.894
				v-6.534c0-16.962-6.93-32.868-13.596-48.246c-5.808-13.398-11.352-26.07-11.352-37.686V43.02h4.092c2.706,0,4.95-2.244,4.95-4.95
				V16.158c0-2.706-2.244-4.95-4.95-4.95H21.097c-2.706,0-4.95,2.244-4.95,4.95V38.07c0,2.706,2.244,4.95,4.95,4.95h4.884V45
				c-0.396,10.89-5.94,22.968-11.88,35.706C6.577,96.942-1.277,113.772,0.175,131.262V251.25c0,7.788,2.706,15.774,7.788,23.034
				c4.158,5.874,13.992,15.246,22.968,15.246h56.76c9.834,0,17.688-8.118,21.978-13.86c0.66,1.518,1.386,2.97,2.112,4.356
				c0.066,0.132,0.132,0.264,0.198,0.33c0.264,0.396,0.528,0.924,0.858,1.452c1.716,2.904,4.554,7.722,10.164,7.722h31.812
				c5.61,0,8.448-4.818,10.164-7.722c0.33-0.528,0.594-1.056,0.858-1.452l0.066-0.066c4.884-7.722,9.57-22.836,11.616-29.832h15.84
				c2.244,6.864,7.656,22.11,13.266,29.964c0.264,0.396,0.528,0.858,0.792,1.386c1.716,2.904,4.554,7.722,10.164,7.722
				c0.132,0,0.33,0,0.462,0c9.24-0.858,21.714-0.858,31.812,0c0.132,0,0.264,0,0.396,0c5.544,0,9.24-6.204,10.56-9.9
				c7.92-14.982,11.154-44.418,12.078-55.572h12.606c8.712,0,15.246-6.666,15.246-15.444v-6.996
				C300.673,193.434,294.007,187.032,285.427,187.032z M220.483,141.559l0.198-0.198c7.392-6.204,15.972-6.534,22.902-0.858
				c8.316,6.93,13.662,20.526,13.662,34.65l-0.66,11.88h-48.576l-0.198-11.748C207.877,160.5,212.827,147.235,220.483,141.559z
				 M185.503,124.992c8.514,0.792,15.906,7.392,20.46,18.282c-5.082,8.382-8.052,19.734-8.052,32.01l0.198,11.748h-24.288
				l0.462-11.484v-0.198c0-12.078-3.366-24.222-9.042-33.33C169.861,131.856,177.781,125.125,185.503,124.992z M127.885,141.427
				c7.392-6.138,16.038-6.468,23.76-0.858c7.788,7.26,12.804,20.856,12.804,34.65l-0.528,11.814h-48.444l-0.462-11.814
				C115.081,161.227,120.163,147.697,127.885,141.427z M26.047,21.108h65.736V33.12H26.047V21.108z M23.143,84.931
				c6.336-13.728,12.342-26.664,12.804-39.6c0-0.066,0-0.132,0-0.132v-2.046h46.86v2.046c0,13.662,5.874,27.258,12.144,41.646
				c4.026,9.306,8.118,18.744,10.56,28.314h-94.05C13.771,105.061,18.523,94.897,23.143,84.931z M10.141,125.059h97.284
				c0.198,2.046,0.33,4.092,0.33,6.072v25.74c-1.716,5.808-2.64,12.078-2.64,18.48l0.462,11.748H90.331
				c-7.92,0-14.388,6.534-14.388,14.586v1.188H10.207v-71.742c0-0.132,0-0.264,0-0.396C10.075,128.82,10.009,126.972,10.141,125.059
				z M104.257,265.506c-0.726,1.254-1.386,2.508-1.848,3.432c-4.818,6.732-10.23,10.758-14.652,10.758h-56.76
				c-3.564,0-10.956-5.478-14.85-11.022c-3.894-5.61-6.006-11.616-6.006-17.358v-38.544h66.264
				c1.65,6.666,7.128,11.418,13.926,11.418h7.59c0.99,7.656,3.366,24.618,7.524,39.27
				C105.049,264.055,104.653,264.78,104.257,265.506z M251.833,275.34c-0.132,0.264-0.264,0.528-0.33,0.792
				c-0.462,1.386-1.386,2.838-1.98,3.498c-10.164-0.792-22.374-0.792-31.68,0c-0.528-0.528-1.386-1.98-1.848-2.772
				c-0.396-0.594-0.726-1.254-1.122-1.914c-0.066-0.066-0.066-0.132-0.132-0.198c-6.336-8.778-12.936-30.492-13.002-30.69
				c-0.66-2.112-2.574-3.498-4.752-3.498h-23.232c-2.244,0-4.224,1.518-4.752,3.696c-1.584,6.072-6.798,23.364-11.418,30.756
				c-0.396,0.594-0.792,1.254-1.122,1.848c-0.462,0.858-1.386,2.31-1.914,2.838h-31.152c-0.528-0.528-1.452-1.98-1.914-2.838
				c-0.33-0.528-0.66-1.122-0.99-1.716c-6.864-12.804-10.956-39.732-12.474-51.018h155.034
				C261.865,235.345,258.829,262.537,251.833,275.34z M290.773,208.681c0,3.366-2.112,5.544-5.346,5.544H90.331
				c-2.574,0-4.488-2.376-4.488-5.544v-6.996c0-2.574,2.046-4.686,4.488-4.686h195.096c3.102,0,5.346,1.98,5.346,4.686V208.681z"/>
			<circle cx="30.072" cy="100.703" r="4.95"/>
		</g>
	</g>
</g>
<g>
</g>
<g>
</g>
<g>
</g>
<g>
</g>
<g>
</g>
<g>
</g>
<g>
</g>
<g>
</g>
<g>
</g>
<g>
</g>
<g>
</g>
<g>
</g>
<g>
</g>
<g>
</g>
<g>
</g>
</svg>
