<?xml version="1.0" encoding="iso-8859-1"?>
<!-- Generator: Adobe Illustrator 19.0.0, SVG Export Plug-In . SVG Version: 6.00 Build 0)  -->
<svg version="1.1" id="Capa_1" xmlns="http://www.w3.org/2000/svg" xmlns:xlink="http://www.w3.org/1999/xlink" x="0px" y="0px"
	 viewBox="0 0 512.002 512.002" style="enable-background:new 0 0 512.002 512.002;" xml:space="preserve">
<g>
	<g>
		<path d="M196.002,127.5v-30c0-28.949-23.551-52.5-52.5-52.5c-28.949,0-52.5,23.551-52.5,52.5v30
			c0,15.634,6.877,29.685,17.756,39.311c-8.608,3.285-15.293,10.781-17.204,20.197c-0.824,4.06,1.799,8.018,5.858,8.842
			c0.504,0.102,1.005,0.151,1.5,0.151c3.493,0,6.621-2.454,7.342-6.009c1.175-5.79,6.326-9.992,12.248-9.992h50
			c5.922,0,11.073,4.202,12.249,9.992c0.825,4.06,4.785,6.681,8.842,5.858c4.06-0.824,6.682-4.783,5.858-8.842
			c-1.912-9.416-8.597-16.912-17.205-20.197C189.125,157.185,196.002,143.134,196.002,127.5z M106.002,97.5
			c0-20.678,16.822-37.5,37.5-37.5c20.678,0,37.5,16.822,37.5,37.5v2.5h-15.139c-5.652-6.325-13.746-10-22.361-10
			s-16.708,3.675-22.361,10h-15.139V97.5z M143.502,165c-20.678,0-37.5-16.822-37.5-37.5V115h18.792c2.502,0,4.84-1.248,6.232-3.328
			c2.797-4.178,7.461-6.672,12.476-6.672c5.015,0,9.679,2.494,12.476,6.672c1.392,2.08,3.73,3.328,6.232,3.328h18.792v12.5
			C181.002,148.178,164.18,165,143.502,165z"/>
	</g>
</g>
<g>
	<g>
		<path d="M248.502,285h-22.5v-14h7.5c4.142,0,7.5-3.358,7.5-7.5c0-4.142-3.358-7.5-7.5-7.5h-53.308
			c9.745-9.537,15.808-22.821,15.808-37.5c0-4.142-3.358-7.5-7.5-7.5h-90c-4.142,0-7.5,3.358-7.5,7.5
			c0,14.679,6.063,27.963,15.808,37.5H53.502c-4.142,0-7.5,3.358-7.5,7.5c0,4.142,3.358,7.5,7.5,7.5h7.5v14h-22.5
			c-20.678,0-37.5,16.822-37.5,37.5v182c0,4.142,3.358,7.5,7.5,7.5c4.142,0,7.5-3.358,7.5-7.5V467h255v37.5
			c0,4.142,3.358,7.5,7.5,7.5c4.142,0,7.5-3.358,7.5-7.5v-182C286.002,301.822,269.18,285,248.502,285z M106.755,226h73.493
			c-3.485,17.095-18.637,30-36.747,30S110.24,243.095,106.755,226z M211.002,271v14h-135c0,0,0-14,0-14H211.002z M271.002,452h-255
			v-30h255V452z M271.002,407h-255v-84.5c0-12.407,10.093-22.5,22.5-22.5h210c12.407,0,22.5,10.093,22.5,22.5V407z"/>
	</g>
</g>
<g>
	<g>
		<path d="M488.502,155h-7.5v-26.29c8.729-3.096,15-11.432,15-21.21v-15c0-12.407-10.093-22.5-22.5-22.5
			c-12.407,0-22.5,10.093-22.5,22.5v15c0,9.778,6.271,18.114,15,21.21V185h-46.048c-3.274-11.528-13.889-20-26.452-20h-50
			c-15.164,0-27.5,12.336-27.5,27.5v160c0,4.142,3.358,7.5,7.5,7.5h7.5v129.094l-24.872,8.291c-3.93,1.31-6.053,5.557-4.744,9.487
			c1.048,3.143,3.974,5.13,7.114,5.13c0.786,0,1.586-0.125,2.373-0.387l30-10c3.062-1.021,5.128-3.887,5.128-7.115V360h45v129.094
			l-24.872,8.291c-3.93,1.31-6.053,5.557-4.744,9.487c1.048,3.143,3.974,5.13,7.114,5.13c0.786,0,1.586-0.125,2.373-0.387l30-10
			c3.062-1.021,5.128-3.887,5.128-7.115V360h22.5c4.142,0,7.5-3.358,7.5-7.5v-50.335c0-15.471-5.307-30.417-15-42.406V200h45v7.5
			c0,4.142,3.358,7.5,7.5,7.5c4.142,0,7.5-3.358,7.5-7.5V200h7.5c12.407,0,22.5-10.093,22.5-22.5S500.909,155,488.502,155z
			 M421.002,302.165V345h-90V192.5c0-6.893,5.607-12.5,12.5-12.5h50c6.893,0,12.5,5.607,12.5,12.5v70
			c0,1.827,0.667,3.591,1.875,4.961C416.34,277.055,421.002,289.379,421.002,302.165z M473.502,115c-4.136,0-7.5-3.364-7.5-7.5v-15
			c0-4.136,3.364-7.5,7.5-7.5s7.5,3.364,7.5,7.5v15C481.002,111.636,477.638,115,473.502,115z M488.502,185h-7.5v-15h7.5
			c4.136,0,7.5,3.364,7.5,7.5S492.638,185,488.502,185z"/>
	</g>
</g>
<g>
	<g>
		<circle cx="353.501" cy="202.5" r="7.5"/>
	</g>
</g>
<g>
	<g>
		<circle cx="353.501" cy="232.5" r="7.5"/>
	</g>
</g>
<g>
	<g>
		<circle cx="353.501" cy="262.5" r="7.5"/>
	</g>
</g>
<g>
	<g>
		<path d="M390.837,50.001c4.762-5.312,7.665-12.323,7.665-20.001c0-16.542-13.458-30-30-30s-30,13.458-30,30
			c0,7.678,2.903,14.689,7.665,20.001c-17.808,8.408-30.165,26.534-30.165,47.499c0,28.949,23.551,52.5,52.5,52.5
			c28.949,0,52.5-23.551,52.5-52.5C421.002,76.535,408.646,58.409,390.837,50.001z M368.502,15c8.271,0,15,6.729,15,15
			s-6.729,15-15,15s-15-6.729-15-15S360.231,15,368.502,15z M368.502,135c-20.678,0-37.5-16.822-37.5-37.5s16.822-37.5,37.5-37.5
			c20.678,0,37.5,16.822,37.5,37.5S389.18,135,368.502,135z"/>
	</g>
</g>
<g>
</g>
<g>
</g>
<g>
</g>
<g>
</g>
<g>
</g>
<g>
</g>
<g>
</g>
<g>
</g>
<g>
</g>
<g>
</g>
<g>
</g>
<g>
</g>
<g>
</g>
<g>
</g>
<g>
</g>
</svg>
