<svg height="476pt" viewBox="-15 0 476 476.41511" width="476pt" xmlns="http://www.w3.org/2000/svg"><path d="m424.78125 387.429688.992188-225.582032c-.015626-6.589844-2.652344-12.902344-7.335938-17.539062-4.679688-4.636719-11.015625-7.222656-17.601562-7.175782h-285.316407v-92.28125c.144531-11.089843-7.058593-20.9375-17.667969-24.15625l-65.132812-19.632812c-13.308594-3.984375-27.335938 3.519531-31.410156 16.800781-.003906.019531 0 .039063-.003906.058594-1.957032 6.402344-1.273438 13.324219 1.898437 19.21875 3.207031 5.941406 8.648437 10.359375 15.121094 12.273437l47.195312 14.1875v169.046876c-29.96875 26.332031-47.113281 64.3125-47.039062 104.203124 0 76.878907 62.476562 139.5625 139.355469 139.5625 74.195312.003907 134.960937-58.28125 139.121093-131.28125h78.5625v43.875c-16.582031 11.46875-23.632812 32.484376-17.320312 51.628907 6.316406 19.148437 24.484375 31.847656 44.632812 31.203125 20.152344-.648438 37.46875-14.488282 42.539063-34 5.074218-19.511719-3.308594-40.03125-20.589844-50.410156zm-267.011719 72.847656c-68.050781.003906-123.265625-55.066406-123.433593-123.117188-.171876-68.050781 54.769531-123.398437 122.816406-123.734375 68.050781-.332031 123.53125 54.472657 124.03125 122.519531-.074219.601563-.074219 1.210938 0 1.816407-.574219 67.773437-55.636719 122.4375-123.414063 122.515625zm217.75-205.144532h-104.894531c-35.296875-48.667968-97.769531-69.296874-155.105469-51.210937v-16.789063h260zm-78.5625 74c-1.054687-20.304687-6.617187-40.117187-16.28125-58h94.84375v58zm94.5625-65.527343c0-.175781.023438-.347657.023438-.523438s-.023438-.351562-.023438-.519531v-75.894531c-.101562-8.613281-7.121093-15.542969-15.734375-15.535157h-268.089844c-4.453124-.015624-8.09375 3.546876-8.175781 8v30.976563c-6.191406 3.074219-12.199219 6.5-18 10.253906v-159.507812c-.035156-5.460938-3.652343-10.25-8.894531-11.78125l-49.746094-14.980469c-2.363281-.699219-4.347656-2.3125-5.515625-4.484375-1.167969-2.167969-1.425781-4.710937-.710937-7.070313 0-.015624 0-.027343 0-.039062 1.507812-4.847656 6.636718-7.578125 11.5-6.117188l65.089844 19.632813c3.828124 1.214844 6.390624 4.820313 6.277343 8.835937v99.828126c.046875 4.542968 3.640625 8.253906 8.175781 8.453124h293.140626c2.339843-.050781 4.601562.835938 6.28125 2.46875 1.679687 1.628907 2.636718 3.867188 2.65625 6.207032l-.96875 219.8125c-2.457032-.441406-4.949219-.671875-7.445313-.691406-3.308594-.027344-6.613281.324218-9.839844 1.046874zm9.738281 192.367187c-11.925781.007813-22.6875-7.152344-27.285156-18.15625-4.601562-11.007812-2.132812-23.695312 6.253906-32.175781 8.390626-8.480469 21.050782-11.085937 32.105469-6.609375.699219.460938 1.464844.8125 2.269531 1.035156 12.199219 6.175782 18.566407 19.917969 15.394532 33.21875-3.175782 13.300782-15.0625 22.683594-28.738282 22.683594zm0 0"/><path d="m157.769531 235.921875c-55.746093 0-100.933593 45.1875-100.933593 100.929687 0 55.746094 45.1875 100.933594 100.933593 100.933594 55.742188 0 100.929688-45.1875 100.929688-100.933594-.0625-55.714843-45.214844-100.867187-100.929688-100.929687zm0 185.863281c-46.90625 0-84.933593-38.027344-84.933593-84.933594s38.027343-84.929687 84.933593-84.929687 84.929688 38.023437 84.929688 84.929687c-.050781 46.886719-38.046875 84.878907-84.929688 84.933594zm0 0"/></svg>