<svg height="511pt" viewBox="0 -21 511.99869 511" width="511pt" xmlns="http://www.w3.org/2000/svg"><path d="m502.15625 246.234375c-5.332031-3.742187-10.386719-7.90625-15.179688-12.464844v-125.957031h1.710938c9.214844 0 16.714844-7.496094 16.714844-16.714844v-47.714844c0-9.214843-7.5-16.714843-16.714844-16.714843h-62.742188c.027344-.792969.058594-1.566407.089844-2.3125.273438-6.296875-1.976562-12.269531-6.335937-16.816407-4.347657-4.539062-10.207031-7.039062-16.492188-7.039062h-129.050781c-12.605469 0-22.855469 10.25-22.855469 22.855469v95.589843h-207.558593c-24.121094 0-43.742188 19.621094-43.742188 43.742188v263.59375c0 24.121094 19.621094 43.742188 43.742188 43.742188h40.992187c4.144531 0 7.5-3.355469 7.5-7.5 0-4.140626-3.355469-7.5-7.5-7.5h-40.992187c-15.847657 0-28.742188-12.890626-28.742188-28.742188v-108.972656h275.457031v108.972656c0 15.851562-12.890625 28.742188-28.742187 28.742188h-142.457032c-4.140624 0-7.5 3.359374-7.5 7.5 0 4.144531 3.359376 7.5 7.5 7.5h142.457032c2.460937 0 4.875-.214844 7.226562-.605469 1.703125.398437 3.453125.609375 5.214844.609375h161.617188c10.078124 0 19.097656-6.753906 21.933593-16.425782l17.882813-61.027343c1.164062-3.976563-1.113282-8.144531-5.089844-9.308594-3.972656-1.164063-8.140625 1.113281-9.304688 5.089844l-17.886718 61.027343c-.972656 3.324219-4.070313 5.644532-7.535156 5.644532h-141.128907c6.726563-7.691406 10.816407-17.746094 10.816407-28.746094v-210.757812c0-4.140626-3.359376-7.5-7.5-7.5-4.144532 0-7.503907 3.359374-7.503907 7.5v37.105468h-275.457031v-89.941406c0-15.851562 12.894531-28.742188 28.742188-28.742188h18.402343c3.828125 46.625 42.988281 83.394532 90.582031 83.394532s86.757813-36.769532 90.585938-83.394532h18.402344c15.851562 0 28.742187 12.894532 28.742187 28.742188v18.3125c0 4.144531 3.359375 7.5 7.5 7.5 4.144531 0 7.5-3.355469 7.5-7.5v-18.3125c0-22.570312-17.183593-41.203125-39.15625-43.503906v-52.792969h63.707031c-.820312 15.605469.394532 49.046875 22.042969 74.332031 17.394531 20.316406 43.882813 30.667969 78.726563 30.785156 14.027344 38.355469 35.046875 67.535157 62.753906 87 2.832031 1.992188 4.101562 5.496094 3.15625 8.722657l-25.796875 88.03125c-1.164063 3.972656 1.113281 8.140625 5.085937 9.304687.707032.207032 1.414063.304688 2.113282.304688 3.246094 0 6.238281-2.121094 7.195312-5.390625l25.796875-88.035157c2.753907-9.394531-.835937-19.523437-8.925781-25.210937zm-211.699219 21.398437v34.675782h-275.457031v-34.675782zm181.519531-50.582031c-16.75-21.824219-29.132812-50.046875-36.96875-84.375-1.910156-8.363281-3.449218-16.699219-4.6875-24.863281h41.65625zm16.714844-175.378906c.941406 0 1.710938.765625 1.710938 1.710937v47.71875c0 .941407-.769532 1.710938-1.710938 1.710938h-60.34375c-2.160156-19.300781-2.75-37.050781-2.703125-51.140625zm-79.824218-23.757813c1.5 1.566407 2.277343 3.628907 2.183593 5.800782-.308593 7.195312-.523437 16.65625-.332031 27.675781h-38.125v-33.5c0-.839844-.140625-1.640625-.394531-2.390625h31.007812c2.15625 0 4.167969.859375 5.660157 2.414062zm-93.945313 33.476563v-33.5c0-.839844-.144531-1.640625-.398437-2.390625h43.464843c-.25.75-.394531 1.550781-.394531 2.390625v33.5zm-162.191406 150.949219c-39.320313 0-71.742188-30.054688-75.519531-68.394532h151.039062c-3.777344 38.339844-36.203125 68.394532-75.519531 68.394532zm113.570312-178.988282c0-4.328124 3.523438-7.851562 7.855469-7.851562h26.160156c-.253906.75-.394531 1.550781-.394531 2.390625v33.5h-33.621094zm97.210938 107.691407c-18.527344-21.566407-19.167969-51.679688-18.445313-64.652344h66.144532c1.003906 20.703125 3.554687 45.027344 9.171874 69.625 1.605469 7.035156 3.398438 13.835937 5.371094 20.398437-27.710937-1-48.632812-9.523437-62.242187-25.371093zm0 0"/><path d="m143.605469 160.546875h18.25c4.140625 0 7.5-3.355469 7.5-7.5 0-4.140625-3.359375-7.5-7.5-7.5h-18.25c-4.140625 0-7.5 3.359375-7.5 7.5 0 4.144531 3.355469 7.5 7.5 7.5zm0 0"/></svg>