<svg height="512pt" viewBox="-24 0 512 512" width="512pt" xmlns="http://www.w3.org/2000/svg"><g style="fill:none;stroke-width:30;stroke-linecap:round;stroke-linejoin:round;stroke:#000;stroke-miterlimit:10" transform="translate(-48.2)"><path d="m68.020313 256h375.960937"/><path d="m256.000781 288.132812v-32.132812"/><path d="m442.832812 225.015625-20.199218-50.496094c-3.28125-8.207031-13.195313-14.917969-22.035157-14.917969h-289.199218c-8.835938 0-18.75 6.710938-22.035156 14.917969l-20.195313 50.496094c-3.28125 8.207031-5.96875 22.148437-5.96875 30.984375v32.132812c0 26.621094 21.578125 48.199219 48.199219 48.199219 26.621093 0 48.199218-21.578125 48.199218-48.199219 0 26.621094 21.582032 48.199219 48.199219 48.199219 26.621094 0 48.203125-21.578125 48.203125-48.199219 0 26.621094 21.578125 48.199219 48.199219 48.199219 26.617187 0 48.199219-21.578125 48.199219-48.199219 0 26.621094 21.578125 48.199219 48.199218 48.199219 26.621094 0 48.199219-21.578125 48.199219-48.199219v-32.132812c.003906-8.835938-2.683594-22.777344-5.964844-30.984375zm0 0"/><path d="m159.598437 288.132812v-32.132812"/><path d="m256.000781 288.132812v-32.132812"/><path d="m352.399219 288.132812v-32.132812"/><path d="m400.598437 336.332031v120.5c0 22.09375-18.074218 40.167969-40.164062 40.167969h-208.867188c-22.09375 0-40.167968-18.074219-40.167968-40.167969v-120.5"/><path d="m280.098437 63.199219v-48.199219h-48.199218v48.199219h-48.199219v48.199219h48.199219v48.203124h48.199218v-48.203124h48.203125v-48.199219zm0 0"/><path d="m215.832812 416.664062h80.332032v80.335938h-80.332032zm0 0"/></g></svg>