<svg height="512pt" viewBox="0 0 512 512" width="512pt" xmlns="http://www.w3.org/2000/svg"><path d="m362.699219 102.609375c0-27.410156-10.671875-53.175781-30.054688-72.554687-19.378906-19.382813-45.144531-30.054688-72.554687-30.054688-27.40625 0-53.175782 10.671875-72.554688 30.054688l-157.480468 157.480468c-19.382813 19.378906-30.054688 45.148438-30.054688 72.554688 0 27.410156 10.671875 53.175781 30.054688 72.554687 19.378906 19.382813 45.148437 30.054688 72.554687 30.054688 27.410156 0 53.175781-10.671875 72.554687-30.054688l157.484376-157.480469c19.378906-19.378906 30.050781-45.144531 30.050781-72.554687zm-208.746094 208.824219c-13.714844 13.714844-31.949219 21.265625-51.34375 21.265625s-37.628906-7.550781-51.34375-21.265625c-13.710937-13.714844-21.265625-31.949219-21.265625-51.34375 0-19.394532 7.554688-37.625 21.265625-51.34375l68.136719-68.132813 102.683594 102.6875zm89.347656-89.347656-102.6875-102.683594 68.132813-68.136719c13.714844-13.710937 31.949218-21.265625 51.34375-21.265625 19.394531 0 37.628906 7.554688 51.34375 21.265625 13.714844 13.714844 21.265625 31.949219 21.265625 51.34375s-7.550781 37.628906-21.265625 51.34375zm0 0"/><path d="m374.035156 236.074219c-76.070312 0-137.960937 61.890625-137.960937 137.960937 0 76.074219 61.890625 137.964844 137.960937 137.964844 76.074219 0 137.964844-61.890625 137.964844-137.964844 0-76.070312-61.890625-137.960937-137.964844-137.960937zm0 30c43.472656 0 81.019532 25.824219 98.117188 62.9375h-196.230469c17.097656-37.113281 54.644531-62.9375 98.113281-62.9375zm107.964844 107.960937c0 5.101563-.363281 10.113282-1.050781 15.027344h-213.824219c-.6875-4.914062-1.050781-9.925781-1.050781-15.027344 0-5.097656.363281-10.109375 1.050781-15.023437h213.824219c.6875 4.914062 1.050781 9.925781 1.050781 15.023437zm-107.964844 107.964844c-43.46875 0-81.015625-25.828125-98.113281-62.9375h196.230469c-17.097656 37.109375-54.644532 62.9375-98.117188 62.9375zm0 0"/></svg>