<svg height="512pt" viewBox="0 -9 512.00167 512" width="512pt" xmlns="http://www.w3.org/2000/svg"><path d="m511.953125 266.023438-1.917969-18.398438v-18.398438c0-5.628906-1.691406-10.164062-5.015625-13.46875-5.601562-5.5625-13.402343-5.542968-20.890625-5.429687h-226.738281l-196.5-201.136719c-10.773437-10.773437-26.433594-12.199218-36.492187-3.617187l-2.417969 1.144531-1.152344 1.160156c-10.390625 10.398438-10.398437 31.578125-.085937 41.890625l156.789062 160.566407h-151.613281c-7.519531 0-15.300781-.140626-20.894531 5.433593-3.332032 3.292969-5.023438 7.828125-5.023438 13.457031v18.890626c0 .308593.0742188.660156.0859375.972656h-.0390625l.21875 2.050781c.09375 1.085937.140625 2.152344.339844 3.285156l1.378906 13.261719c.421875 122.492188 114.644531 226.011719 255 226.011719 140.617187 0 255.015625-103.90625 255.015625-226.691407zm-27.683594-36.796876c2.125 0 5.097657-.058593 6.875.167969v18.722657c0 7.746093-6.421875 18.472656-9.445312 18.890624h-66.117188v-37.78125zm-148.96875 18.492188c-18.226562 0-33.058593 14.746094-33.058593 32.859375v23.414063c0 7.699218-6.355469 13.972656-14.164063 13.972656-7.8125 0-14.167969-6.253906-14.167969-13.960938v-74.789062h122.785156v129.425781c0 7.699219-6.355468 13.972656-14.167968 13.972656-7.808594 0-14.164063-6.261719-14.164063-13.960937v-78.066406c-.003906-18.121094-14.832031-32.867188-33.0625-32.867188zm-301.121093-211.230469c-2.785157-2.785156-3.039063-10.597656-.753907-14.289062l1.8125-.851563 1.164063-1.160156c2.625-2.605469 7.875-.898438 11.050781 2.285156l183.507813 187.855469h-27.03125zm-8.414063 192.730469h229.253906v37.777344h-226.65625c-2.597656-.347656-7.601562-8.167969-9.050781-15.269532l-.421875-4.101562v-18.230469c1.785156-.226562 4.742187-.207031 6.875-.175781zm231.226563 245.582031c-123.371094 0-224.878907-84.820312-235.203126-190.140625 2.078126.753906 4.25 1.226563 6.546876 1.226563h226.683593v18.113281c0 18.117188 14.828125 32.859375 33.058594 32.859375 18.226563 0 33.054687-14.742187 33.054687-32.859375v-23.414062c0-7.695313 6.359376-13.96875 14.167969-13.96875 7.8125 0 14.167969 6.273437 14.167969 13.96875v78.066406c0 18.113281 14.828125 32.859375 33.058594 32.859375 18.226562 0 33.058594-14.746094 33.058594-32.859375v-72.753906h66.113281c3.890625 0 7.445312-1.296876 10.675781-3.316407-9.179688 106.277344-111.199219 192.21875-235.382812 192.21875zm0 0"/><path d="m249.066406 439.171875c-51.425781-5.269531-98.472656-25.566406-132.464844-57.160156-3.808593-3.535157-9.796874-3.335938-13.347656.492187-3.550781 3.8125-3.335937 9.792969.492188 13.34375 36.988281 34.371094 87.90625 56.4375 143.394531 62.121094.332031.027344.652344.046875.972656.046875 4.789063 0 8.890625-3.617187 9.390625-8.484375.527344-5.183594-3.25-9.820312-8.4375-10.359375zm0 0"/><path d="m77.082031 342.324219c-3.128906-4.175781-9.039062-5.042969-13.222656-1.910157-4.175781 3.128907-5.023437 9.050782-1.910156 13.214844 3.347656 4.476563 7.113281 8.605469 11.222656 12.296875 1.804687 1.625 4.0625 2.429688 6.308594 2.429688 2.589843 0 5.15625-1.046875 7.027343-3.128907 3.484376-3.878906 3.175782-9.851562-.707031-13.335937-3.175781-2.871094-6.113281-6.09375-8.71875-9.566406zm0 0"/></svg>