<svg height="512pt" viewBox="-125 0 512 512" width="512pt" xmlns="http://www.w3.org/2000/svg"><path d="m175.421875 408.519531c4.140625 0 7.5-3.359375 7.5-7.5v-12.453125c0-4.140625-3.359375-7.5-7.5-7.5-4.144531 0-7.5 3.359375-7.5 7.5v12.453125c0 4.140625 3.355469 7.5 7.5 7.5zm0 0"/><path d="m80.605469 408.519531c4.144531 0 7.5-3.359375 7.5-7.5v-12.453125c0-4.140625-3.355469-7.5-7.5-7.5s-7.5 3.359375-7.5 7.5v12.453125c0 4.140625 3.359375 7.5 7.5 7.5zm0 0"/><path d="m128.011719 411.289062c7.140625 0 13.742187-3.5625 17.660156-9.527343 2.273437-3.460938 1.3125-8.113281-2.152344-10.386719-1.265625-.835938-6.878906-2.992188-10.382812 2.152344-1.683594 2.464844-4.128907 2.761718-5.125 2.761718-.992188 0-3.484375-.269531-5.121094-2.761718-2.277344-3.464844-6.925781-4.425782-10.386719-2.152344-3.460937 2.273438-4.425781 6.925781-2.152344 10.386719 3.921876 5.964843 10.523438 9.527343 17.660157 9.527343zm0 0"/><path d="m74.753906 472.3125h106.515625c17.644531 0 32-14.355469 32-32v-88.265625c0-17.644531-14.355469-32-32-32h-106.515625c-17.644531 0-31.996094 14.355469-31.996094 32v88.265625c0 17.644531 14.351563 32 31.996094 32zm-16.996094-120.265625c0-9.375 7.625-17 16.996094-17h106.515625c9.375 0 17 7.625 17 17v88.265625c0 9.371094-7.625 17-17 17h-106.515625c-9.371094 0-16.996094-7.628906-16.996094-17zm0 0"/><path d="m257.644531 104.253906c5.347657-9.6875 5.023438-21.0625-.875-30.429687 0 0-5.714843-11.40625-12.988281-6.550781-7.269531 4.855468.292969 14.542968.292969 14.542968 2.945312 4.675782 3.109375 10.351563.4375 15.1875-2.667969 4.835938-7.5625 7.722656-13.085938 7.722656h-30.035156c-4.40625-2.34375-9.429687-3.679687-14.757813-3.679687h-64.730468c-4.714844 0-9.1875 1.046875-13.207032 2.910156l-39.144531-25.722656c-5.464843-3.59375-8.730469-9.644531-8.730469-16.1875v-33.609375c0-7.410156 6.027344-13.4375 13.4375-13.4375h100.53125c17.042969 0 32.640626 8.609375 41.71875 23.03125l6.78125 10.773438c2.207032 3.503906 6.839844 4.554687 10.34375 2.347656 3.503907-2.207032 4.558594-6.835938 2.351563-10.339844l-6.78125-10.773438c-11.84375-18.808593-32.1875-30.039062-54.414063-30.039062h-100.53125c-10.316406 0-19.363281 5.523438-24.351562 13.765625h-9.988281c-12.8125 0-23.238281 10.425781-23.238281 23.238281v15.714844c0 12.8125 10.425781 23.238281 23.238281 23.238281h8.84375c-.132813 11.308594-15.035157 34.4375-32.640625 48.964844-20.0625 16.550781-9.195313 34.710937-4.308594 40.695313 2.945312 3.605468 16.367188 15.703124 33.273438 8.996093 9.8125-3.890625 27.273437-11.574219 45.308593-25.21875v11.824219c0 3.648438.644531 7.226562 1.84375 10.589844-20.417969 1.183594-37.347656 17.433594-39.039062 37.976562-2.28125 27.671875-10.429688 66.8125-36.296875 96.144532-10.875 12.328124-16.8515628 28.183593-16.8359378 44.640624.0195313 16.1875.0117188 38.300782-.0078124 60.710938-.0039063 4.144531 3.3515622 7.503906 7.4960942 7.507812h.003906c4.140625-.003906 7.496094-3.355468 7.5-7.496093.019531-22.421875.027344-44.542969.007812-60.738281-.011718-12.796876 4.632813-25.121094 13.085938-34.707032 12.546875-14.226562 21.308594-30.398437 27.402344-46.59375 8.773437-5.058594 46.46875-23.511718 87.539062 4.917969 20.535156 14.214844 40.808594 18.367187 57.492188 18.367187 22.011718 0 34.683593-5.773437 40.4375-8.140624v179.929687c0 18.015625-14.65625 32.667969-32.667969 32.667969h-160.6875c-8.738281 0-16.949219-3.402344-23.121094-9.582032-6.167969-6.179687-9.558594-14.390624-9.546875-23.121093l.023438-19.1875c.007812-4.140625-3.347657-7.503907-7.488282-7.507813-.003906 0-.007812 0-.011718 0-4.136719 0-7.492188 3.351563-7.5000005 7.488282l-.0234375 19.1875c-.0195312 12.742187 4.929688 24.726562 13.933594 33.742187 9.007812 9.015625 20.988281 13.984375 33.734375 13.984375h160.691406c26.28125 0 47.667969-21.382812 47.667969-47.667969v-251.019531c0-22.292969-17.640625-40.542969-39.699219-41.53125 1.191406-3.351562 1.816406-6.914062 1.816406-10.5625v-28.660156c0-4.566406-.988281-8.90625-2.742187-12.828125h16.023437c11.066407 0 20.871094-5.785157 26.21875-15.476563zm-71.011719 11.792969c9.101563 0 16.507813 7.40625 16.507813 16.511719v28.660156c0 3.875-1.34375 7.558594-3.796875 10.515625h-11.289062v-36.980469c0-4.144531-3.359376-7.5-7.5-7.5-4.144532 0-7.5 3.355469-7.5 7.5v36.980469h-11.285157v-36.980469c0-4.144531-3.359375-7.5-7.5-7.5-4.144531 0-7.5 3.355469-7.5 7.5v36.980469h-11.289062v-36.980469c0-4.144531-3.355469-7.5-7.5-7.5-4.140625 0-7.5 3.355469-7.5 7.5v36.980469h-11.273438c-2.433593-2.941406-3.8125-6.648437-3.8125-10.515625v-28.660156c0-9.105469 7.40625-16.511719 16.507813-16.511719zm-154.953124-63.324219v-15.71875c0-4.542968 3.695312-8.238281 8.238281-8.238281h5.902343v32.191406h-5.902343c-4.542969 0-8.238281-3.695312-8.238281-8.234375zm8.0625 107.878906c-8.75 3.339844-15.652344-3.769531-16.40625-4.585937-2.273438-2.84375-6.398438-11.703125 2.179687-19.402344 16.476563-14.785156 28.289063-32.511719 34.746094-46.582031.351562.25 36.261719 23.878906 36.261719 23.878906-3.363282 4.566406-5.519532 10.070313-6.011719 16.039063-19.59375 17.246093-40.042969 26.5625-50.769531 30.652343zm201.28125 52.710938v54.621094c-4.722657 2.363281-13.890626 6.320312-25.652344 8.339844-22.796875 3.917968-44.242188-.9375-63.738282-14.433594-28.742187-19.898438-56.101562-19.925782-73.992187-16.441406-6.042969 1.175781-11.425781 2.816406-15.992187 4.523437 3.628906-13.96875 5.550781-27.371094 6.5-38.90625 1.121093-13.617187 12.753906-24.28125 26.480468-24.28125h119.816406c14.65625 0 26.578126 11.921875 26.578126 26.578125zm0 0"/></svg>