<svg height="511pt" viewBox="-3 1 511 511.999" width="511pt" xmlns="http://www.w3.org/2000/svg"><path d="m208.082031 181.199219c-.660156 0-1.308593-.058594-1.960937-.1875-.640625-.132813-1.269532-.320313-1.871094-.570313-.597656-.25-1.179688-.5625-1.71875-.921875-.550781-.371093-1.058594-.789062-1.53125-1.25-.457031-.460937-.867188-.96875-1.238281-1.519531-.359375-.539062-.671875-1.121094-.921875-1.71875-.25-.609375-.4375-1.242188-.566406-1.871094-.132813-.648437-.191407-1.308594-.191407-1.960937 0-.648438.058594-1.308594.191407-1.949219.128906-.640625.316406-1.269531.566406-1.871094.25-.609375.5625-1.1875.921875-1.730468.371093-.546876.78125-1.058594 1.238281-1.519532 2.332031-2.320312 5.78125-3.378906 9.03125-2.730468.640625.132812 1.269531.320312 1.871094.570312.597656.25 1.1875.5625 1.730468.921875.546876.359375 1.058594.78125 1.519532 1.238281.460937.460938.878906.972656 1.238281 1.519532.359375.542968.671875 1.121093.921875 1.730468.25.601563.4375 1.230469.570312 1.871094.128907.640625.199219 1.300781.199219 1.949219 0 .652343-.070312 1.3125-.199219 1.960937-.132812.628906-.320312 1.261719-.570312 1.871094-.25.597656-.5625 1.179688-.921875 1.71875-.359375.550781-.777344 1.058594-1.238281 1.519531-.460938.460938-.972656.878907-1.519532 1.25-.542968.359375-1.132812.671875-1.730468.921875-.601563.25-1.230469.4375-1.871094.570313-.640625.128906-1.300781.1875-1.949219.1875zm0 0"/><path d="m502.195312 388.738281-119.710937-119.53125.050781-37.84375c.007813-6.160156-.378906-12.347656-1.15625-18.472656 16.054688-9.371094 26.867188-26.785156 26.867188-46.675781 0-29.777344-24.222656-54-54-54-7.160156 0-14 1.398437-20.257813 3.941406l-36.839843-52.722656c-5.773438-8.5625-14.542969-14.300782-24.703126-16.171875-10.191406-1.875-20.46875.394531-28.925781 6.386719-15.898437 11.257812-20.519531 33.164062-10.832031 50.363281l-71.515625-71.515625c-14.792969-14.792969-38.722656-15.085938-53.34375-.652344-4.703125 4.640625-7.925781 10.253906-9.648437 16.226562-14.359376-9.800781-34.292969-8.542968-47.21875 3.910157-7.15625 6.890625-11.148438 16.273437-11.246094 26.417969-.070313 7.757812 2.230468 15.382812 6.460937 21.765624-6.019531 1.714844-11.683593 4.949219-16.359375 9.6875-13.273437 13.449219-14.089844 34.769532-2.625 49.617188-5.769531 1.71875-11.195312 4.847656-15.707031 9.359375-7.082031 7.082031-10.984375 16.5-10.984375 26.519531 0 10.015625 3.902344 19.4375 10.984375 26.519532.101563.101562.203125.199218.308594.296874l20.382812 18.707032c-1.914062 5.9375-2.945312 12.261718-2.945312 18.824218 0 11.707032 3.328125 23.082032 9.503906 32.855469-13.613281 14.628907-21.53125 34.003907-21.53125 53.414063 0 25.144531 12.621094 48.523437 33.320313 62.433594.050781 33.875 27.625 61.421874 61.515624 61.421874 20.910157 0 39.785157-10.382812 50.992188-27.027343 15.960938 17.160156 38.285156 27.027343 62.355469 27.027343 31.066406 0 59.226562-16.976562 74.15625-43.09375l82.320312 82.34375c1.953125 1.953126 4.511719 2.929688 7.070313 2.929688 2.5625 0 5.121094-.976562 7.074218-2.929688l106.1875-106.191406c3.90625-3.902344 3.90625-10.234375 0-14.140625zm-113.949218-222.523437c0 18.746094-15.25 34-34 34-18.746094 0-34-15.253906-34-34 0-18.75 15.253906-34 34-34 18.75 0 34 15.25 34 34zm-344.195313-42.3125c6.402344-6.488282 16.765625-6.9375 23.710938-1.078125l79.660156 79.660156c1.953125 1.953125 4.511719 2.925781 7.070313 2.925781 2.558593 0 5.121093-.976562 7.074218-2.925781 3.902344-3.90625 3.902344-10.238281 0-14.144531l-96.460937-96.453125c-3.472657-3.472657-5.4375-8.320313-5.390625-13.300781.042968-4.730469 1.863281-9.066407 5.121094-12.203126 6.820312-6.570312 17.820312-6.460937 24.515624.238282l85.597657 85.59375c1.953125 1.953125 4.511719 2.929687 7.074219 2.929687 2.558593 0 5.117187-.976562 7.070312-2.929687 3.902344-3.902344 3.902344-10.234375 0-14.140625l-68.324219-68.324219c-5.828125-6.945312-5.367187-17.28125 1.109375-23.675781 6.824219-6.734375 18.105469-6.480469 25.148438.5625l116.636718 116.640625c5.105469 5.101562 12.929688 5.574218 18.609376 1.121094 5.679687-4.457032 7.085937-12.167969 3.339843-18.339844-.097656-.160156-.195312-.316406-.300781-.46875l-35.015625-51.066406c-4.941406-8.394532-2.867187-19.136719 4.78125-24.554688 4.019531-2.851562 8.902344-3.929688 13.746094-3.035156 4.84375.890625 9.023437 3.632812 11.765625 7.722656.035156.054688.074218.105469.109375.160156l36.464843 52.179688c-10.414062 9.851562-16.917968 23.789062-16.917968 39.21875 0 29.773437 24.222656 54 54 54 2.632812 0 5.222656-.191406 7.757812-.558594.359375 3.886719.535156 7.789062.53125 11.679688l-.058594 41.996093c-.003906 2.65625 1.050782 5.207031 2.929688 7.082031l45.785156 45.785157-91.945312 91.945312-9.042969-9.042969c19.597656-13.113281 31.453125-34.992187 31.453125-58.972656 0-29.730468-19.160156-56.945312-46.453125-67.265625-6.191406-48.011719-46.6875-84.679687-95.03125-84.679687-22.472656 0-44.515625 7.988281-62.074219 22.226562-10.914062-13.167968-26.898437-21.292968-44.28125-22.152344l-49.203125-49.203124c-7.046875-7.046876-7.296875-18.328126-.5625-25.152344zm-18.558593 83.6875c-3.222657-3.289063-4.992188-7.628906-4.992188-12.242188 0-4.675781 1.820312-9.070312 5.125-12.378906 6.394531-6.390625 16.703125-6.816406 23.601562-1.015625l20.082032 20.078125c-11.015625 4.109375-20.546875 11.289062-27.550782 20.492188zm199.894531 242.234375c-22.886719 0-43.710938-11.660157-55.710938-31.183594-1.832031-2.984375-5.070312-4.761719-8.515625-4.761719-.40625 0-.8125.023438-1.222656.074219-3.882812.476563-7.132812 3.175781-8.3125 6.90625-5.488281 17.324219-21.398438 28.964844-39.589844 28.964844-22.890625 0-41.515625-18.625-41.515625-41.515625 0-1.4375.074219-2.886719.222657-4.3125.410156-3.976563-1.59375-7.816406-5.085938-9.761719-17.550781-9.761719-28.453125-28.257813-28.453125-48.265625 0-16.410156 8.15625-33.53125 21.285156-44.679688 2.042969-1.734374 3.304688-4.21875 3.5-6.890624.195313-2.671876-.691406-5.3125-2.457031-7.328126-6.644531-7.566406-10.304688-17.289062-10.304688-27.371093 0-22.894531 18.625-41.515625 41.515626-41.515625 15.421874 0 29.488281 8.472656 36.714843 22.113281 1.5 2.832031 4.269531 4.773437 7.445313 5.21875 3.175781.445313 6.371094-.65625 8.59375-2.964844 14.914062-15.488281 35.570312-24.371093 56.671875-24.371093 40.066406 0 73.324219 31.964843 75.714843 72.769531.253907 4.324219 3.257813 7.992187 7.449219 9.089843 22.207031 5.820313 38.324219 26.886719 38.324219 50.089844 0 19.382813-10.792969 36.863282-28.167969 45.609375-2.519531 1.269531-4.386719 3.542969-5.140625 6.261719-7.808594 28.15625-33.699218 47.824219-62.960937 47.824219zm163.546875 38.035156-55.558594-55.5625 92.046875-92.046875 55.5625 55.558594zm0 0"/><path d="m339.53125 78.5625c-21.660156 0-39.285156-17.621094-39.285156-39.28125s17.625-39.28125 39.285156-39.28125 39.28125 17.621094 39.28125 39.28125-17.621094 39.28125-39.28125 39.28125zm0-58.5625c-10.632812 0-19.285156 8.648438-19.285156 19.28125s8.652344 19.28125 19.285156 19.28125c10.628906 0 19.28125-8.648438 19.28125-19.28125s-8.652344-19.28125-19.28125-19.28125zm0 0"/><path d="m439.015625 129.890625c-21.65625 0-39.28125-17.625-39.28125-39.285156 0-21.660157 17.625-39.28125 39.28125-39.28125 21.660156 0 39.285156 17.621093 39.285156 39.28125-.003906 21.660156-17.625 39.285156-39.285156 39.285156zm0-58.566406c-10.628906 0-19.28125 8.652343-19.28125 19.28125 0 10.632812 8.652344 19.285156 19.28125 19.285156 10.632813 0 19.285156-8.652344 19.285156-19.285156-.003906-10.628907-8.652343-19.28125-19.285156-19.28125zm0 0"/></svg>