<svg height="512pt" viewBox="0 0 512 512.001" width="512pt" xmlns="http://www.w3.org/2000/svg"><path d="m314.132812 343.199219c1.859376-1.867188 2.929688-4.4375 2.929688-7.066407 0-2.632812-1.070312-5.210937-2.929688-7.070312-1.871093-1.871094-4.441406-2.929688-7.070312-2.929688-2.640625 0-5.210938 1.058594-7.082031 2.929688-1.859375 1.859375-2.917969 4.4375-2.917969 7.070312 0 2.628907 1.058594 5.207032 2.917969 7.066407 1.871093 1.859375 4.441406 2.933593 7.082031 2.933593 2.628906 0 5.199219-1.070312 7.070312-2.933593zm0 0"/><path d="m509.0625 235.507812-49.453125-111.722656c-10.132813-22.894531-32.230469-38.085937-57.011719-39.558594 6.992188-8.863281 11.183594-20.035156 11.183594-32.175781 0-28.699219-23.351562-52.050781-52.050781-52.050781s-52.050781 23.351562-52.050781 52.050781c0 12.140625 4.191406 23.3125 11.183593 32.175781-24.78125 1.472657-46.875 16.664063-57.011719 39.558594l-33.210937 75.019532-19.183594-43.335938c-7.878906-17.800781-23.910156-30.347656-42.546875-34.054688 8.125-9.449218 13.050782-21.726562 13.050782-35.140624v-21.042969c0-29.773438-24.222657-54-54-54-29.773438 0-54 24.226562-54 54v21.042969c0 13.496093 4.988281 25.835937 13.199218 35.3125-18.277344 3.914062-33.945312 16.351562-41.707031 33.878906l-42.867187 96.839844c-6.683594 15.097656.039062 33.089843 14.980468 40.113281 4.265625 2.003906 8.734375 2.953125 13.125 2.953125 11.1875 0 21.859375-6.1875 27.257813-16.914063l16.257812-32.332031v8.75l-25.148437 98.863281c-.761719 2.992188-.097656 6.164063 1.796875 8.601563s4.808593 3.863281 7.894531 3.863281h17.695312v114.796875c0 17.09375 13.902344 31 31 31 8.09375 0 15.472657-3.121094 21-8.222656 5.523438 5.101562 12.902344 8.222656 21 8.222656 17.09375 0 31-13.90625 31-31v-114.796875h17.21875c3.085938 0 6-1.425781 7.894532-3.863281 1.894531-2.433594 2.558594-5.609375 1.796875-8.601563l-25.148438-98.863281v-9.746094l16.757813 33.328125c5.398437 10.730469 16.066406 16.914063 27.257812 16.914063 4.390625 0 8.863282-.949219 13.125-2.953125 4.902344-2.304688 8.910156-5.789063 11.859375-9.964844 10.488281-1.859375 19.457031-8.492187 24.28125-18.089844l21.570313-42.902343v74.667968c0 5.519532 4.476562 10 10 10 5.523437 0 10-4.480468 10-10v-30h88.796875v47.539063h-34.398438v-6.597657c0-5.523437-4.476562-10-10-10-5.519531 0-10 4.476563-10 10v143.085938h-34.398437v-74.027344c0-5.523437-4.476563-10-10-10-5.519532 0-10 4.476563-10 10v115.363282c0 11.308593 9.199218 20.507812 20.511718 20.507812h33.355469c11.308594 0 20.507813-9.199219 20.507813-20.507812v-30.875c.007812-.152344.023437-.304688.023437-.460938v-84.777344c1.589844.320313 3.230469.488282 4.914063.488282h9.042968v126.132812c0 5.523438 4.480469 10 10 10 5.523438 0 10-4.476562 10-10v-126.539062c11.613282-2.113282 20.441407-12.296876 20.441407-24.503907v-130.582031l22.121093 43.988281c5.953126 11.839844 17.726563 18.667969 30.078126 18.664063.074218 0 .152343-.003906.230468-.003906v178.976562c0 5.523438 4.476563 10 10 10 5.519532 0 10-4.476562 10-10v-185.675781c12.359375-9.21875 17.230469-26.242188 10.777344-40.816407zm-147.332031-215.507812c17.671875 0 32.050781 14.378906 32.050781 32.050781s-14.378906 32.050781-32.050781 32.050781-32.050781-14.378906-32.050781-32.050781 14.378906-32.050781 32.050781-32.050781zm-267.667969 68.769531h6.84375c12.5 0 24.472656-3.425781 34.847656-9.835937 8.074219 4.742187 16.945313 7.824218 26.160156 9.125-.929687 17.921875-15.800781 32.214844-33.953124 32.214844-17.90625 0-32.613282-13.917969-33.898438-31.503907zm-.101562-23.539062c0-18.746094 15.253906-34 34-34 18.75 0 34 15.253906 34 34v2.566406c-3.898438-.773437-7.691407-1.988281-11.3125-3.636719.617187-3.15625-.296876-6.554687-2.742188-9-3.90625-3.90625-10.238281-3.90625-14.144531 0-8.773438 8.777344-20.445313 13.609375-32.855469 13.609375h-6.945312zm24.484374 300.972656v85.796875h-22v-85.796875zm-11 125.796875c-6.066406 0-11-4.933594-11-11v-9h22v9c0 6.066406-4.9375 11-11 11zm42 0c-6.066406 0-11-4.933594-11-11v-9h22v9c0 6.066406-4.9375 11-11 11zm11-40h-22v-85.796875h22zm70.398438-177.683594c-5.25 2.460938-11.40625.335938-14.011719-4.84375l-34.625-68.867187v-13.628907c0-5.523437-4.480469-10-10-10-5.523437 0-10 4.476563-10 10v69.152344c0 .828125.101563 1.65625.308594 2.464844l22.285156 87.609375h-113.1875l22.285157-87.609375c.203124-.808594.308593-1.636719.308593-2.464844v-69.152344c0-5.523437-4.480469-10-10-10-5.523437 0-10 4.476563-10 10v14.625l-34.128906 67.871094c-2.601563 5.183594-8.753906 7.308594-14.003906 4.84375-5.1875-2.4375-7.515625-8.679687-5.199219-13.914062l42.867188-96.839844c6.261718-14.148438 20.308593-23.289062 35.777343-23.289062h57.875c15.472657 0 29.515625 9.140624 35.777344 23.289062l42.867187 96.839844c2.316407 5.238281-.011718 11.476562-5.195312 13.914062zm120.589844 217.175782c0 .28125-.230469.507812-.511719.507812h-33.355469c-.28125 0-.507812-.226562-.507812-.507812v-21.335938h34.375zm49.511718-135.625h-24.574218c-2.710938 0-4.914063-2.203126-4.914063-4.910157v-17.289062h34.398438v17.289062c0 2.707031-2.203125 4.910157-4.910157 4.910157zm64.898438-100.488282-39.988281-79.527344v-22.183593c0-5.523438-4.476563-10-10-10-5.519531 0-10 4.476562-10 10v92.460937h-88.796875v-92.460937c0-5.523438-4.480469-10-10-10-5.523438 0-10 4.476562-10 10v23.273437l-39.441406 78.4375c-.417969.835938-.933594 1.597656-1.496094 2.3125-.421875-1.820312-1.015625-3.621094-1.792969-5.386718l-12.75-28.792969 40.5625-91.628907c7.472656-16.875 24.222656-27.78125 42.679687-27.78125h73.824219c18.453125 0 35.207031 10.90625 42.679688 27.78125l49.453125 111.71875c3.007812 6.800782-.015625 14.902344-6.746094 18.066407-6.816406 3.199219-14.804688.4375-18.1875-6.289063zm0 0"/><path d="m488.28125 492c-2.628906 0-5.210938 1.070312-7.070312 2.929688-1.859376 1.859374-2.929688 4.441406-2.929688 7.070312 0 2.632812 1.070312 5.210938 2.929688 7.070312 1.859374 1.859376 4.441406 2.929688 7.070312 2.929688 2.632812 0 5.210938-1.070312 7.070312-2.929688 1.859376-1.859374 2.929688-4.4375 2.929688-7.070312 0-2.628906-1.070312-5.210938-2.929688-7.070312-1.859374-1.859376-4.4375-2.929688-7.070312-2.929688zm0 0"/></svg>