<svg height="499pt" viewBox="0 0 499.312 499" width="499pt" xmlns="http://www.w3.org/2000/svg"><path d="m491.3125 132.835938-124.679688-124.679688c-5.089843-5.089844-12.121093-8-19.320312-8-.015625 0-.03125 0-.046875 0-7.28125.007812-14.128906 2.847656-19.273437 8l-23.992188 23.992188 8.375 8.375-140.160156 161.183593c-10.894532 12.546875-16.902344 28.601563-16.902344 45.21875 0 16.742188 5.984375 32.535157 16.855469 45.054688l-112.855469 112.855469-8-8-51.3125 51.3125 51.3125 51.3125 51.3125-51.3125-8-8 112.855469-112.855469c12.519531 10.871093 28.3125 16.855469 45.054687 16.855469 16.617188 0 32.671875-6.007813 45.207032-16.90625l161.1875-140.15625 8.382812 8.375 24-24c5.160156-5.160157 8-12.015626 8-19.3125 0-7.296876-2.839844-14.160157-8-19.3125zm-320 114.089843c0-12.761719 4.609375-25.089843 12.984375-34.714843l139.421875-160.34375 12.679688 12.679687-142.199219 164.648437c-4.4375 5.144532-6.886719 11.730469-6.886719 18.519532 0 7.570312 2.945312 14.695312 8.304688 20.050781l.710937.710937c-1.296875.878907-2.527344 1.863282-3.648437 2.984376l-9.207032 9.207031c-7.863281-9.472657-12.160156-21.273438-12.160156-33.742188zm63.519531 37.429688c-1.9375-9.945313-9.777343-17.792969-19.71875-19.71875l-8.175781-8.175781c-2.34375-2.34375-3.625-5.449219-3.625-8.746094 0-2.957032 1.070312-5.832032 3-8.070313l37.625-43.558593 59.4375 59.4375-43.558594 37.625c-4.746094 4.070312-12.375 3.816406-16.808594-.617188zm80.6875-39.320313-61.09375-61.09375 11.757813-13.617187 62.953125 62.953125zm25.753907-22.238281-64.609376-64.609375 71.078126-82.296875 75.832031 75.832031zm-289.960938 254.039063-28.6875-28.6875 28.6875-28.6875 28.6875 28.6875zm19.3125-60.6875 133.375-133.375c1.671875-1.671876 3.984375-2.625 6.34375-2.625 4.945312 0 8.96875 4.023437 8.96875 8.96875 0 2.359374-.953125 4.671874-2.625 6.34375l-133.375 133.375zm216.621094-100.984376c-9.621094 8.375-21.949219 12.984376-34.710938 12.984376-12.472656 0-24.269531-4.296876-33.742187-12.167969l9.207031-9.207031c1.121094-1.121094 2.105469-2.34375 2.984375-3.648438l.710937.710938c5.351563 5.359374 12.480469 8.304687 20.046876 8.304687 6.800781 0 13.378906-2.449219 18.523437-6.886719l164.644531-142.195312 12.683594 12.679687zm192.753906-155.015624-12.6875 12.6875-140.6875-140.6875 12.679688-12.679688c2.101562-2.105469 5.015624-3.304688 8.015624-3.3125h.015626c2.96875 0 5.871093 1.207031 7.984374 3.3125l124.679688 124.679688c2.136719 2.144531 3.3125 4.976562 3.3125 8 0 3.023437-1.175781 5.855468-3.3125 8zm0 0"/></svg>