<svg height="512pt" viewBox="0 -109 512.001 512" width="512pt" xmlns="http://www.w3.org/2000/svg"><path d="m337.828125 233.9375c-2.628906 0-5.207031 1.070312-7.066406 2.929688-1.863281 1.863281-2.933594 4.441406-2.933594 7.070312 0 2.632812 1.070313 5.210938 2.933594 7.070312 1.859375 1.859376 4.4375 2.929688 7.066406 2.929688 2.632813 0 5.210937-1.070312 7.070313-2.929688 1.859374-1.859374 2.929687-4.4375 2.929687-7.070312 0-2.640625-1.066406-5.21875-2.929687-7.070312-1.859376-1.859376-4.429688-2.929688-7.070313-2.929688zm0 0"/><path d="m485.3125 139.714844 5.695312-10.441406h10.992188c5.523438 0 10-4.476563 10-10 0-5.523438-4.476562-10-10-10h-16.929688c-3.660156 0-7.027343 2-8.78125 5.214843l-2.476562 4.539063-12.34375-44.203125c-5.558594-19.890625-23.859375-33.78125-44.515625-33.78125h-28.078125v-31.042969c0-5.523438-4.480469-10-10-10h-82.085938c-5.519531 0-10 4.476562-10 10v31.042969h-28.085937c-20.625 0-38.921875 13.867187-44.492187 33.726562l-12.402344 44.179688-2.433594-4.460938c-1.75-3.214843-5.117188-5.214843-8.777344-5.214843h-16.933594c-2.113281 0-4.074218.664062-5.691406 1.785156-5.457031-7.53125-14.316406-12.445313-24.308594-12.445313h-32.945312c-.183594-.238281-.382812-.464843-.574219-.699219 7.03125-6.378906 11.453125-15.582031 11.453125-25.800781 0-19.207031-15.625-34.832031-34.832031-34.832031s-34.835937 15.625-34.835937 34.832031c0 10.34375 4.539062 19.644531 11.71875 26.03125-4.152344 5.144531-6.648438 11.6875-6.648438 18.800781v44.75c-32.21875 4.84375-57 32.703126-57 66.25 0 36.945313 30.054688 67 67 67l385.617188.03125c12.871093 0 23.347656-10.472656 23.347656-23.347656v-17.691406h5.515625c16.828125 0 30.519531-13.691406 30.519531-30.523438v-41.941406c0-18.476562-10.945312-34.433594-26.6875-41.757812zm-43.105469-59.511719 15.425781 55.234375h-101.582031l22.199219-22.199219c3.90625-3.90625 3.90625-10.238281 0-14.144531-3.90625-3.902344-10.234375-3.902344-14.144531 0l-36.339844 36.34375h-51.65625l74.394531-74.398438h66.453125c11.714844 0 22.097657 7.882813 25.25 19.164063zm-135.414062-60.203125h62.082031v21.039062h-62.082031zm-73.328125 60.171875c3.164062-11.265625 13.542968-19.132813 25.242187-19.132813h63.511719l-74.246094 74.25c-.046875.046876-.085937.097657-.132812.148438h-29.886719zm-48.804688 49.101563 5.691406 10.441406c-13.699218 6.375-23.765624 19.289062-26.144531 34.714844-4.925781-3.464844-10.890625-5.484376-17.207031-5.484376h-30v-10.332031h26.667969c16.320312 0 29.628906-13.105469 29.980469-29.339843h.019531zm57.753906 142.359374c0 1.738282-1.339843 3.15625-3.039062 3.3125h-16.636719c-1.699219-.15625-3.035156-1.574218-3.035156-3.3125v-17.695312h22.707031v17.695312zm-42.472656 3.3125h-13.585937c3.378906-6.109374 4.667969-13.410156 3.101562-20.757812l-.136719-.644531c1.585938.253906 3.210938.394531 4.867188.394531h5.515625v17.691406c0 1.128906.085937 2.234375.238281 3.316406zm-71.664062-19.953124 2.5 11.714843c.625 2.9375 1.6875 5.703125 3.097656 8.238281h-19.183594c5.65625-5.738281 10.28125-12.488281 13.585938-19.953124zm15.390625-136.378907c5.511719 0 10 4.484375 10 10 0 5.511719-4.488281 10-10 10h-36.667969c-5.523438 0-10 4.476563-10 10v30.332031c0 5.523438 4.476562 10 10 10h40c4.6875 0 8.804688 3.332032 9.78125 7.917969l13.113281 61.496094c1.152344 5.394531-2.300781 10.71875-7.691406 11.867187-.695313.148438-1.402344.222657-2.105469.222657-4.679687 0-8.78125-3.328125-9.761718-7.917969l-9.738282-45.671875c-.984375-4.613281-5.0625-7.914063-9.78125-7.914063h-43.816406c-5.515625 0-10-4.484374-10-10v-82c0-5.511718 4.484375-10 10-10 3.882812 0 7.445312 2.292969 9.078125 5.84375 1.632813 3.550782 5.179687 5.824219 9.085937 5.824219zm-56.902344-61.332031c8.179687 0 14.832031 6.652344 14.832031 14.832031 0 8.179688-6.652344 14.832031-14.832031 14.832031s-14.835937-6.652343-14.835937-14.832031c0-8.179687 6.65625-14.832031 14.835937-14.832031zm-66.765625 170.664062c0-22.484374 15.875-41.320312 37-45.917968v16.917968c0 16.542969 13.457031 30 30 30h26.976562c-.539062 25.457032-21.394531 46-46.976562 46-25.914062 0-47-21.082031-47-47zm435.964844 43.6875c0 1.84375-1.503906 3.34375-3.347656 3.34375h-7.390626c-.207031-.011718-.410156-.027343-.617187-.027343h-8.320313c-1.695312-.160157-3.035156-1.578125-3.035156-3.316407v-17.695312h22.710938zm36.035156-48.21875c0 5.804688-4.71875 10.523438-10.519531 10.523438h-105.171875c-5.519532 0-10 4.476562-10 10 0 5.519531 4.480468 10 10 10h36.945312v17.691406c0 1.128906.085938 2.234375.238282 3.316406h-151.320313c.15625-1.082031.242187-2.191406.242187-3.316406v-17.691406h34.378907c5.519531 0 10-4.480469 10-10 0-5.523438-4.480469-10-10-10h-102.605469c-5.800781 0-10.523438-4.722656-10.523438-10.523438v-41.941406c0-14.355468 11.683594-26.035156 26.039063-26.035156h256.261719c14.355468 0 26.035156 11.679688 26.035156 26.035156zm0 0"/><path d="m395.671875 91.675781c2.628906 0 5.207031-1.066406 7.066406-2.929687 1.859375-1.859375 2.933594-4.4375 2.933594-7.070313 0-2.628906-1.070313-5.207031-2.933594-7.066406-1.859375-1.859375-4.4375-2.933594-7.066406-2.933594-2.632813 0-5.210937 1.070313-7.070313 2.933594-1.859374 1.859375-2.929687 4.4375-2.929687 7.066406 0 2.632813 1.066406 5.210938 2.929687 7.070313 1.859376 1.863281 4.4375 2.929687 7.070313 2.929687zm0 0"/><path d="m223.9375 184.6875c-2.628906 0-5.207031 1.070312-7.066406 2.929688-1.859375 1.859374-2.933594 4.441406-2.933594 7.070312 0 2.632812 1.070312 5.210938 2.933594 7.070312 1.859375 1.859376 4.4375 2.929688 7.066406 2.929688 2.632812 0 5.210938-1.070312 7.070312-2.929688 1.871094-1.859374 2.929688-4.4375 2.929688-7.070312 0-2.628906-1.058594-5.210938-2.929688-7.070312-1.859374-1.859376-4.4375-2.929688-7.070312-2.929688zm0 0"/><path d="m396.316406 184.6875h-116.96875c-5.519531 0-10 4.476562-10 10 0 5.519531 4.480469 10 10 10h116.96875c5.523438 0 10-4.480469 10-10 0-5.523438-4.476562-10-10-10zm0 0"/><path d="m451.730469 184.6875c-2.640625 0-5.222657 1.070312-7.082031 2.929688-1.859376 1.851562-2.917969 4.429687-2.917969 7.070312 0 2.632812 1.058593 5.210938 2.917969 7.070312 1.859374 1.859376 4.441406 2.929688 7.082031 2.929688 2.628906 0 5.199219-1.070312 7.058593-2.929688 1.871094-1.871093 2.929688-4.4375 2.929688-7.070312 0-2.628906-1.058594-5.210938-2.929688-7.070312-1.859374-1.859376-4.429687-2.929688-7.058593-2.929688zm0 0"/></svg>