<svg xmlns="http://www.w3.org/2000/svg" viewBox="0 0 512.002 512.002"><path d="M196.002 127.5v-30c0-28.949-23.551-52.5-52.5-52.5s-52.5 23.551-52.5 52.5v30c0 15.634 6.877 29.685 17.756 39.311-8.608 3.285-15.293 10.781-17.204 20.197a7.5 7.5 0 1 0 14.7 2.984c1.175-5.79 6.326-9.992 12.248-9.992h50c5.922 0 11.073 4.202 12.249 9.992a7.5 7.5 0 1 0 14.7-2.984c-1.912-9.416-8.597-16.912-17.205-20.197 10.879-9.626 17.756-23.677 17.756-39.311zm-90-30c0-20.678 16.822-37.5 37.5-37.5s37.5 16.822 37.5 37.5v2.5h-15.139c-5.652-6.325-13.746-10-22.361-10s-16.708 3.675-22.361 10h-15.139v-2.5zm37.5 67.5c-20.678 0-37.5-16.822-37.5-37.5V115h18.792a7.499 7.499 0 0 0 6.232-3.328A14.992 14.992 0 0 1 143.502 105c5.015 0 9.679 2.494 12.476 6.672A7.499 7.499 0 0 0 162.21 115h18.792v12.5c0 20.678-16.822 37.5-37.5 37.5zm105 120h-22.5v-14h7.5a7.5 7.5 0 0 0 0-15h-53.308c9.745-9.537 15.808-22.821 15.808-37.5a7.5 7.5 0 0 0-7.5-7.5h-90a7.5 7.5 0 0 0-7.5 7.5c0 14.679 6.063 27.963 15.808 37.5H53.502a7.5 7.5 0 0 0 0 15h7.5v14h-22.5c-20.678 0-37.5 16.822-37.5 37.5v182a7.5 7.5 0 0 0 15 0V467h255v37.5a7.5 7.5 0 0 0 15 0v-182c0-20.678-16.822-37.5-37.5-37.5zm-141.747-59h73.493c-3.485 17.095-18.637 30-36.747 30s-33.261-12.905-36.746-30zm104.247 45v14h-135v-14h135zm60 181h-255v-30h255v30zm0-45h-255v-84.5c0-12.407 10.093-22.5 22.5-22.5h210c12.407 0 22.5 10.093 22.5 22.5V407zm217.5-252h-7.5v-26.29c8.729-3.096 15-11.432 15-21.21v-15c0-12.407-10.093-22.5-22.5-22.5s-22.5 10.093-22.5 22.5v15c0 9.778 6.271 18.114 15 21.21V185h-46.048c-3.274-11.528-13.889-20-26.452-20h-50c-15.164 0-27.5 12.336-27.5 27.5v160a7.5 7.5 0 0 0 7.5 7.5h7.5v129.094l-24.872 8.291a7.5 7.5 0 0 0 4.743 14.23l30-10a7.5 7.5 0 0 0 5.128-7.115V360h45v129.094l-24.872 8.291a7.5 7.5 0 0 0 4.743 14.23l30-10A7.5 7.5 0 0 0 406 494.5V360h22.5a7.5 7.5 0 0 0 7.5-7.5v-50.335a67.413 67.413 0 0 0-15-42.406V200h45v7.5a7.5 7.5 0 0 0 15 0V200h7.5c12.407 0 22.5-10.093 22.5-22.5S500.909 155 488.502 155zm-67.5 147.165V345h-90V192.5c0-6.893 5.607-12.5 12.5-12.5h50c6.893 0 12.5 5.607 12.5 12.5v70c0 1.827.667 3.591 1.875 4.961a52.429 52.429 0 0 1 13.125 34.704zM473.502 115c-4.136 0-7.5-3.364-7.5-7.5v-15c0-4.136 3.364-7.5 7.5-7.5s7.5 3.364 7.5 7.5v15c0 4.136-3.364 7.5-7.5 7.5zm15 70h-7.5v-15h7.5c4.136 0 7.5 3.364 7.5 7.5s-3.364 7.5-7.5 7.5z"/><circle cx="353.501" cy="202.5" r="7.5"/><circle cx="353.501" cy="232.5" r="7.5"/><circle cx="353.501" cy="262.5" r="7.5"/><path d="M390.837 50.001c4.762-5.312 7.665-12.323 7.665-20.001 0-16.542-13.458-30-30-30s-30 13.458-30 30c0 7.678 2.903 14.689 7.665 20.001-17.808 8.408-30.165 26.534-30.165 47.499 0 28.949 23.551 52.5 52.5 52.5s52.5-23.551 52.5-52.5c0-20.965-12.356-39.091-30.165-47.499zM368.502 15c8.271 0 15 6.729 15 15s-6.729 15-15 15-15-6.729-15-15 6.729-15 15-15zm0 120c-20.678 0-37.5-16.822-37.5-37.5s16.822-37.5 37.5-37.5 37.5 16.822 37.5 37.5-16.822 37.5-37.5 37.5z"/></svg>