<svg xmlns="http://www.w3.org/2000/svg" viewBox="0 0 480.024 480.024"><path d="M455.246 188.631c-14.265-8.714-32.816-5.155-42.843 8.219l-44.883 59.836a48.934 48.934 0 0 1-31.43 19.07l-89.969 11.946 46.18-18.547c13.014-4.656 19.79-18.981 15.134-31.995a25.023 25.023 0 0 0-9.306-12.138 24.895 24.895 0 0 0-21.633-3.367L136.59 264.678a74.781 74.781 0 0 0-45.086 35.797l-26.477 47.664c-.241.43-.44.883-.594 1.352l-40 120a7.991 7.991 0 0 0 7.586 10.531h120a8.005 8.005 0 0 0 7.938-7.008l6.016-48.148a17.446 17.446 0 0 1 11.734-14.312l203.461-67.813a64.821 64.821 0 0 0 36.477-30.336l48.367-79.203c9.335-15.281 4.515-35.236-10.766-44.571zm-2.89 36.227l-48.562 79.547a49.142 49.142 0 0 1-27.688 23.156l-203.461 67.82a33.511 33.511 0 0 0-22.547 27.5l-5.141 41.141H43.122l36.25-108.766 26.117-47.008a58.951 58.951 0 0 1 35.648-28.226l140.063-43.07a8.953 8.953 0 0 1 7.813 1.219 9.045 9.045 0 0 1 3.883 7.063 9.557 9.557 0 0 1-6.477 9.047L181.036 296.6a8 8 0 0 0 4.039 15.351l153.336-20.367a64.954 64.954 0 0 0 41.906-25.305l44.883-59.836c5.443-7.257 15.737-8.727 22.994-3.284 6.772 5.08 8.574 14.474 4.162 21.699zM240.02.022c-30.928 0-56 25.072-56 56s25.072 56 56 56 56-25.072 56-56c-.037-30.912-25.087-55.962-56-56zm-22.789 23.095a39.936 39.936 0 0 1 22.789-7.095 39.722 39.722 0 0 1 22.655 7.095l-55.561 55.561c-12.548-18.137-8.019-43.012 10.117-55.561zm44.43 66.615a39.853 39.853 0 0 1-21.641 6.29 39.653 39.653 0 0 1-21.335-6.29l55.045-55.045c11.868 18.533 6.464 43.178-12.069 55.045zm26.359 38.29h-96c-22.091 0-40 17.909-40 40s17.909 40 40 40h96c22.091 0 40-17.909 40-40s-17.908-40-40-40zm-56 64h-40c-13.249-.014-23.986-10.751-24-24 .014-13.249 10.751-23.986 24-24h40v48zm56 0h-40v-48h40c13.255 0 24 10.745 24 24s-10.745 24-24 24zM96.025 176.73c-.144-.146-.289-.29-.434-.434-21.936-21.656-57.205-21.656-79.141 0-21.735 21.495-21.93 56.541-.434 78.276a55.984 55.984 0 0 0 40.004 16.676 56.001 56.001 0 0 0 39.57-16.242c21.736-21.495 21.93-56.541.435-78.276zM48.77 254.572a39.871 39.871 0 0 1-21.055-10.925c-15.462-15.277-15.612-40.195-.335-55.657l.335-.335a39.88 39.88 0 0 1 21.055-10.929v77.846zm35.555-10.925a39.777 39.777 0 0 1-19.555 10.564v-77.124a39.79 39.79 0 0 1 19.555 10.567 39.17 39.17 0 0 1 11.695 27.992 39.204 39.204 0 0 1-11.695 28.001zM140.012 82.03l-70-70.016c-16.016-16.016-41.984-16.016-58 0s-16.016 41.984 0 58h.008l70.008 70c16.067 15.957 42.027 15.868 57.984-.199 15.88-15.988 15.88-41.796 0-57.785zM23.34 58.702c-9.741-9.773-9.744-25.583-.008-35.36 9.774-9.744 25.589-9.748 35.367-.008l29.342 29.345L52.68 88.042l-29.34-29.34zm105.36 70c-9.777 9.734-25.583 9.734-35.359 0L63.993 99.354l35.361-35.361L128.7 93.342c9.743 9.774 9.743 25.587 0 35.36zM468.016 12.026c-16.012-16.014-41.974-16.016-57.988-.004L340.012 82.03c-16.01 15.998-16.019 41.945-.021 57.955a40.983 40.983 0 0 0 29.021 12.014 40.872 40.872 0 0 0 28.992-11.984l70.008-70c16.014-16.012 16.016-41.974.004-57.989zm-81.324 116.676c-9.764 9.764-25.595 9.764-35.36 0s-9.764-25.595 0-35.36l29.35-29.346 35.359 35.359-29.349 29.347zm70.008-70l-29.345 29.342-35.36-35.36 29.345-29.343c9.764-9.764 25.596-9.764 35.36 0 9.765 9.766 9.765 25.597 0 35.361z"/></svg>