<svg height="512pt" viewBox="0 -109 512.001 512" width="512pt" xmlns="http://www.w3.org/2000/svg"><path d="M337.828 233.938a10.07 10.07 0 0 0-7.066 2.93 10.074 10.074 0 0 0-2.934 7.07c0 2.632 1.07 5.21 2.934 7.07a10.07 10.07 0 0 0 7.066 2.93c2.633 0 5.211-1.07 7.07-2.93a10.073 10.073 0 0 0 2.93-7.07c0-2.641-1.066-5.22-2.93-7.07a10.059 10.059 0 0 0-7.07-2.93zm0 0"/><path d="M485.313 139.715l5.695-10.442H502c5.523 0 10-4.476 10-10 0-5.523-4.477-10-10-10h-16.93a10 10 0 0 0-8.78 5.215l-2.478 4.54-12.343-44.204c-5.559-19.89-23.86-33.781-44.516-33.781h-28.078V10c0-5.523-4.48-10-10-10h-82.086c-5.52 0-10 4.477-10 10v31.043h-28.086c-20.625 0-38.922 13.867-44.492 33.727l-12.402 44.18-2.434-4.462a9.993 9.993 0 0 0-8.777-5.215h-16.934a9.961 9.961 0 0 0-5.691 1.786c-5.457-7.532-14.317-12.446-24.309-12.446H110.72c-.184-.238-.383-.465-.574-.699 7.03-6.379 11.453-15.582 11.453-25.8 0-19.208-15.625-34.833-34.832-34.833S51.93 52.906 51.93 72.113c0 10.344 4.539 19.645 11.718 26.032a29.847 29.847 0 0 0-6.648 18.8v44.75c-32.219 4.844-57 32.703-57 66.25 0 36.946 30.055 67 67 67l385.617.032c12.871 0 23.348-10.473 23.348-23.348v-17.691h5.515c16.829 0 30.52-13.692 30.52-30.524v-41.941c0-18.477-10.945-34.434-26.688-41.758zm-43.106-59.512l15.426 55.234H356.05l22.199-22.199c3.906-3.906 3.906-10.238 0-14.144-3.906-3.903-10.234-3.903-14.145 0l-36.34 36.344H276.11l74.395-74.399h66.453c11.715 0 22.098 7.883 25.25 19.164zM306.793 20h62.082v21.04h-62.082zm-73.328 60.172c3.164-11.266 13.543-19.133 25.242-19.133h63.512l-74.246 74.25c-.047.047-.086.098-.133.149h-29.887zm-48.805 49.101l5.692 10.442c-13.7 6.375-23.766 19.289-26.145 34.715-4.926-3.465-10.89-5.485-17.207-5.485h-30v-10.332h26.668c16.32 0 29.629-13.105 29.98-29.34h.02zm57.754 142.36c0 1.738-1.34 3.156-3.039 3.312h-16.637a3.333 3.333 0 0 1-3.035-3.312v-17.695h22.707v17.695zm-42.473 3.312h-13.586c3.38-6.11 4.668-13.41 3.102-20.757l-.137-.645c1.586.254 3.211.394 4.868.394h5.515v17.692a23.8 23.8 0 0 0 .238 3.316zm-71.664-19.953l2.5 11.715a29.621 29.621 0 0 0 3.098 8.238h-19.184a67.168 67.168 0 0 0 13.586-19.953zm15.391-136.379c5.512 0 10 4.485 10 10 0 5.512-4.488 10-10 10H107c-5.523 0-10 4.477-10 10v30.332c0 5.524 4.477 10 10 10h40c4.688 0 8.805 3.332 9.781 7.918l13.114 61.496c1.152 5.395-2.301 10.72-7.692 11.868-.695.148-1.402.222-2.105.222-4.68 0-8.782-3.328-9.762-7.918l-9.738-45.672a10.003 10.003 0 0 0-9.782-7.914H87c-5.516 0-10-4.484-10-10v-82c0-5.511 4.484-10 10-10 3.883 0 7.445 2.293 9.078 5.844a10 10 0 0 0 9.086 5.824zM86.766 57.281c8.18 0 14.832 6.653 14.832 14.832 0 8.18-6.653 14.832-14.832 14.832S71.93 80.293 71.93 72.113s6.656-14.832 14.836-14.832zM20 227.945c0-22.484 15.875-41.32 37-45.918v16.918c0 16.543 13.457 30 30 30h26.977c-.54 25.457-21.395 46-46.977 46-25.914 0-47-21.082-47-47zm435.965 43.688a3.35 3.35 0 0 1-3.348 3.344h-7.39c-.207-.012-.41-.028-.618-.028h-8.32c-1.695-.16-3.035-1.578-3.035-3.316v-17.695h22.71zM492 223.414c0 5.805-4.719 10.524-10.52 10.524H376.31c-5.52 0-10 4.476-10 10 0 5.519 4.48 10 10 10h36.945v17.69c0 1.13.086 2.235.238 3.317h-151.32c.156-1.082.242-2.191.242-3.316v-17.691h34.379c5.52 0 10-4.481 10-10 0-5.524-4.48-10-10-10H194.188c-5.801 0-10.524-4.723-10.524-10.524v-41.941c0-14.356 11.684-26.035 26.04-26.035h256.26c14.356 0 26.036 11.68 26.036 26.035zm0 0"/><path d="M395.672 91.676c2.629 0 5.207-1.067 7.066-2.93a10.076 10.076 0 0 0 2.934-7.07c0-2.63-1.07-5.207-2.934-7.067a10.074 10.074 0 0 0-7.066-2.933 10.06 10.06 0 0 0-7.07 2.933 10.07 10.07 0 0 0-2.93 7.067c0 2.633 1.066 5.21 2.93 7.07a10.056 10.056 0 0 0 7.07 2.93zm-171.734 93.012a10.07 10.07 0 0 0-7.067 2.93 10.083 10.083 0 0 0-2.934 7.07c0 2.632 1.07 5.21 2.934 7.07a10.07 10.07 0 0 0 7.066 2.93c2.633 0 5.211-1.07 7.07-2.93a10.023 10.023 0 0 0 2.93-7.07 10.03 10.03 0 0 0-2.93-7.07 10.073 10.073 0 0 0-7.07-2.93zm172.378 0H279.348c-5.52 0-10 4.476-10 10 0 5.519 4.48 10 10 10h116.968c5.524 0 10-4.481 10-10 0-5.524-4.476-10-10-10zm55.414 0c-2.64 0-5.222 1.07-7.082 2.93-1.859 1.85-2.918 4.429-2.918 7.07 0 2.632 1.06 5.21 2.918 7.07a10.086 10.086 0 0 0 7.082 2.93c2.63 0 5.2-1.07 7.06-2.93a10.043 10.043 0 0 0 2.929-7.07 10.03 10.03 0 0 0-2.93-7.07 10.052 10.052 0 0 0-7.059-2.93zm0 0"/></svg>