<svg height="512pt" viewBox="-57 0 512 512" width="512pt" xmlns="http://www.w3.org/2000/svg"><path d="m397.59375 120.070312v-120.070312h-397.59375v120.070312h30.023438v30.050782h-30.023438v361.878906h397.59375v-361.878906h-30.023438v-30.050782zm-30-30h-31.265625v-60.070312h31.265625zm-276.328125 0v-60.070312h31.265625v60.070312zm61.265625-60.070312h31.265625v60.070312h-31.265625zm61.265625 0h31.265625v60.070312h-31.265625zm61.265625 0h31.265625v60.070312h-31.265625zm-245.0625 0h31.265625v60.070312h-31.265625zm337.59375 452h-337.59375v-301.878906h337.59375zm-30.023438-331.878906h-277.546874v-30.050782h277.546874zm0 0"/><path d="m337.546875 210.167969h-277.5v241.785156h277.5zm-30 211.785156h-217.5v-181.785156h217.5zm0 0"/><path d="m183.796875 391.914062h30v-45.855468h45.855469v-30h-45.855469v-45.855469h-30v45.855469h-45.855469v30h45.855469zm0 0"/></svg>