<svg height="512pt" viewBox="-24 0 512 512" width="512pt" xmlns="http://www.w3.org/2000/svg"><g fill="none" stroke-width="30" stroke-linecap="round" stroke-linejoin="round" stroke="#000" stroke-miterlimit="10"><path d="M19.82 256h375.961M207.8 288.133V256m186.833-30.984l-20.2-50.496c-3.28-8.208-13.195-14.918-22.035-14.918H63.2c-8.836 0-18.75 6.71-22.035 14.918L20.97 225.016C17.688 233.223 15 247.164 15 256v32.133c0 26.62 21.578 48.199 48.2 48.199 26.62 0 48.198-21.578 48.198-48.2 0 26.622 21.582 48.2 48.2 48.2 26.62 0 48.203-21.578 48.203-48.2 0 26.622 21.578 48.2 48.199 48.2 26.617 0 48.2-21.578 48.2-48.2 0 26.622 21.577 48.2 48.198 48.2 26.622 0 48.2-21.578 48.2-48.2V256c.004-8.836-2.684-22.777-5.965-30.984zm-283.235 63.117V256m96.402 32.133V256m96.4 32.133V256m48.198 80.332v120.5c0 22.094-18.074 40.168-40.164 40.168H103.367C81.273 497 63.2 478.926 63.2 456.832v-120.5"/><path d="M231.898 63.2V15H183.7v48.2h-48.2v48.198h48.2v48.204h48.198v-48.204h48.204V63.2zm-64.265 353.464h80.332V497h-80.332zm0 0"/></g></svg>