<svg height="512pt" viewBox="0 -9 512.002 512" width="512pt" xmlns="http://www.w3.org/2000/svg"><path d="M511.953 266.023l-1.918-18.398v-18.398c0-5.63-1.691-10.165-5.015-13.47-5.602-5.562-13.403-5.542-20.891-5.429H257.39L60.89 9.191C50.117-1.582 34.457-3.008 24.398 5.574L21.98 6.72l-1.152 1.16c-10.39 10.398-10.398 31.578-.086 41.89l156.79 160.567H25.917c-7.52 0-15.3-.14-20.895 5.434C1.691 219.062 0 223.598 0 229.227v18.89c0 .309.074.66.086.973h-.04l.22 2.05c.093 1.087.14 2.153.34 3.286l1.378 13.262c.422 122.492 114.645 226.011 255 226.011C397.602 493.7 512 389.793 512 267.008zm-27.683-36.796c2.125 0 5.097-.059 6.875.168v18.722c0 7.746-6.422 18.473-9.446 18.89h-66.117v-37.78zM335.3 247.719c-18.226 0-33.058 14.746-33.058 32.86v23.413c0 7.7-6.355 13.973-14.164 13.973-7.812 0-14.168-6.254-14.168-13.961v-74.79h122.785v129.427c0 7.699-6.355 13.972-14.168 13.972-7.808 0-14.164-6.261-14.164-13.96v-78.067c-.004-18.121-14.832-32.867-33.062-32.867zM34.18 36.489c-2.785-2.786-3.04-10.598-.754-14.29l1.812-.851 1.164-1.16c2.625-2.606 7.875-.899 11.051 2.285l183.508 187.855H203.93zm-8.414 192.73H255.02v37.777H28.363c-2.597-.348-7.601-8.168-9.05-15.27l-.422-4.101v-18.23c1.785-.227 4.742-.208 6.875-.176zM256.992 474.8c-123.37 0-224.879-84.82-235.203-190.14 2.078.753 4.25 1.226 6.547 1.226H255.02V304c0 18.117 14.828 32.86 33.058 32.86 18.227 0 33.055-14.743 33.055-32.86v-23.414c0-7.695 6.36-13.969 14.168-13.969 7.812 0 14.168 6.274 14.168 13.969v78.066c0 18.114 14.828 32.86 33.058 32.86 18.227 0 33.059-14.746 33.059-32.86v-72.754h66.113c3.89 0 7.446-1.296 10.676-3.316-9.18 106.277-111.2 192.219-235.383 192.219zm0 0"/><path d="M249.066 439.172c-51.425-5.27-98.472-25.567-132.464-57.16-3.809-3.535-9.797-3.336-13.348.492-3.55 3.812-3.336 9.793.492 13.344 36.988 34.37 87.906 56.437 143.395 62.12a9.447 9.447 0 0 0 10.363-8.438c.527-5.182-3.25-9.82-8.438-10.358zM77.082 342.324c-3.129-4.176-9.039-5.043-13.223-1.91-4.175 3.129-5.023 9.05-1.91 13.215a84.814 84.814 0 0 0 11.223 12.297 9.406 9.406 0 0 0 6.308 2.43 9.397 9.397 0 0 0 7.028-3.13c3.484-3.878 3.176-9.851-.707-13.335a67.703 67.703 0 0 1-8.719-9.567zm0 0"/></svg>