<svg xmlns="http://www.w3.org/2000/svg" viewBox="0 0 512.049 512.049"><path d="M426.691 426.204H85.358a8.96 8.96 0 0 0-8.533 9.045 8.533 8.533 0 0 0 8.533 8.533h341.333a8.533 8.533 0 0 0 8.533-8.533v-.512a8.532 8.532 0 0 0-8.533-8.533zm-332.8 34.645h-8.533a8.533 8.533 0 0 0-8.533 8.533 8.533 8.533 0 0 0 8.533 8.533h8.533a8.533 8.533 0 0 0 8.533-8.533 8.533 8.533 0 0 0-8.533-8.533zm102.4 0h-68.267a8.533 8.533 0 0 0-8.533 8.533 8.533 8.533 0 0 0 8.533 8.533h68.267a8.533 8.533 0 0 0 8.533-8.533 8.533 8.533 0 0 0-8.533-8.533z"/><path d="M401.091 264.583H110.958c-18.851 0-34.133 15.282-34.133 34.133v136.021a8.533 8.533 0 0 0 8.533 8.533h341.333a8.533 8.533 0 0 0 8.533-8.533V298.716c.001-18.851-15.281-34.133-34.133-34.133zm17.067 161.621H93.891V298.716c0-9.426 7.641-17.067 17.067-17.067h290.133c9.426 0 17.067 7.641 17.067 17.067v127.488z"/><path d="M426.691 426.204H85.358a8.96 8.96 0 0 0-8.533 9.045 8.533 8.533 0 0 0 8.533 8.533h341.333a8.533 8.533 0 0 0 8.533-8.533v-.512a8.532 8.532 0 0 0-8.533-8.533zM238.958 264.583h-34.133a8.533 8.533 0 0 0-8.533 8.533v59.733c0 14.138 11.462 25.6 25.6 25.6s25.6-11.462 25.6-25.6v-59.733a8.534 8.534 0 0 0-8.534-8.533zm-8.532 68.266h-.001a8.533 8.533 0 0 1-17.066 0v-51.2h17.067v51.2zm76.799-68.266h-34.133a8.533 8.533 0 0 0-8.533 8.533v25.6c0 14.138 11.462 25.6 25.6 25.6s25.6-11.461 25.6-25.6v-25.6a8.535 8.535 0 0 0-8.534-8.533zm-8.533 34.133a8.534 8.534 0 0 1-17.067 0v-17.067h17.067v17.067z"/><path d="M273.091 264.583h-34.133a8.533 8.533 0 0 0-8.533 8.533v93.867c0 14.138 11.461 25.6 25.6 25.6 14.138 0 25.6-11.461 25.6-25.6v-93.867a8.533 8.533 0 0 0-8.534-8.533zm-8.532 102.4a8.534 8.534 0 0 1-17.067 0V281.65h17.067v85.333zM125.465 301.02l-1.28-1.024a4.707 4.707 0 0 0-1.451-.768l-1.536-.512a8.532 8.532 0 0 0-7.765 2.475 9.8 9.8 0 0 0-1.792 2.816 8.55 8.55 0 0 0-.683 3.243 8.533 8.533 0 0 0 2.475 6.059 9.8 9.8 0 0 0 2.816 1.792 8.55 8.55 0 0 0 3.243.683 8.527 8.527 0 0 0 5.973-2.475 8.53 8.53 0 0 0 2.56-6.059 8.54 8.54 0 0 0-2.56-6.23zM502.638 15.58a42.676 42.676 0 0 0-2.892-3.179c-16.716-16.609-43.73-16.523-60.34.193L318.915 133.169l-.063.063c-9.98 10.015-9.952 26.224.063 36.204l54.272 54.272a17.063 17.063 0 0 0 12.032 4.949 17.069 17.069 0 0 0 12.117-4.949l12.117-12.117.063-.063c9.98-10.015 9.952-26.224-.063-36.204l-6.059-6.059 95.317-95.317c15.988-15.615 17.679-40.753 3.927-58.368zm-16.213 46.336L385.219 163.121a8.533 8.533 0 0 0 0 12.032l12.117 12.117.049.049a8.533 8.533 0 0 1-.049 12.068l-12.117 12.117-54.272-54.272-.049-.049a8.533 8.533 0 0 1 .049-12.068l120.15-120.404a25.6 25.6 0 0 1 18.261-7.595h1.621a25.596 25.596 0 0 1 18.261 9.301c8.238 10.824 7.025 26.109-2.815 35.499z"/><path d="M458.265 53.724a4.783 4.783 0 0 0-1.28-1.024 7.945 7.945 0 0 0-1.451-.853h-1.621a9.047 9.047 0 0 0-4.949 0 10.498 10.498 0 0 0-2.731 1.877 8.534 8.534 0 0 0-2.475 6.059 8.534 8.534 0 0 0 2.56 6.656 7.502 7.502 0 0 0 2.731 1.877 8.545 8.545 0 0 0 3.243 0 8.513 8.513 0 0 0 3.243-.683 7.515 7.515 0 0 0 2.731-1.877 8.532 8.532 0 0 0 2.56-5.973 8.543 8.543 0 0 0-2.561-6.059zm36.693 372.48h-68.267a7.772 7.772 0 0 0-2.731.512H88.259a8.52 8.52 0 0 0-2.901-.512H17.091c-9.426 0-17.067 7.641-17.067 17.067v9.045c0 14.138 11.461 25.6 25.6 25.6h11.264l22.443 27.648a17.065 17.065 0 0 0 13.397 6.485h366.933a17.066 17.066 0 0 0 13.312-6.4l22.187-27.733h11.264c14.138 0 25.6-11.462 25.6-25.6v-9.045c.001-9.426-7.64-17.067-17.066-17.067zm-8.533 34.645h-15.36a8.53 8.53 0 0 0-6.997 3.243l-24.747 30.891H72.387L47.64 464.092a8.535 8.535 0 0 0-6.656-3.243h-15.36a8.533 8.533 0 0 1-8.533-8.533v-9.045h65.365a8.52 8.52 0 0 0 2.901.512H426.69a7.849 7.849 0 0 0 2.731-.512h65.536v9.045h.001a8.533 8.533 0 0 1-8.533 8.533z"/><path d="M148.675 426.204H85.358a8.96 8.96 0 0 0-8.533 9.045 8.533 8.533 0 0 0 8.533 8.533h62.805a8.533 8.533 0 0 0 6.059-2.475l.512-.512a8.533 8.533 0 0 0-6.059-14.591zm230.486-220.587l-54.272-54.357a8.533 8.533 0 0 0-12.032 0L196.291 267.057a8.534 8.534 0 0 0 6.059 14.592h108.971a8.533 8.533 0 0 0 6.059-2.475l61.781-61.44.049-.049a8.533 8.533 0 0 0-.049-12.068zm-71.424 58.966h-84.736l95.744-95.573 42.24 42.667-53.248 52.906zm-137.046 34.133h-17.067a8.533 8.533 0 0 0 0 17.066h17.067a8.533 8.533 0 0 0 8.533-8.533 8.533 8.533 0 0 0-8.533-8.533z"/></svg>