<svg height="640" viewBox="0 -8 480 480" width="640" xmlns="http://www.w3.org/2000/svg"><path d="M344 192c-75.11 0-136 60.89-136 136s60.89 136 136 136 136-60.89 136-136c-.082-75.074-60.926-135.918-136-136zm0 256c-66.273 0-120-53.727-120-120s53.727-120 120-120 120 53.727 120 120c-.074 66.242-53.758 119.926-120 120zm0 0"/><path d="M352 305.473V256h-16v49.473A23.977 23.977 0 0 0 321.473 320H288v16h33.473c3.699 10.531 14.187 17.11 25.28 15.855a23.949 23.949 0 0 0 21.102-21.101c1.254-11.094-5.324-21.582-15.855-25.281zM344 336a8 8 0 1 1 0-16 8 8 0 0 1 0 16zm-104-16h16v16h-16zm96 96h16v16h-16zm96-96h16v16h-16zm-96-96h16v16h-16zm0 0"/><path d="M16 344V112h368v72h16V72c-.027-22.082-17.918-39.973-40-40h-56v-8c0-13.254-10.746-24-24-24s-24 10.746-24 24v8H144v-8c0-13.254-10.746-24-24-24S96 10.746 96 24v8H40C17.918 32.027.027 49.918 0 72v272c.027 22.082 17.918 39.973 40 40h160v-16H40c-13.254 0-24-10.746-24-24zM272 24a8 8 0 0 1 16 0v32a8 8 0 0 1-16 0zm-160 0a8 8 0 0 1 16 0v32a8 8 0 0 1-16 0zM40 48h56v8c0 13.254 10.746 24 24 24s24-10.746 24-24v-8h112v8c0 13.254 10.746 24 24 24s24-10.746 24-24v-8h56c13.254 0 24 10.746 24 24v24H16V72c0-13.254 10.746-24 24-24zm0 0"/><path d="M112 176c0-8.836-7.164-16-16-16H64c-8.836 0-16 7.164-16 16v32c0 8.836 7.164 16 16 16h32c8.836 0 16-7.164 16-16zm-48 32v-32h32v32zm128-32c0-8.836-7.164-16-16-16h-32c-8.836 0-16 7.164-16 16v32c0 8.836 7.164 16 16 16h32c8.836 0 16-7.164 16-16zm-48 32v-32h32v32zm128-8v-24c0-8.836-7.164-16-16-16h-32c-8.836 0-16 7.164-16 16v32c0 8.836 7.164 16 16 16h16v-16h-16v-32h32v24zM96 256H64c-8.836 0-16 7.164-16 16v32c0 8.836 7.164 16 16 16h32c8.836 0 16-7.164 16-16v-32c0-8.836-7.164-16-16-16zm-32 48v-32h32v32zm112-48h-32c-8.836 0-16 7.164-16 16v32c0 8.836 7.164 16 16 16h32c8.836 0 16-7.164 16-16v-32c0-8.836-7.164-16-16-16zm-32 48v-32h32v32zm208-120v-8c0-8.836-7.164-16-16-16h-32c-8.836 0-16 7.164-16 16v8h16v-8h32v8zm0 0"/></svg>