<svg xmlns="http://www.w3.org/2000/svg" viewBox="0 0 512.001 512.001"><path d="M361.07 260.21c-1.859-1.86-4.439-2.93-7.069-2.93s-5.21 1.069-7.07 2.93a10.072 10.072 0 0 0-2.93 7.07c0 2.63 1.069 5.21 2.93 7.069 1.86 1.861 4.44 2.931 7.07 2.931s5.21-1.07 7.069-2.931a10.073 10.073 0 0 0 2.931-7.069 10.077 10.077 0 0 0-2.931-7.07zm104.045-159.042C475.503 91.32 482 77.409 482 62v-8c0-29.775-24.225-54-54-54s-54 24.225-54 54v8c0 15.409 6.498 29.32 16.885 39.168C363.461 112.01 344 138.766 344 170v57.667c0 5.522 4.478 10 10 10s10-4.478 10-10V170c0-29.775 24.225-54 54-54h20c29.775 0 54 24.225 54 54v104c0 5.522 4.478 10 10 10s10-4.478 10-10V170c0-31.234-19.461-57.99-46.885-68.832zM462 62c0 18.748-15.252 34-34 34s-34-15.252-34-34v-8c0-18.748 15.252-34 34-34s34 15.252 34 34v8zm-324.818 71.961a9.96 9.96 0 0 0 .819-3.961V78c0-29.775-24.225-54-54-54S30 48.225 30 78v52a9.96 9.96 0 0 0 .819 3.961C12.172 147.411 0 169.304 0 194v80c0 5.522 4.478 10 10 10s10-4.478 10-10v-80c0-29.775 24.225-54 54-54h20c29.775 0 54 24.225 54 54v80c0 5.522 4.478 10 10 10s10-4.478 10-10v-80c0-24.696-12.172-46.589-30.818-60.039zM118 120H50V78c0-18.748 15.252-34 34-34s34 15.252 34 34v42zm-8.226 235.021c-5.522 0-10 4.478-10 10s4.478 10 10 10h.071c5.522 0 9.964-4.478 9.964-10 .001-5.522-4.512-10-10.035-10z"/><path d="M478 455.478V206c0-5.522-4.478-10-10-10s-10 4.478-10 10v43h-60v-43c0-5.522-4.478-10-10-10s-10 4.478-10 10v249.478c-18.44 7.41-31.5 25.464-31.5 46.522 0 5.522 4.478 10 10 10h143c5.522 0 10-4.478 10-10 0-21.058-13.06-39.113-31.5-46.522zM418 492h-49.794c4.133-11.71 15.312-20.125 28.419-20.125H418V492zm10-189c-5.522 0-10 4.478-10 10v138.875h-20V269h60v182.875h-20V313c0-5.522-4.477-10-10-10zm10 189v-20.125h21.375c13.107 0 24.286 8.415 28.419 20.125H438zm-84-201c-5.522 0-10 4.478-10 10 0 13.544-10.979 24.569-24.504 24.65-4.682-15.456-15.608-28.216-29.831-35.348C298.507 281.59 304 269.49 304 256.127c0-26.468-21.532-48-48-48s-48 21.532-48 48c0 13.363 5.494 25.463 14.335 34.174-14.223 7.132-25.149 19.892-29.831 35.348C178.979 325.569 168 314.544 168 301c0-5.522-4.478-10-10-10-4.454 0-8.225 2.914-9.518 6.938l-11.733-93.187c-.69-5.479-5.681-9.353-11.171-8.673-5.479.69-9.362 5.691-8.673 11.171l23.584 187.313H27.511l2.46-19.54H74.24c5.522 0 10-4.478 10-10s-4.478-10-10-10H32.49L51.094 207.25c.689-5.479-3.193-10.48-8.673-11.171-5.463-.679-10.48 3.192-11.171 8.673l-25 198.562a10.003 10.003 0 0 0 9.922 11.249H46.25v47.313c0 .155.016.306.023.459l-32.595 32.594A10.001 10.001 0 0 0 20.749 512h143a10.001 10.001 0 0 0 7.071-17.071l-32.595-32.594c.007-.153.023-.304.023-.459v-47.313h13.577a9.998 9.998 0 0 0 9.922-11.249l-10.911-86.661c6.059 16.134 21.198 27.858 39.162 28.916v74.765c0 5.522 4.478 10 10 10h10.127v62.063c0 10.81 8.794 19.604 19.604 19.604h16.793c3.49 0 6.762-.927 9.604-2.532a19.464 19.464 0 0 0 9.604 2.532h16.793c10.81 0 19.604-8.794 19.604-19.604v-62.063H312c5.522 0 10-4.478 10-10v-74.765c23.391-1.38 42-20.838 42-44.569 0-5.522-4.477-10-10-10zM102.25 415.671h16v36.204h-16v-36.204zM82.25 492H44.893l20.125-20.125H82.25V492zm0-40.125h-16v-36.204h16v36.204zM139.607 492H102.25v-20.125h17.232L139.607 492zM256 228.127c15.439 0 28 12.561 28 28s-12.561 28-28 28-28-12.561-28-28 12.562-28 28-28zM246.128 492h-16v-14.333h16V492zm0-34.333h-16v-27.334h16v27.334zm36 34.333h-16v-14.333h16V492zm0-34.333h-16v-27.334h16v27.334zm19.873-47.334H210V342.56c0-21.191 17.241-38.433 38.433-38.433h15.135c21.191 0 38.433 17.241 38.433 38.433v67.773z"/></svg>