<svg xmlns="http://www.w3.org/2000/svg" height="596pt" viewBox="0 0 596.084 596" width="596pt"><path d="M6.836 406.77l10.637 3.543a454.083 454.083 0 0 1 140.496 76.421l84.18 67.348c.57.395 1.183.73 1.828.992l-.059.13 34.238 17.132v23.66h19.864V451.973l35.757-26.82-.105-.137c.406-.235.797-.496 1.172-.786a401.41 401.41 0 0 1 232.922-113.92l19.535-2.442a9.932 9.932 0 0 0 8.62-11.094 9.933 9.933 0 0 0-6.573-8.136l-82.63-28.914c-67.308-23.559-140.972 11.91-164.53 79.222a125.03 125.03 0 0 0-1.254 3.766l-21.625 68.469-21.286 15.96V284.157a56.847 56.847 0 0 1 25.38-47.406l-.11-.16a9.573 9.573 0 0 0 1.617-1.082 196.782 196.782 0 0 0 57.235-151.356l-4.66-74.804a9.934 9.934 0 0 0-8.52-9.22 10.025 10.025 0 0 0-10.738 6.497L326.102 96.54a310.376 310.376 0 0 0-18.145 104.66v22.38a76.591 76.591 0 0 0-29.8 60.589v19.676l-10.102-10.102c-1.692-73.86-49.59-138.699-119.688-162.031L82.645 109.86A9.928 9.928 0 0 0 69.8 121.438l10.926 49.289c17.5 80.414 88.867 137.625 171.16 137.218h2.293l23.98 23.977v218.203l-19.867-9.934v-20.43c-.004-85.85-69.602-155.445-155.453-155.44a155.433 155.433 0 0 0-49.16 7.98L6.836 387.914c-5.215 1.715-8.05 7.328-6.336 12.54a9.94 9.94 0 0 0 6.336 6.335zm353.039-58.098c14.379-45.399 56.453-76.297 104.074-76.434a109.738 109.738 0 0 1 36.215 6.207l43.871 15.36a422.182 422.182 0 0 0-195.613 91.132zM327.82 201.199a290.795 290.795 0 0 1 16.965-97.976l15.895-44.418 1.656 26.59a176.937 176.937 0 0 1-34.516 116.41zm-227.668-34.836L93 134.191l49.078 16.36c54.371 18.097 94.336 64.691 103.945 121.18l-80.035-80.036-14.047 14.043 81.223 81.223c-65.562-7.629-119.02-56.094-133.012-120.598zM59.984 391.145c71.028-23.684 147.801 14.695 171.48 85.718a135.486 135.486 0 0 1 6.962 42.899v5.902l-68.04-54.422a473.349 473.349 0 0 0-129.55-73.71zm0 0"/></svg>