<svg height="512pt" viewBox="-125 0 512 512" width="512pt" xmlns="http://www.w3.org/2000/svg"><path d="M175.422 408.52c4.14 0 7.5-3.36 7.5-7.5v-12.454a7.5 7.5 0 1 0-15 0v12.454a7.5 7.5 0 0 0 7.5 7.5zm-94.817 0a7.5 7.5 0 0 0 7.5-7.5v-12.454c0-4.14-3.355-7.5-7.5-7.5s-7.5 3.36-7.5 7.5v12.454c0 4.14 3.36 7.5 7.5 7.5zm47.407 2.77c7.14 0 13.742-3.563 17.66-9.528a7.5 7.5 0 0 0-2.152-10.387c-1.266-.836-6.88-2.992-10.383 2.152a6.189 6.189 0 0 1-5.125 2.762c-.992 0-3.485-.27-5.121-2.762a7.5 7.5 0 0 0-10.387-2.152 7.503 7.503 0 0 0-2.152 10.387 21.078 21.078 0 0 0 17.66 9.527zm0 0"/><path d="M74.754 472.313H181.27c17.644 0 32-14.356 32-32v-88.266c0-17.645-14.356-32-32-32H74.754c-17.645 0-31.996 14.355-31.996 32v88.265c0 17.645 14.351 32 31.996 32zM57.758 352.046c0-9.375 7.625-17 16.996-17H181.27c9.375 0 17 7.625 17 17v88.265c0 9.372-7.625 17-17 17H74.754c-9.371 0-16.996-7.628-16.996-17zm0 0"/><path d="M257.645 104.254c5.347-9.688 5.023-21.063-.875-30.43 0 0-5.715-11.406-12.989-6.55-7.27 4.855.293 14.542.293 14.542 2.946 4.676 3.11 10.352.438 15.188-2.668 4.836-7.563 7.723-13.086 7.723H201.39a31.34 31.34 0 0 0-14.758-3.68h-64.73a31.32 31.32 0 0 0-13.208 2.91L69.551 78.234a19.321 19.321 0 0 1-8.73-16.187v-33.61C60.82 21.027 66.847 15 74.257 15h100.531c17.043 0 32.64 8.61 41.719 23.031l6.781 10.774a7.502 7.502 0 0 0 12.695-7.992l-6.78-10.774C217.358 11.23 197.015 0 174.788 0H74.258C63.94 0 54.895 5.523 49.906 13.766h-9.988c-12.813 0-23.238 10.425-23.238 23.238v15.715c0 12.812 10.425 23.238 23.238 23.238h8.844c-.133 11.309-15.035 34.438-32.64 48.965-20.063 16.55-9.196 34.71-4.31 40.695 2.946 3.606 16.368 15.703 33.274 8.996 9.812-3.89 27.273-11.574 45.309-25.218v11.824c0 3.648.644 7.226 1.843 10.59-20.418 1.183-37.347 17.433-39.039 37.976-2.281 27.672-10.43 66.813-36.297 96.145A67.329 67.329 0 0 0 .066 350.57c.02 16.188.012 38.301-.007 60.711a7.5 7.5 0 0 0 7.496 7.508h.004a7.504 7.504 0 0 0 7.5-7.496c.02-22.422.027-44.543.007-60.738a52.353 52.353 0 0 1 13.086-34.707c12.547-14.227 21.309-30.399 27.403-46.594 8.773-5.059 46.468-23.512 87.539 4.918 20.535 14.215 40.808 18.367 57.492 18.367 22.012 0 34.684-5.773 40.437-8.14v179.93c0 18.015-14.656 32.667-32.668 32.667H47.668c-8.738 0-16.95-3.402-23.121-9.582-6.168-6.18-9.559-14.39-9.547-23.121l.023-19.188a7.496 7.496 0 0 0-7.488-7.507h-.012a7.502 7.502 0 0 0-7.5 7.488L0 464.273C-.02 477.016 4.93 489 13.934 498.016 22.94 507.03 34.922 512 47.668 512h160.691c26.282 0 47.668-21.383 47.668-47.668v-251.02c0-22.292-17.64-40.542-39.699-41.53a31.497 31.497 0 0 0 1.817-10.563v-28.66c0-4.567-.989-8.907-2.743-12.829h16.024c11.066 0 20.87-5.785 26.219-15.476zm-71.012 11.793c9.101 0 16.508 7.406 16.508 16.512v28.66a16.4 16.4 0 0 1-3.797 10.515h-11.29v-36.98a7.5 7.5 0 0 0-7.5-7.5 7.497 7.497 0 0 0-7.5 7.5v36.98H161.77v-36.98a7.5 7.5 0 0 0-7.5-7.5 7.497 7.497 0 0 0-7.5 7.5v36.98h-11.29v-36.98c0-4.145-3.355-7.5-7.5-7.5a7.5 7.5 0 0 0-7.5 7.5v36.98h-11.273a16.502 16.502 0 0 1-3.812-10.515v-28.66c0-9.106 7.406-16.512 16.507-16.512zM31.68 52.723v-15.72c0-4.542 3.695-8.237 8.238-8.237h5.902v32.191h-5.902c-4.543 0-8.238-3.695-8.238-8.234zm8.062 107.879c-8.75 3.34-15.652-3.77-16.406-4.586-2.274-2.844-6.399-11.703 2.18-19.403 16.476-14.785 28.289-32.511 34.746-46.582.351.25 36.261 23.88 36.261 23.88a31.339 31.339 0 0 0-6.011 16.038c-19.594 17.246-40.043 26.563-50.77 30.653zm201.281 52.71v54.622c-4.722 2.363-13.89 6.32-25.652 8.34-22.797 3.917-44.242-.938-63.738-14.434-28.742-19.899-56.102-19.926-73.992-16.442a100.673 100.673 0 0 0-15.993 4.524c3.63-13.969 5.551-27.371 6.5-38.906 1.122-13.618 12.754-24.282 26.48-24.282h119.817c14.657 0 26.578 11.922 26.578 26.578zm0 0"/></svg>