<svg height="512pt" viewBox="0 -59 512 512" width="512pt" xmlns="http://www.w3.org/2000/svg"><path d="m90.355469 362.136719h201.519531c6.84375 0 12.40625-5.566407 12.40625-12.40625v-179.300781c0-6.996094 3.730469-13.511719 9.730469-17 13.359375-7.769532 35.773437-24.136719 35.773437-46.5 0-38.007813-67.410156-74.488282-158.671875-74.488282-91.105469 0-158.671875 36.414063-158.671875 74.488282 0 22.457031 22.578125 38.867187 36.039063 46.652343 5.839843 3.378907 9.46875 9.628907 9.46875 16.3125v179.835938c0 6.839843 5.566406 12.40625 12.40625 12.40625zm-14.367188-221.539063c-8.582031-4.964844-28.542969-18.183594-28.542969-33.667968 0-24.832032 55.84375-59.488282 143.667969-59.488282 87.839844 0 143.671875 34.660156 143.671875 59.488282 0 15.40625-19.800781 28.582031-28.316406 33.53125-10.601562 6.164062-17.1875 17.648437-17.1875 29.96875v176.707031h-196.332031v-177.238281c0-12.023438-6.5-23.25-16.960938-29.300782zm0 0"/><path d="m149.238281 252.585938c2.929688 2.929687 7.679688 2.929687 10.605469 0l68.824219-68.820313c2.929687-2.929687 2.929687-7.679687 0-10.609375-2.929688-2.925781-7.679688-2.925781-10.609375 0l-68.820313 68.824219c-2.929687 2.925781-2.929687 7.675781 0 10.605469zm0 0"/><path d="m140.558594 217.324219 52.847656-52.847657c2.929688-2.929687 2.929688-7.675781 0-10.605468-2.929688-2.929688-7.679688-2.929688-10.605469 0l-52.851562 52.847656c-2.925781 2.929688-2.925781 7.679688 0 10.605469 2.933593 2.929687 7.679687 2.929687 10.609375 0zm0 0"/><path d="m184.496094 271.875c2.933594 2.925781 7.679687 2.925781 10.609375 0l52.847656-52.851562c2.929687-2.929688 2.929687-7.675782 0-10.605469-2.929687-2.929688-7.679687-2.929688-10.609375 0l-52.847656 52.847656c-2.925782 2.929687-2.925782 7.679687 0 10.609375zm0 0"/><path d="m45.503906 177.546875v172.183594c0 24.730469 20.121094 44.847656 44.851563 44.847656h80.246093c4.144532 0 7.5-3.355469 7.5-7.5 0-4.140625-3.355468-7.5-7.5-7.5h-80.246093c-16.460938 0-29.851563-13.390625-29.851563-29.847656v-176.328125c0-2.617188-1.363281-5.046875-3.597656-6.410156-27.023438-16.449219-41.90625-37.78125-41.90625-60.0625 0-53.257813 81.191406-91.929688 176.117188-91.929688 95.0625 0 176.113281 38.742188 176.113281 91.929688 0 22.285156-14.882813 43.617187-41.90625 60.0625-2.234375 1.359374-3.601563 3.789062-3.601563 6.40625v176.332031c0 16.457031-13.390625 29.847656-29.847656 29.847656h-86.273438c-4.140624 0-7.5 3.355469-7.5 7.5s3.359376 7.5 7.5 7.5h216.046876c24.726562 0 44.847656-20.117187 44.847656-44.847656v-79.238281c0-4.144532-3.359375-7.503907-7.5-7.503907-4.144532 0-7.5 3.359375-7.5 7.503907v79.238281c0 16.457031-13.390625 29.847656-29.847656 29.847656h-96.324219c7.105469-7.953125 11.398437-18.535156 11.398437-29.847656v-172.183594c29.386719-19.011719 45.507813-43.964844 45.507813-70.617187 0-46.980469-46.566407-77.167969-91.292969-91.929688h29.949219c95.0625 0 176.113281 38.742188 176.113281 91.929688 0 20.339843-11.992188 39.476562-34.683594 55.351562-6.777344 4.742188-10.820312 12.542969-10.820312 20.863281v52.34375c0 4.144531 3.355468 7.5 7.5 7.5 4.140625 0 7.5-3.355469 7.5-7.5v-52.34375c0-3.429687 1.652344-6.632812 4.421875-8.570312 26.492187-18.535157 41.082031-42.558594 41.082031-67.644531 0-64.273438-89.152344-106.929688-191.113281-106.929688h-129.769531c-102.507813 0-191.117188 42.945312-191.117188 106.929688 0 26.652343 16.121094 51.601562 45.503906 70.617187zm0 0"/></svg>