<?xml version="1.0" encoding="iso-8859-1"?>
<!-- Generator: Adobe Illustrator 19.0.0, SVG Export Plug-In . SVG Version: 6.00 Build 0)  -->
<svg version="1.1" id="Capa_1" xmlns="http://www.w3.org/2000/svg" xmlns:xlink="http://www.w3.org/1999/xlink" x="0px" y="0px"
	 viewBox="0 0 512.049 512.049" style="enable-background:new 0 0 512.049 512.049;" xml:space="preserve">
<g id="SVGCleanerId_0">
	<g>
		<path d="M426.691,426.204H85.358c-4.814,0.229-8.585,4.226-8.533,9.045c0,4.713,3.82,8.533,8.533,8.533h341.333
			c4.713,0,8.533-3.82,8.533-8.533v-0.512C435.225,430.024,431.404,426.204,426.691,426.204z"/>
	</g>
</g>
<g>
	<g>
		<path d="M93.891,460.849h-8.533c-4.713,0-8.533,3.82-8.533,8.533c0,4.713,3.82,8.533,8.533,8.533h8.533
			c4.713,0,8.533-3.82,8.533-8.533C102.424,464.669,98.604,460.849,93.891,460.849z"/>
	</g>
</g>
<g>
	<g>
		<path d="M196.291,460.849h-68.267c-4.713,0-8.533,3.82-8.533,8.533c0,4.713,3.82,8.533,8.533,8.533h68.267
			c4.713,0,8.533-3.82,8.533-8.533C204.824,464.669,201.004,460.849,196.291,460.849z"/>
	</g>
</g>
<g>
	<g>
		<path d="M401.091,264.583H110.958c-18.851,0-34.133,15.282-34.133,34.133v136.021c0,4.713,3.82,8.533,8.533,8.533h341.333
			c4.713,0,8.533-3.821,8.533-8.533V298.716C435.225,279.865,419.943,264.583,401.091,264.583z M418.158,426.204H93.891V298.716
			c0-9.426,7.641-17.067,17.067-17.067h290.133c9.426,0,17.067,7.641,17.067,17.067V426.204z"/>
	</g>
</g>
<g>
	<g>
		<path d="M426.691,426.204H85.358c-4.814,0.229-8.585,4.226-8.533,9.045c0,4.713,3.82,8.533,8.533,8.533h341.333
			c4.713,0,8.533-3.82,8.533-8.533v-0.512C435.225,430.024,431.404,426.204,426.691,426.204z"/>
	</g>
</g>
<g>
	<g>
		<path d="M238.958,264.583h-34.133c-4.713,0-8.533,3.821-8.533,8.533v59.733c0,14.138,11.462,25.6,25.6,25.6s25.6-11.462,25.6-25.6
			v-59.733C247.491,268.403,243.671,264.583,238.958,264.583z M230.426,332.849h-0.001c0,4.713-3.82,8.533-8.533,8.533
			c-4.713,0-8.533-3.821-8.533-8.533v-51.2h17.067V332.849z"/>
	</g>
</g>
<g>
	<g>
		<path d="M307.225,264.583h-34.133c-4.713,0-8.533,3.821-8.533,8.533v25.6c0,14.138,11.462,25.6,25.6,25.6s25.6-11.461,25.6-25.6
			v-25.6C315.758,268.403,311.937,264.583,307.225,264.583z M298.692,298.716L298.692,298.716c-0.001,4.713-3.821,8.533-8.534,8.533
			c-4.713,0-8.533-3.82-8.533-8.533v-17.067h17.067V298.716z"/>
	</g>
</g>
<g>
	<g>
		<path d="M273.091,264.583h-34.133c-4.713,0-8.533,3.821-8.533,8.533v93.867c0,14.138,11.461,25.6,25.6,25.6
			c14.138,0,25.6-11.461,25.6-25.6v-93.867C281.625,268.403,277.804,264.583,273.091,264.583z M264.559,366.983L264.559,366.983
			c-0.001,4.713-3.821,8.533-8.534,8.533s-8.533-3.82-8.533-8.533V281.65h17.067V366.983z"/>
	</g>
</g>
<g>
	<g>
		<path d="M125.465,301.02l-1.28-1.024c-0.435-0.339-0.926-0.599-1.451-0.768l-1.536-0.512c-2.841-0.544-5.764,0.387-7.765,2.475
			c-0.754,0.829-1.36,1.782-1.792,2.816c-0.437,1.026-0.669,2.128-0.683,3.243c-0.013,2.268,0.877,4.448,2.475,6.059
			c0.829,0.754,1.782,1.36,2.816,1.792c1.026,0.437,2.128,0.669,3.243,0.683c2.239-0.009,4.384-0.898,5.973-2.475
			c1.629-1.596,2.551-3.778,2.56-6.059C128.061,304.91,127.136,302.658,125.465,301.02z"/>
	</g>
</g>
<g>
	<g>
		<path d="M502.638,15.58c-0.91-1.108-1.876-2.169-2.892-3.179c-16.716-16.609-43.73-16.523-60.34,0.193L318.915,133.169
			c-0.021,0.021-0.042,0.042-0.063,0.063c-9.98,10.015-9.952,26.224,0.063,36.204l54.272,54.272c3.2,3.174,7.525,4.953,12.032,4.949
			c4.536,0.026,8.897-1.755,12.117-4.949l12.117-12.117c0.021-0.021,0.042-0.042,0.063-0.063c9.98-10.015,9.952-26.224-0.063-36.204
			l-6.059-6.059l95.317-95.317C514.699,58.333,516.39,33.195,502.638,15.58z M486.425,61.916L385.219,163.121
			c-3.309,3.328-3.309,8.704,0,12.032l12.117,12.117c0.017,0.016,0.033,0.033,0.049,0.049c3.319,3.346,3.297,8.749-0.049,12.068
			l-12.117,12.117l-54.272-54.272c-0.017-0.016-0.033-0.033-0.049-0.049c-3.319-3.346-3.297-8.749,0.049-12.068l120.15-120.404
			c4.824-4.876,11.403-7.612,18.261-7.595h1.621c7.117,0.422,13.735,3.793,18.261,9.301
			C497.478,37.241,496.265,52.526,486.425,61.916z"/>
	</g>
</g>
<g>
	<g>
		<path d="M458.265,53.724c-0.365-0.413-0.798-0.759-1.28-1.024c-0.452-0.335-0.939-0.621-1.451-0.853h-1.621
			c-1.618-0.46-3.332-0.46-4.949,0c-1.004,0.477-1.926,1.111-2.731,1.877c-1.597,1.61-2.488,3.79-2.475,6.059
			c-0.159,2.486,0.776,4.917,2.56,6.656c0.759,0.821,1.692,1.463,2.731,1.877c1.071,0.207,2.172,0.207,3.243,0
			c1.115-0.013,2.217-0.245,3.243-0.683c1.039-0.415,1.972-1.056,2.731-1.877c1.608-1.576,2.528-3.722,2.56-5.973
			C460.815,57.502,459.893,55.32,458.265,53.724z"/>
	</g>
</g>
<g>
	<g>
		<path d="M494.958,426.204h-68.267c-0.934,0.005-1.859,0.179-2.731,0.512H88.259c-0.93-0.338-1.912-0.511-2.901-0.512H17.091
			c-9.426,0-17.067,7.641-17.067,17.067v9.045c0,14.138,11.461,25.6,25.6,25.6h11.264l22.443,27.648
			c3.238,4.098,8.174,6.487,13.397,6.485h366.933c5.178-0.003,10.075-2.357,13.312-6.4l22.187-27.733h11.264
			c14.138,0,25.6-11.462,25.6-25.6v-9.045C512.025,433.845,504.384,426.204,494.958,426.204z M486.425,460.849h-15.36
			c-2.716-0.095-5.314,1.109-6.997,3.243l-24.747,30.891H72.387L47.64,464.092c-1.61-2.037-4.06-3.231-6.656-3.243h-15.36
			c-4.713,0-8.533-3.821-8.533-8.533v-9.045h65.365c0.93,0.338,1.912,0.511,2.901,0.512H426.69c0.933-0.007,1.858-0.18,2.731-0.512
			h65.536v9.045h0.001C494.958,457.029,491.138,460.849,486.425,460.849z"/>
	</g>
</g>
<g>
	<g>
		<path d="M148.675,426.204H85.358c-4.814,0.229-8.585,4.226-8.533,9.045c0,4.713,3.82,8.533,8.533,8.533h62.805
			c2.268,0.013,4.448-0.877,6.059-2.475l0.512-0.512c1.628-1.614,2.537-3.816,2.524-6.108
			C157.231,429.975,153.388,426.177,148.675,426.204z"/>
	</g>
</g>
<g>
	<g>
		<path d="M379.161,205.617l-54.272-54.357c-3.328-3.309-8.704-3.309-12.032,0L196.291,267.057
			c-1.628,1.614-2.537,3.816-2.524,6.108c0.027,4.713,3.87,8.511,8.583,8.484h108.971c2.268,0.013,4.448-0.877,6.059-2.475
			l61.781-61.44c0.017-0.016,0.033-0.033,0.049-0.049C382.529,214.339,382.507,208.936,379.161,205.617z M307.737,264.583h-84.736
			l95.744-95.573l42.24,42.667L307.737,264.583z"/>
	</g>
</g>
<g>
	<g>
		<path d="M170.691,298.716h-17.067c-4.713,0-8.533,3.82-8.533,8.533c0,4.713,3.821,8.533,8.533,8.533h17.067
			c4.713,0,8.533-3.82,8.533-8.533C179.224,302.536,175.404,298.716,170.691,298.716z"/>
	</g>
</g>
<g>
</g>
<g>
</g>
<g>
</g>
<g>
</g>
<g>
</g>
<g>
</g>
<g>
</g>
<g>
</g>
<g>
</g>
<g>
</g>
<g>
</g>
<g>
</g>
<g>
</g>
<g>
</g>
<g>
</g>
</svg>
