<svg xmlns="http://www.w3.org/2000/svg" height="596pt" version="1.1" viewBox="0 0 596.08361 596" width="596pt">
<g id="surface1">
<path d="M 6.835938 406.769531 L 17.472656 410.3125 C 68.457031 427.273438 116.027344 453.148438 157.96875 486.734375 L 242.148438 554.082031 C 242.71875 554.476562 243.332031 554.8125 243.976562 555.074219 L 243.917969 555.203125 L 278.15625 572.335938 L 278.15625 595.996094 L 298.019531 595.996094 L 298.019531 451.972656 L 333.777344 425.152344 L 333.671875 425.015625 C 334.078125 424.78125 334.46875 424.519531 334.84375 424.230469 C 397.742188 361.535156 479.660156 321.472656 567.765625 310.308594 L 587.300781 307.867188 C 592.746094 307.183594 596.605469 302.21875 595.921875 296.773438 C 595.453125 293.035156 592.90625 289.882812 589.347656 288.636719 L 506.71875 259.722656 C 439.410156 236.164062 365.746094 271.632812 342.1875 338.945312 C 341.75 340.191406 341.332031 341.449219 340.933594 342.710938 L 319.308594 411.179688 L 298.023438 427.140625 L 298.023438 284.15625 C 298 265.101562 307.53125 247.300781 323.402344 236.75 L 323.292969 236.589844 C 323.867188 236.285156 324.410156 235.921875 324.910156 235.507812 C 364.808594 195.597656 385.652344 140.476562 382.144531 84.152344 L 377.484375 9.347656 C 377.191406 4.640625 373.632812 0.792969 368.964844 0.128906 C 364.304688 -0.492188 359.839844 2.210938 358.226562 6.625 L 326.101562 96.539062 C 314.085938 130.121094 307.945312 165.527344 307.957031 201.199219 L 307.957031 223.578125 C 289.175781 238.070312 278.171875 260.445312 278.15625 284.167969 L 278.15625 303.84375 L 268.054688 293.742188 C 266.363281 219.882812 218.464844 155.042969 148.367188 131.710938 L 82.644531 109.859375 C 77.4375 108.117188 71.8125 110.925781 70.074219 116.128906 C 69.5 117.839844 69.40625 119.675781 69.800781 121.4375 L 80.726562 170.726562 C 98.226562 251.140625 169.59375 308.351562 251.886719 307.945312 L 254.179688 307.945312 L 278.160156 331.921875 L 278.160156 550.125 L 258.292969 540.191406 L 258.292969 519.761719 C 258.289062 433.910156 188.691406 364.316406 102.839844 364.320312 C 86.132812 364.320312 69.53125 367.015625 53.679688 372.300781 L 6.835938 387.914062 C 1.621094 389.628906 -1.214844 395.242188 0.5 400.453125 C 1.484375 403.449219 3.835938 405.800781 6.835938 406.789062 Z M 359.875 348.671875 C 374.253906 303.273438 416.328125 272.375 463.949219 272.238281 C 476.285156 272.257812 488.527344 274.355469 500.164062 278.445312 L 544.035156 293.804688 C 472.039062 306.722656 404.632812 338.125 348.421875 384.9375 Z M 327.820312 201.199219 C 327.808594 167.808594 333.546875 134.664062 344.785156 103.222656 L 360.679688 58.804688 L 362.335938 85.394531 C 364.921875 127.054688 352.695312 168.289062 327.820312 201.804688 Z M 100.152344 166.363281 L 93 134.191406 L 142.078125 150.550781 C 196.449219 168.648438 236.414062 215.242188 246.023438 271.730469 L 165.988281 191.695312 L 151.941406 205.738281 L 233.164062 286.960938 C 167.601562 279.332031 114.144531 230.867188 100.152344 166.363281 Z M 59.984375 391.144531 C 131.011719 367.460938 207.785156 405.839844 231.464844 476.863281 C 236.078125 490.695312 238.429688 505.183594 238.425781 519.761719 L 238.425781 525.664062 L 170.386719 471.242188 C 131.367188 439.984375 87.640625 415.105469 40.835938 397.53125 Z M 59.984375 391.144531 " style=" stroke:none;fill-rule:nonzero;fill:rgb(0%,0%,0%);fill-opacity:1;" />
</g>
</svg>