<?xml version="1.0" encoding="iso-8859-1"?>
<!-- Generator: Adobe Illustrator 19.0.0, SVG Export Plug-In . SVG Version: 6.00 Build 0)  -->
<svg version="1.1" id="Layer_1" xmlns="http://www.w3.org/2000/svg" xmlns:xlink="http://www.w3.org/1999/xlink" x="0px" y="0px"
	 viewBox="0 0 512.002 512.002" style="enable-background:new 0 0 512.002 512.002;" xml:space="preserve">
<g>
	<g>
		<path d="M489.769,315.736c-4.874-6.44-3.89-15.184,2.28-20.328c0.901-0.75,1.797-1.505,2.684-2.258
			c10.98-9.31,17.275-22.887,17.269-37.237c0.006-14.361-6.289-27.937-17.269-37.25c-0.89-0.755-1.781-1.505-2.672-2.247
			c-6.182-5.156-7.167-13.899-2.282-20.349l2.061-2.73c17.734-23.577,10.431-58.513-19.153-73.252
			c-8.184-4.076-11.584-12.687-8.088-20.469c17.305-38.559-20.947-75.151-85.475-38.107
			c-33.038,18.966-69.573,54.003-108.594,104.136c-3.49,4.484-8.786,7.055-14.532,7.055c-5.744,0-11.041-2.572-14.531-7.055
			c-39.019-50.132-75.555-85.169-108.594-104.136C68.529,24.571,30.025,60.929,47.397,99.611c3.221,7.169,0.961,15.973-8.752,20.806
			c-27.811,13.951-36.794,48.581-18.477,72.934l2.06,2.727c4.876,6.439,3.891,15.182-2.288,20.334
			c-0.894,0.746-1.785,1.496-2.675,2.252c-23.062,19.557-22.975,55.005-0.009,74.477c0.897,0.763,1.793,1.516,2.68,2.255
			c6.183,5.157,7.168,13.901,2.289,20.343l-2.065,2.736C2.527,341.917,9.541,376.845,39.31,391.729
			c8.184,4.076,11.584,12.686,8.084,20.476c-0.362,0.808-0.722,1.615-1.085,2.434c-7.627,17.236-2.003,35.822,13.677,45.199
			c10.294,6.157,33.453,13.104,72.886-9.532c33.038-18.968,69.573-54.003,108.594-104.136c3.49-4.484,8.787-7.055,14.531-7.055
			c5.745,0,11.042,2.572,14.532,7.055c39.019,50.133,75.555,85.168,108.594,104.136c20.624,11.839,36.794,15.587,49.004,15.587
			c32.682-0.003,48.318-26.939,37.557-51.26c-0.358-0.812-0.72-1.619-1.083-2.431c-3.238-7.206-0.933-15.963,8.751-20.805
			c27.961-14.023,36.691-48.718,18.484-72.925L489.769,315.736z M473.061,267.612c-0.812,0.688-1.623,1.372-2.453,2.063
			c-19.842,16.552-23.152,45.665-7.539,66.279l2.003,2.654c5.384,7.155,3.174,17.893-7.317,23.14
			c-24.075,11.992-34.489,40.184-23.706,64.179c1.575,3.5,2.083,4.382,0.77,5.165c-1.224,0.732-3.346,1.264-6.364,1.264
			c-16.799-0.002-61.237-16.493-131.492-106.758c-9.882-12.695-24.811-19.978-40.962-19.978c-16.151,0-31.08,7.282-40.961,19.978
			C132.163,432.076,85.217,435.894,77.183,431.091c-1.317-0.786-0.799-1.671,0.768-5.161c10.322-22.968,1.645-51.508-24.286-64.473
			c-8.833-4.43-12.635-15.004-6.739-22.844l2.004-2.655c15.616-20.617,12.306-49.73-7.551-66.294
			c-0.815-0.678-1.628-1.363-2.448-2.06c-7.237-6.137-7.275-17.225,0-23.395c0.817-0.693,1.637-1.382,2.462-2.07
			c19.843-16.55,23.153-45.665,7.546-66.271l-2.009-2.661c-5.317-7.068-3.277-17.861,7.317-23.141
			c22.239-11.078,35.566-37.413,22.695-66.445c-0.964-2.179-0.352-2.546,0.24-2.899c8.031-4.813,54.979-0.986,137.857,105.494
			c9.882,12.695,24.811,19.978,40.961,19.978c16.152,0,31.081-7.282,40.962-19.978C379.838,79.737,426.781,75.912,434.82,80.721
			c0.592,0.353,1.204,0.72,0.243,2.893c-12.111,27.291-1.492,54.383,23.274,66.741c8.908,4.467,12.595,15.062,6.746,22.837
			l-2.01,2.663c-15.616,20.617-12.306,49.732,7.541,66.285c0.822,0.684,1.641,1.373,2.457,2.067
			c4.734,4.016,5.439,9.049,5.438,11.705C478.509,258.556,477.804,263.591,473.061,267.612z"/>
	</g>
</g>
<g>
	<g>
		<path d="M359.229,272.653c-24.56,0-35.363-7.961-49.321-16.747c13.957-8.784,24.76-16.747,49.321-16.747
			c9.249,0,16.747-7.498,16.747-16.747c0-9.249-7.498-16.747-16.747-16.747c-32.67,0-50.318,11.205-64.499,20.209
			c-12.147,7.713-20.924,13.285-38.728,13.285c-17.805,0-26.583-5.572-38.729-13.285c-14.181-9.003-31.83-20.209-64.499-20.209
			c-9.249,0-16.747,7.498-16.747,16.747c0,9.249,7.498,16.747,16.747,16.747c24.56,0,35.363,7.961,49.321,16.747
			c-13.957,8.784-24.76,16.747-49.321,16.747c-9.249,0-16.747,7.498-16.747,16.747c0,9.249,7.498,16.747,16.747,16.747
			c32.67,0,50.318-11.205,64.499-20.209c12.147-7.713,20.924-13.285,38.729-13.285c17.804,0,26.582,5.572,38.728,13.285
			c14.181,9.003,31.83,20.209,64.499,20.209c9.249,0,16.747-7.498,16.747-16.747C375.976,280.151,368.478,272.653,359.229,272.653z"
			/>
	</g>
</g>
<g>
</g>
<g>
</g>
<g>
</g>
<g>
</g>
<g>
</g>
<g>
</g>
<g>
</g>
<g>
</g>
<g>
</g>
<g>
</g>
<g>
</g>
<g>
</g>
<g>
</g>
<g>
</g>
<g>
</g>
</svg>
