<svg height="512pt" viewBox="0 -59 512 512" width="512pt" xmlns="http://www.w3.org/2000/svg"><path d="M90.355 362.137h201.52c6.844 0 12.406-5.567 12.406-12.407v-179.3c0-6.996 3.73-13.512 9.73-17 13.36-7.77 35.774-24.137 35.774-46.5 0-38.008-67.41-74.489-158.672-74.489-91.105 0-158.672 36.414-158.672 74.489 0 22.457 22.579 38.867 36.04 46.652 5.84 3.379 9.468 9.629 9.468 16.313V349.73c0 6.84 5.567 12.407 12.406 12.407zm-14.367-221.54c-8.582-4.964-28.543-18.183-28.543-33.667 0-24.832 55.844-59.489 143.668-59.489 87.84 0 143.672 34.66 143.672 59.489 0 15.406-19.8 28.582-28.316 33.53-10.602 6.165-17.188 17.65-17.188 29.97v176.707H92.95V169.898c0-12.023-6.5-23.25-16.96-29.3zm0 0"/><path d="M149.238 252.586a7.497 7.497 0 0 0 10.606 0l68.824-68.82a7.502 7.502 0 0 0 0-10.61 7.51 7.51 0 0 0-10.61 0l-68.82 68.824a7.497 7.497 0 0 0 0 10.606zm-8.679-35.262l52.847-52.847a7.497 7.497 0 0 0 0-10.606 7.497 7.497 0 0 0-10.605 0l-52.852 52.848c-2.926 2.93-2.926 7.68 0 10.605a7.502 7.502 0 0 0 10.61 0zm43.937 54.551a7.51 7.51 0 0 0 10.61 0l52.847-52.852a7.497 7.497 0 0 0 0-10.605 7.502 7.502 0 0 0-10.61 0l-52.847 52.848a7.51 7.51 0 0 0 0 10.609zm0 0"/><path d="M45.504 177.547V349.73c0 24.73 20.121 44.848 44.851 44.848h80.247c4.144 0 7.5-3.355 7.5-7.5a7.5 7.5 0 0 0-7.5-7.5H90.355c-16.46 0-29.851-13.39-29.851-29.848V173.402a7.51 7.51 0 0 0-3.598-6.41C29.883 150.543 15 129.211 15 106.93 15 53.672 96.191 15 191.117 15c95.063 0 176.113 38.742 176.113 91.93 0 22.285-14.882 43.617-41.906 60.062a7.502 7.502 0 0 0-3.601 6.406V349.73c0 16.457-13.391 29.848-29.848 29.848h-86.273a7.5 7.5 0 1 0 0 15h216.046c24.727 0 44.848-20.117 44.848-44.848v-79.238a7.5 7.5 0 0 0-15 0v79.238c0 16.457-13.39 29.848-29.848 29.848h-96.324c7.106-7.953 11.399-18.535 11.399-29.848V177.547c29.386-19.012 45.507-43.965 45.507-70.617 0-46.98-46.566-77.168-91.293-91.93h29.95C415.949 15 497 53.742 497 106.93c0 20.34-11.992 39.476-34.684 55.351-6.777 4.742-10.82 12.543-10.82 20.864v52.343c0 4.145 3.356 7.5 7.5 7.5a7.5 7.5 0 0 0 7.5-7.5v-52.343c0-3.43 1.652-6.633 4.422-8.57C497.41 156.038 512 132.014 512 106.93 512 42.656 422.848 0 320.887 0h-129.77C88.61 0 0 42.945 0 106.93c0 26.652 16.121 51.601 45.504 70.617zm0 0"/></svg>