<svg xmlns="http://www.w3.org/2000/svg" viewBox="0 0 480.002 480.002"><path d="M456 288.001h-72v-120h72a8 8 0 0 0 8-8v-39.44L479.92 9.137A8 8 0 0 0 472 .001H248a8 8 0 0 0-7.92 9.136L256 120.561v39.44a8 8 0 0 0 8 8h72v120h-8c-13.255 0-24 10.745-24 24s10.745 24 24 24h8v16h-56l7.464-112H296a8 8 0 0 0 8-8v-32a8 8 0 0 0-8-8h-56.6a56.112 56.112 0 0 0-28.336-40.984c12.684-28.207.1-61.356-28.108-74.04-28.207-12.684-61.356-.1-74.04 28.108a55.97 55.97 0 0 0-4.412 15.397c-43.856-4.744-83.255 26.962-87.999 70.818-.025.234-.05.468-.073.702H8a8 8 0 0 0-8 8v32a8 8 0 0 0 8 8h8.52L32 472.529a8 8 0 0 0 8 7.472h432a8 8 0 0 0 8-8v-160c0-13.255-10.745-24-24-24zm-198.776-272H288v48h16v-48h16v16h16v-16h48v24h16v-24h16v48h16v-48h30.776l-13.712 96H270.936l-13.712-96zm14.776 136v-24h176v24H272zm96 16v120h-16v-120h16zm-80 40v16H168v-16h120zm-184.237-71.496c2.199.273 4.382.66 6.541 1.16h.264a64.298 64.298 0 0 1 25.656 12.552l10.064-12.44a80.388 80.388 0 0 0-25.872-13.872c2.297-21.914 21.924-37.817 43.838-35.52 21.914 2.297 37.817 21.924 35.52 43.838a39.897 39.897 0 0 1-6.557 18.082 8 8 0 0 0 4 12 40.001 40.001 0 0 1 25.872 29.696H160a8 8 0 0 0-8 8v72a8 8 0 0 1-16 0v-16c0-13.255-10.745-24-24-24s-24 10.745-24 24v56a8 8 0 0 1-16 0v-112a8 8 0 0 0-8-8H32.536c4.344-34.994 36.233-59.84 71.227-55.496zM16 224.001v-16h40v16H16zm208 152v88H47.488l-14.936-224H56v72c0 13.255 10.745 24 24 24s24-10.745 24-24v-56a8 8 0 0 1 16 0v16c0 13.255 10.745 24 24 24s24-10.745 24-24v-32h103.448l-7.448 112h-16c-13.255 0-24 10.745-24 24zm240 88h-24v-40h-16v40h-24v-40h-16v40h-24v-40h-16v40h-24v-40h-16v40h-24v-40h-16v40h-24v-64h224v64zm0-80H240v-8a8 8 0 0 1 8-8h176c13.255 0 24-10.745 24-24s-10.745-24-24-24h-96a8 8 0 0 1 0-16h128a8 8 0 0 1 8 8v72zm-112-32v-16h16v16h-16zm32 0v-16h40a8 8 0 0 1 0 16h-40zm-352-272v-16H16v16H0v16h16v16h16v-16h16v-16z"/><path d="M456 224.001v-16h-16v16h-16v16h16v16h16v-16h16v-16zm-304-208v-16h-16v16h-16v16h16v16h16v-16h16v-16zm136 64h16v16h-16z"/></svg>