<svg xmlns="http://www.w3.org/2000/svg" viewBox="0 0 480 480"><path d="M416 336h-12.528a56.806 56.806 0 0 0-25.312 5.976 40.799 40.799 0 0 1-36.32 0 56.604 56.604 0 0 0-14.4-4.8L343.032 216H360a8 8 0 0 0 8-8v-32a8 8 0 0 0-8-8h-32v-24a8 8 0 0 0-2.344-5.656L288 100.688V75.84l12.128-9.696 20.712 41.432 14.32-7.152-22.256-44.504L322.8 48H352a8 8 0 0 0 8-8V8a8 8 0 0 0-8-8h-80c-39.744.048-71.952 32.256-72 72a8 8 0 0 0 8 8h16v20.688l-21.656 21.656A8 8 0 0 0 200 128v40h-16v-64a7.906 7.906 0 0 0-.584-2.888 8.263 8.263 0 0 0-.496-.904 8.911 8.911 0 0 0-.672-1.208L152 61.2V8a8 8 0 0 0-8-8H96a8 8 0 0 0-8 8v53.2L57.752 99c-.255.385-.48.789-.672 1.208-.184.291-.35.593-.496.904A7.906 7.906 0 0 0 56 104v64H24a8 8 0 0 0-8 8v32a8 8 0 0 0 8 8h16.968l31.096 241.024A8 8 0 0 0 80 464h188.32A47.862 47.862 0 0 0 304 480h12.528a56.806 56.806 0 0 0 25.312-5.976 40.799 40.799 0 0 1 36.32 0A56.806 56.806 0 0 0 403.472 480H416c26.499-.026 47.974-21.501 48-48v-48c-.026-26.499-21.501-47.974-48-48zM328 16h16v16h-16V16zm24 168v16H240v-16h112zM216.568 64c4.013-27.535 27.606-47.965 55.432-48h40v20.16L277.192 64h-60.624zM272 80v16h-32V80h32zm-56 51.312L235.312 112h41.376L312 147.312V168h-96v-36.688zM208 184h16v56a8 8 0 0 0 4.424 7.2l48 24a9.663 9.663 0 0 1 4.92 5.688 10.289 10.289 0 0 1-.8 8 9.343 9.343 0 0 1-12.531 4.194l-.021-.01-32.48-16.24A8 8 0 0 0 224 280v80c0 8.837-7.163 16-16 16v-72h-16v72h-16v-72h-16v72h-16v-72h-16v72c-8.837 0-16-7.163-16-16V184h96zM104 16h32v40h-32V16zm-4.16 56h40.32l19.2 24H80.64l19.2-24zM72 112h96v56H72v-56zm-40 88v-16h64v16H32zm224 184v48a47.818 47.818 0 0 0 2.8 16H87.032L57.096 216H96v144c0 17.673 14.327 32 32 32h80c17.673 0 32-14.327 32-32v-67.056l20.896 10.448c12.627 6.232 27.915 1.048 34.147-11.579l.077-.157a25.896 25.896 0 0 0 1.464-19.8 25.597 25.597 0 0 0-12.96-14.992L240 235.056V216h86.904l-15.488 120H304c-26.499.026-47.974 21.501-48 48zm192 48c0 17.673-14.327 32-32 32h-12.528a40.8 40.8 0 0 1-18.152-4.288 56.903 56.903 0 0 0-50.64 0A40.8 40.8 0 0 1 316.528 464H304c-17.673 0-32-14.327-32-32v-12.32A47.75 47.75 0 0 0 304 432h12.528a56.806 56.806 0 0 0 25.312-5.976 40.799 40.799 0 0 1 36.32 0A56.806 56.806 0 0 0 403.472 432H416a47.75 47.75 0 0 0 32-12.32V432zm-32-16h-12.528a40.8 40.8 0 0 1-18.152-4.288 56.903 56.903 0 0 0-50.64 0A40.8 40.8 0 0 1 316.528 416H304c-17.673 0-32-14.327-32-32 0-17.673 14.327-32 32-32h12.528a40.8 40.8 0 0 1 18.152 4.288 56.935 56.935 0 0 0 50.64 0A40.8 40.8 0 0 1 403.472 352H416c17.673 0 32 14.327 32 32 0 17.673-14.327 32-32 32z"/><path d="M408 368h16v16h-16zm-80 0h16v16h-16zm-32 8h16v16h-16zm80 0h16v16h-16z"/></svg>