<svg height="511pt" viewBox="0 -21 511.999 511" width="511pt" xmlns="http://www.w3.org/2000/svg"><path d="M502.156 246.234c-5.332-3.742-10.386-7.906-15.18-12.464V107.812h1.712c9.214 0 16.714-7.496 16.714-16.714V43.383c0-9.215-7.5-16.715-16.715-16.715h-62.742c.028-.793.059-1.566.09-2.313.274-6.296-1.976-12.27-6.336-16.816C415.352 3 409.492.5 403.207.5h-129.05C261.55.5 251.3 10.75 251.3 23.355v95.59H43.742C19.622 118.945 0 138.566 0 162.688V426.28c0 24.121 19.621 43.742 43.742 43.742h40.992c4.145 0 7.5-3.355 7.5-7.5a7.5 7.5 0 0 0-7.5-7.5H43.742C27.895 455.022 15 442.132 15 426.28V317.31h275.457v108.97c0 15.852-12.89 28.742-28.742 28.742H119.258a7.5 7.5 0 1 0 0 15h142.457c2.46 0 4.875-.214 7.226-.605 1.704.398 3.454.61 5.215.61h161.617c10.079 0 19.098-6.755 21.934-16.426l17.883-61.028a7.5 7.5 0 1 0-14.395-4.219l-17.886 61.028c-.973 3.324-4.07 5.644-7.536 5.644H294.645c6.726-7.691 10.816-17.746 10.816-28.746V215.523a7.502 7.502 0 0 0-15.004 0v37.106H15v-89.941c0-15.852 12.895-28.743 28.742-28.743h18.403c3.828 46.625 42.988 83.395 90.582 83.395s86.757-36.77 90.586-83.395h18.402c15.851 0 28.742 12.895 28.742 28.743V181a7.5 7.5 0 0 0 7.5 7.5c4.145 0 7.5-3.355 7.5-7.5v-18.312c0-22.57-17.184-41.204-39.156-43.504V66.39h63.707c-.82 15.605.394 49.047 22.043 74.332 17.394 20.316 43.883 30.668 78.726 30.785 14.028 38.355 35.047 67.535 62.754 87 2.832 1.992 4.102 5.496 3.156 8.722l-25.796 88.032a7.5 7.5 0 0 0 7.199 9.61 7.502 7.502 0 0 0 7.195-5.392l25.797-88.035c2.754-9.394-.836-19.523-8.926-25.21zm-211.699 21.399v34.676H15v-34.676zm181.52-50.582c-16.75-21.824-29.133-50.047-36.97-84.375-1.91-8.363-3.448-16.7-4.687-24.863h41.657zM488.69 41.67c.942 0 1.711.767 1.711 1.712v47.719c0 .941-.77 1.71-1.71 1.71h-60.344c-2.16-19.3-2.75-37.05-2.703-51.14zm-79.824-23.757a7.83 7.83 0 0 1 2.184 5.8 462.914 462.914 0 0 0-.332 27.677h-38.125v-33.5a7.4 7.4 0 0 0-.395-2.391h31.008c2.156 0 4.168.86 5.66 2.414zM314.921 51.39v-33.5a7.43 7.43 0 0 0-.399-2.391h43.465c-.25.75-.394 1.55-.394 2.39v33.5zM152.73 202.34c-39.32 0-71.742-30.055-75.52-68.395h151.04c-3.777 38.34-36.203 68.395-75.52 68.395zM266.3 23.352c0-4.329 3.524-7.852 7.856-7.852h26.16a7.429 7.429 0 0 0-.394 2.39v33.5H266.3zm97.212 107.691c-18.528-21.566-19.168-51.68-18.446-64.652h66.145c1.004 20.703 3.555 45.027 9.172 69.625a311.992 311.992 0 0 0 5.37 20.398c-27.71-1-48.632-9.523-62.241-25.371zm0 0"/><path d="M143.605 160.547h18.25a7.5 7.5 0 1 0 0-15h-18.25c-4.14 0-7.5 3.36-7.5 7.5 0 4.144 3.356 7.5 7.5 7.5zm0 0"/></svg>