<svg xmlns="http://www.w3.org/2000/svg" viewBox="0 0 512 512"><path d="M457.21 364.789c6.181-9.432 9.79-20.694 9.79-32.789 0-33.084-26.916-60-60-60-5.541 0-10.902.771-16 2.183v-34.69c34.19-6.969 60-37.275 60-73.493v-61c0-41.355-33.645-75-75-75h-60.041C302.262 11.796 280.484 0 256 0H136C94.645 0 61 33.645 61 75v91c0 36.219 25.81 66.524 60 73.493v34.69A59.805 59.805 0 0 0 105 272c-33.084 0-60 26.916-60 60 0 12.095 3.609 23.357 9.79 32.789C23.224 373.636 0 402.647 0 437v60c0 8.284 6.716 15 15 15h180c8.284 0 15-6.716 15-15v-60c0-34.353-23.224-63.364-54.79-72.211 6.181-9.432 9.79-20.694 9.79-32.789 0-14.964-5.519-28.654-14.612-39.175L202.213 241h107.574l51.825 51.825C352.519 303.346 347 317.036 347 332c0 12.095 3.609 23.357 9.79 32.789C325.224 373.636 302 402.647 302 437v60c0 8.284 6.716 15 15 15h180c8.284 0 15-6.716 15-15v-60c0-34.353-23.224-63.364-54.79-72.211zM105 302c16.542 0 30 13.458 30 30s-13.458 30-30 30-30-13.458-30-30 13.458-30 30-30zm75 135v45H30v-45c0-24.813 20.187-45 45-45h60c24.813 0 45 20.187 45 45zm121-271c0 24.813-20.187 45-45 45h-60c-3.979 0-7.794 1.58-10.606 4.393L151 249.787V226c0-8.284-6.716-15-15-15-24.813 0-45-20.187-45-45V75c0-24.813 20.187-45 45-45h120c24.813 0 45 20.187 45 45v91zm106 136c16.542 0 30 13.458 30 30s-13.458 30-30 30-30-13.458-30-30 13.458-30 30-30zm-46-76v23.787l-34.394-34.394A14.995 14.995 0 0 0 316 211h-.041C325.397 198.456 331 182.871 331 166V75c0-5.136-.521-10.152-1.509-15H376c24.813 0 45 20.187 45 45v61c0 24.813-20.187 45-45 45-8.284 0-15 6.716-15 15zm121 256H332v-45c0-24.813 20.187-45 45-45h60c24.813 0 45 20.187 45 45v45z"/><path d="M251.606 64.393c-5.857-5.858-15.355-5.858-21.213 0L181 113.787l-19.394-19.394c-5.857-5.858-15.355-5.858-21.213 0-5.858 5.858-5.858 15.355 0 21.213l30 30c5.857 5.857 15.355 5.858 21.213 0l60-60c5.859-5.857 5.859-15.355 0-21.213z"/></svg>