<svg height="512pt" viewBox="0 0 512 512.001" width="512pt" xmlns="http://www.w3.org/2000/svg"><path d="M314.133 343.2a10.084 10.084 0 0 0 2.93-7.067c0-2.633-1.07-5.211-2.93-7.07a10.05 10.05 0 0 0-7.07-2.93 10.057 10.057 0 0 0-7.083 2.93 10.061 10.061 0 0 0-2.917 7.07 10.06 10.06 0 0 0 2.917 7.066 10.11 10.11 0 0 0 7.083 2.934c2.628 0 5.199-1.07 7.07-2.934zm0 0"/><path d="M509.063 235.508l-49.454-111.723c-10.132-22.894-32.23-38.086-57.011-39.558 6.992-8.864 11.183-20.036 11.183-32.176C413.781 23.35 390.43 0 361.731 0S309.68 23.352 309.68 52.05c0 12.141 4.191 23.313 11.183 32.177-24.781 1.472-46.875 16.664-57.011 39.558l-33.211 75.02-19.184-43.336c-7.879-17.801-23.91-30.348-42.547-34.055 8.125-9.45 13.05-21.727 13.05-35.14V65.23c0-29.773-24.222-54-54-54-29.773 0-54 24.227-54 54v21.043c0 13.497 4.99 25.836 13.2 35.313-18.277 3.914-33.945 16.352-41.707 33.879l-42.867 96.84c-6.684 15.097.039 33.09 14.98 40.113 4.266 2.004 8.735 2.953 13.125 2.953 11.188 0 21.86-6.187 27.258-16.914l16.258-32.332v8.75l-25.148 98.863a9.997 9.997 0 0 0 9.691 12.465h17.695V481c0 17.094 13.903 31 31 31 8.094 0 15.473-3.121 21-8.223 5.524 5.102 12.903 8.223 21 8.223 17.094 0 31-13.906 31-31V366.203h17.22a10 10 0 0 0 9.69-12.465l-25.148-98.863v-9.746l16.758 33.328c5.398 10.73 16.066 16.914 27.258 16.914 4.39 0 8.863-.95 13.125-2.953a30.242 30.242 0 0 0 11.859-9.965 33.667 33.667 0 0 0 24.281-18.09l21.57-42.902v74.668c0 5.52 4.477 10 10 10 5.524 0 10-4.48 10-10v-30h88.797v47.539h-34.398v-6.598c0-5.523-4.477-10-10-10-5.52 0-10 4.477-10 10v143.086h-34.398V376.13c0-5.524-4.477-10-10-10-5.52 0-10 4.476-10 10v115.363c0 11.309 9.199 20.508 20.511 20.508h33.356c11.308 0 20.508-9.2 20.508-20.508v-30.875c.007-.152.023-.305.023-.46V375.38c1.59.32 3.23.488 4.914.488h9.043V502c0 5.523 4.48 10 10 10 5.523 0 10-4.477 10-10V375.46c11.613-2.112 20.441-12.296 20.441-24.503V220.375l22.122 43.988c5.953 11.84 17.726 18.668 30.078 18.664.074 0 .152-.004.23-.004V462c0 5.523 4.477 10 10 10 5.52 0 10-4.477 10-10V276.324c12.36-9.219 17.23-26.242 10.777-40.816zM361.73 20c17.672 0 32.051 14.379 32.051 32.05s-14.379 32.052-32.05 32.052-32.051-14.38-32.051-32.051S344.059 20 361.73 20zM94.062 88.77h6.844c12.5 0 24.473-3.426 34.848-9.836a71.264 71.264 0 0 0 26.16 9.125c-.93 17.921-15.8 32.214-33.953 32.214-17.906 0-32.613-13.918-33.899-31.503zm-.101-23.54c0-18.746 15.254-34 34-34 18.75 0 34 15.254 34 34v2.567a51.448 51.448 0 0 1-11.313-3.637 9.992 9.992 0 0 0-2.742-9c-3.906-3.906-10.238-3.906-14.144 0-8.774 8.778-20.446 13.61-32.856 13.61h-6.945zm24.484 300.973V452h-22v-85.797zm-11 125.797c-6.066 0-11-4.934-11-11v-9h22v9c0 6.066-4.937 11-11 11zm42 0c-6.066 0-11-4.934-11-11v-9h22v9c0 6.066-4.937 11-11 11zm11-40h-22v-85.797h22zm70.399-177.684a10.577 10.577 0 0 1-14.012-4.843l-34.625-68.868v-13.628c0-5.524-4.48-10-10-10-5.523 0-10 4.476-10 10v69.152c0 .828.102 1.656.309 2.465l22.285 87.61H71.613l22.285-87.61c.204-.809.309-1.637.309-2.465v-69.152c0-5.524-4.48-10-10-10-5.523 0-10 4.476-10 10v14.625l-34.129 67.87c-2.601 5.184-8.754 7.31-14.004 4.844-5.187-2.437-7.515-8.68-5.199-13.914l42.867-96.84c6.262-14.148 20.309-23.289 35.778-23.289h57.875c15.472 0 29.515 9.141 35.777 23.29l42.867 96.84c2.316 5.238-.012 11.476-5.195 13.913zm120.59 217.176a.51.51 0 0 1-.512.508h-33.356a.507.507 0 0 1-.507-.508v-21.336h34.375zm49.511-135.625h-24.574a4.917 4.917 0 0 1-4.914-4.91v-17.289h34.398v17.289a4.916 4.916 0 0 1-4.91 4.91zm64.899-100.488l-39.989-79.527v-22.184c0-5.523-4.476-10-10-10-5.52 0-10 4.477-10 10v92.46H317.06v-92.46c0-5.523-4.48-10-10-10-5.524 0-10 4.477-10 10v23.273l-39.442 78.438a13.548 13.548 0 0 1-1.496 2.312 30.367 30.367 0 0 0-1.793-5.386l-12.75-28.793 40.563-91.63c7.472-16.874 24.222-27.78 42.68-27.78h73.824c18.453 0 35.207 10.906 42.68 27.78l49.452 111.72c3.008 6.8-.015 14.902-6.746 18.066-6.816 3.2-14.804.437-18.187-6.29zM488.281 492a10.08 10.08 0 0 0-7.07 2.93 10.08 10.08 0 0 0-2.93 7.07c0 2.633 1.07 5.21 2.93 7.07a10.08 10.08 0 0 0 7.07 2.93c2.633 0 5.211-1.07 7.07-2.93a10.073 10.073 0 0 0 2.93-7.07c0-2.629-1.07-5.21-2.93-7.07a10.073 10.073 0 0 0-7.07-2.93zm0 0"/></svg>