<svg height="499pt" viewBox="0 0 499.312 499" width="499pt" xmlns="http://www.w3.org/2000/svg"><path d="M491.313 132.836L366.632 8.156c-5.09-5.09-12.121-8-19.32-8h-.047c-7.282.008-14.13 2.848-19.274 8L304 32.148l8.375 8.375-140.16 161.184a68.974 68.974 0 0 0-16.903 45.219c0 16.742 5.985 32.535 16.856 45.054L59.312 404.836l-8-8L0 448.148l51.313 51.313 51.312-51.313-8-8L207.48 327.293c12.52 10.871 28.313 16.855 45.055 16.855a68.904 68.904 0 0 0 45.207-16.906L458.93 187.086l8.382 8.375 24-24c5.16-5.16 8-12.016 8-19.313 0-7.296-2.84-14.16-8-19.312zm-320 114.09a52.878 52.878 0 0 1 12.984-34.715L323.719 51.867l12.68 12.68-142.2 164.648a28.386 28.386 0 0 0-6.887 18.52c0 7.57 2.946 14.695 8.305 20.05l.711.712a24.845 24.845 0 0 0-3.648 2.984l-9.207 9.207c-7.864-9.473-12.16-21.273-12.16-33.742zm63.519 37.43c-1.937-9.946-9.777-17.794-19.719-19.72l-8.175-8.175a12.284 12.284 0 0 1-3.625-8.746c0-2.957 1.07-5.832 3-8.07l37.625-43.56 59.437 59.438-43.559 37.625c-4.746 4.07-12.375 3.817-16.808-.617zm80.688-39.32l-61.094-61.095 11.758-13.617 62.953 62.953zm25.753-22.24l-64.609-64.609 71.078-82.296 75.832 75.832zm-289.96 254.04l-28.688-28.688 28.688-28.687L80 448.148zm19.312-60.688L204 282.773a9.03 9.03 0 0 1 6.344-2.625c4.945 0 8.969 4.024 8.969 8.97a9.03 9.03 0 0 1-2.625 6.343L83.313 428.836zm216.621-100.984a52.861 52.861 0 0 1-34.71 12.984c-12.473 0-24.27-4.296-33.743-12.168l9.207-9.207a24.442 24.442 0 0 0 2.984-3.648l.711.71c5.352 5.36 12.48 8.306 20.047 8.306 6.801 0 13.38-2.45 18.524-6.887L434.91 163.059l12.684 12.68zM480 160.148l-12.687 12.688L326.625 32.148l12.68-12.68c2.101-2.105 5.015-3.304 8.015-3.312h.016c2.969 0 5.871 1.207 7.984 3.313L480 144.149a11.25 11.25 0 0 1 3.313 8 11.25 11.25 0 0 1-3.313 8zm0 0"/></svg>