<svg xmlns="http://www.w3.org/2000/svg" width="460.459" height="460.459"><path d="M94.879 101.756a48.192 48.192 0 0 0 17.916 3.445c15.927 0 31.101-8.114 39.975-21.336 9.001-13.41 10.625-30.944 4.241-45.783-6.22-14.455-19.509-25.217-34.964-28.228-15.805-3.08-32.439 2.095-43.687 13.615C67.105 34.997 62.332 51.78 65.809 67.513c3.396 15.362 14.473 28.383 29.07 34.243zm339.312 319.737c-.47-.547-46.041-54.477-48.574-138.216-.057-1.85-.258-8.368-2.194-17.768-10.935-53.077-26.579-132.793-29.014-145.845-4.671-25.038-25.313-26.616-41.24-22.979-15.927 3.637-27.172 12.133-33.622 33.432-16 52.833-74.107 71.608-78.596 75.347-.179-2.542-1.404-56.18-48.755-83.671-17.056-9.902-54.609-16.016-82.104-.156-53.71 30.982-49.275 106.933-48.913 112.607.261 4.088.799 8.16 1.247 12.23.842 7.453 7.576 13.153 15.068 12.704 7.489-.45 13.483-6.887 13.417-14.384l-.005-.685c-.029-3.401-.166-6.818-.04-10.218.183-5.013.487-9.986.904-14.985.681-5.109 1.224-10.347 2.602-15.328 1.359-5.975 6.365-18.799 10.621-25.959.749-1.26 2.117-1.575 1.798.653-.319 2.228-2.754 265.903-2.754 265.903.414 8.176 5.321 15.166 21.35 15.166 16.029 0 20.319-11.641 20.319-16.22s-.089-111.263-.089-116.311c0-5.046 9.994-6.995 9.994.154 0 7.15.886 116.186.886 116.186.407 8.175 6.86 16.299 20.998 16.299 14.136 0 18.849-8.179 18.849-17.438 0-15.418.221-259.423-.442-261.906-.686-2.569 1.008-2.817 1.757-1.488l1.362 2.203 1.23 2.338c3.406 6.367 5.748 13.395 7.347 20.421 1.379 4.982 1.917 10.218 2.607 15.326.413 4.999.719 9.971.903 14.984.126 3.399-.027 11.661-.003 12.005-7.39 5.392-7.109 17.774-4.856 20.979s6.765 4.103 10.064 1.984a7.472 7.472 0 0 0 3.104-4.122c.273-.917.271-1.816.326-2.762a10.85 10.85 0 0 1 .844-3.602c5.789 2.045 12.346.098 16.086-4.77a10.867 10.867 0 0 1 4.798 9.013V449.16c0 4.041 3.373 7.413 7.415 7.413s7.413-3.372 7.413-7.413V262.617c-.001-10.708-6.562-19.86-15.917-23.76-1.028-.43-.896-2.611.213-2.413 1.275.229 7.654 2.962 12.883 2.275 37.841-4.96 62.524-33.594 76.86-47.553 1.613-1.571 4.476-5.181 5.877.784.927 3.948 6.842 37.774 11.636 60.248 1.174 5.503.424 8.253-4.303 12.087-24.778 20.099-40.862 55.129-52.96 102.487-9.364 36.656-11.469 67.896-11.554 69.209-.82 12.668 8.779 23.597 21.447 24.428.512.034 1.021.05 1.526.05 12.01 0 22.122-9.332 22.929-21.487 1.871-28.181 18.444-104.902 49.982-139.317 5.378-5.869 7.595.397 7.91 3.651 8.535 88.373 55.815 144.335 58.007 146.881 4.352 5.059 10.5 7.653 16.688 7.653 5.079 0 10.186-1.75 14.337-5.321 9.211-7.924 10.255-21.815 2.331-31.026zM258.546 92.777a48.192 48.192 0 0 0 17.916 3.445c15.927 0 31.101-8.114 39.975-21.336 9.001-13.41 10.625-30.944 4.241-45.783-6.22-14.455-19.509-25.217-34.964-28.228-15.805-3.08-32.439 2.095-43.688 13.615-11.254 11.528-16.028 28.311-12.551 44.044 3.397 15.362 14.474 28.383 29.071 34.243z"/></svg>