<svg height="512pt" viewBox="-57 0 512 512" width="512pt" xmlns="http://www.w3.org/2000/svg"><path d="M397.594 120.07V0H0v120.07h30.023v30.051H0V512h397.594V150.121H367.57v-30.05zm-30-30h-31.266V30h31.266zm-276.328 0V30h31.265v60.07zM152.53 30h31.266v60.07H152.53zm61.266 0h31.266v60.07h-31.266zm61.266 0h31.265v60.07h-31.265zM30 30h31.266v60.07H30zm337.594 452H30V180.121h337.594zM337.57 150.121H60.023v-30.05H337.57zm0 0"/><path d="M337.547 210.168h-277.5v241.785h277.5zm-30 211.785h-217.5V240.168h217.5zm0 0"/><path d="M183.797 391.914h30V346.06h45.855v-30h-45.855v-45.856h-30v45.856H137.94v30h45.856zm0 0"/></svg>