<svg xmlns="http://www.w3.org/2000/svg" viewBox="0 0 300.739 300.739"><path d="M59.377 180.3c8.58 0 15.246-7.194 15.246-16.434 0-7.062-8.448-20.592-11.088-24.618a4.736 4.736 0 0 0-4.026-2.244c-1.716 0-3.234.792-4.158 2.112-2.838 4.026-12.078 17.688-12.078 24.816 0 8.91 7.392 16.368 16.104 16.368zm-.198-29.04c3.102 5.412 5.544 10.692 5.478 12.672 0 3.168-1.98 6.468-5.346 6.468-3.234 0-6.204-3.102-6.204-6.468 0-1.782 2.574-6.996 6.072-12.672zM47.167 47.64c-2.706-.396-5.214 1.518-5.61 4.224-1.914 13.728-4.752 22.836-9.702 31.548a4.963 4.963 0 0 0 1.848 6.732 4.69 4.69 0 0 0 2.442.66c1.716 0 3.366-.924 4.356-2.442 6.93-12.21 9.372-24.09 10.89-35.112.396-2.706-1.518-5.214-4.224-5.61z"/><path d="M285.427 187.032h-18.876l.594-11.418v-.264c0-17.292-6.6-33.528-17.292-42.438-10.56-8.58-24.42-8.25-35.442.792-.528.396-.99.792-1.452 1.188-6.27-11.814-15.774-18.876-26.862-19.8h-.396c-10.56 0-20.658 6.996-27.192 18.348l-.396-.396-.396-.33c-11.616-8.58-25.146-8.184-36.168.99-1.386 1.122-2.706 2.442-3.96 3.894v-6.534c0-16.962-6.93-32.868-13.596-48.246-5.808-13.398-11.352-26.07-11.352-37.686V43.02h4.092c2.706 0 4.95-2.244 4.95-4.95V16.158c0-2.706-2.244-4.95-4.95-4.95H21.097c-2.706 0-4.95 2.244-4.95 4.95V38.07c0 2.706 2.244 4.95 4.95 4.95h4.884V45c-.396 10.89-5.94 22.968-11.88 35.706C6.577 96.942-1.277 113.772.175 131.262V251.25c0 7.788 2.706 15.774 7.788 23.034 4.158 5.874 13.992 15.246 22.968 15.246h56.76c9.834 0 17.688-8.118 21.978-13.86a66.79 66.79 0 0 0 2.112 4.356c.066.132.132.264.198.33.264.396.528.924.858 1.452 1.716 2.904 4.554 7.722 10.164 7.722h31.812c5.61 0 8.448-4.818 10.164-7.722.33-.528.594-1.056.858-1.452l.066-.066c4.884-7.722 9.57-22.836 11.616-29.832h15.84c2.244 6.864 7.656 22.11 13.266 29.964.264.396.528.858.792 1.386 1.716 2.904 4.554 7.722 10.164 7.722h.462c9.24-.858 21.714-.858 31.812 0h.396c5.544 0 9.24-6.204 10.56-9.9 7.92-14.982 11.154-44.418 12.078-55.572h12.606c8.712 0 15.246-6.666 15.246-15.444v-6.996c-.066-8.184-6.732-14.586-15.312-14.586zm-64.944-45.473l.198-.198c7.392-6.204 15.972-6.534 22.902-.858 8.316 6.93 13.662 20.526 13.662 34.65l-.66 11.88h-48.576l-.198-11.748c.066-14.785 5.016-28.05 12.672-33.726zm-34.98-16.567c8.514.792 15.906 7.392 20.46 18.282-5.082 8.382-8.052 19.734-8.052 32.01l.198 11.748h-24.288l.462-11.484v-.198c0-12.078-3.366-24.222-9.042-33.33 4.62-10.164 12.54-16.895 20.262-17.028zm-57.618 16.435c7.392-6.138 16.038-6.468 23.76-.858 7.788 7.26 12.804 20.856 12.804 34.65l-.528 11.814h-48.444l-.462-11.814c.066-13.992 5.148-27.522 12.87-33.792zM26.047 21.108h65.736V33.12H26.047V21.108zm-2.904 63.823c6.336-13.728 12.342-26.664 12.804-39.6v-2.178h46.86v2.046c0 13.662 5.874 27.258 12.144 41.646 4.026 9.306 8.118 18.744 10.56 28.314h-94.05c2.31-10.098 7.062-20.262 11.682-30.228zm-13.002 40.128h97.284c.198 2.046.33 4.092.33 6.072v25.74c-1.716 5.808-2.64 12.078-2.64 18.48l.462 11.748H90.331c-7.92 0-14.388 6.534-14.388 14.586v1.188H10.207v-72.138c-.132-1.915-.198-3.763-.066-5.676zm94.116 140.447a66.235 66.235 0 0 0-1.848 3.432c-4.818 6.732-10.23 10.758-14.652 10.758h-56.76c-3.564 0-10.956-5.478-14.85-11.022-3.894-5.61-6.006-11.616-6.006-17.358v-38.544h66.264c1.65 6.666 7.128 11.418 13.926 11.418h7.59c.99 7.656 3.366 24.618 7.524 39.27-.396.595-.792 1.32-1.188 2.046zm147.576 9.834c-.132.264-.264.528-.33.792-.462 1.386-1.386 2.838-1.98 3.498-10.164-.792-22.374-.792-31.68 0-.528-.528-1.386-1.98-1.848-2.772-.396-.594-.726-1.254-1.122-1.914-.066-.066-.066-.132-.132-.198-6.336-8.778-12.936-30.492-13.002-30.69a4.95 4.95 0 0 0-4.752-3.498h-23.232c-2.244 0-4.224 1.518-4.752 3.696-1.584 6.072-6.798 23.364-11.418 30.756a27.623 27.623 0 0 0-1.122 1.848c-.462.858-1.386 2.31-1.914 2.838h-31.152c-.528-.528-1.452-1.98-1.914-2.838-.33-.528-.66-1.122-.99-1.716-6.864-12.804-10.956-39.732-12.474-51.018h155.034c-1.188 11.221-4.224 38.413-11.22 51.216zm38.94-66.659c0 3.366-2.112 5.544-5.346 5.544H90.331c-2.574 0-4.488-2.376-4.488-5.544v-6.996c0-2.574 2.046-4.686 4.488-4.686h195.096c3.102 0 5.346 1.98 5.346 4.686v6.996z"/><circle cx="30.072" cy="100.703" r="4.95"/></svg>