<svg xmlns="http://www.w3.org/2000/svg" viewBox="0 0 356.081 356.081"><path d="M256.449 113.201v-6.92a20.76 20.76 0 0 0-6.12-14.72 20.843 20.843 0 0 0-11.44-5.88 58.849 58.849 0 0 0-15.52-16c-6.88-5.4-13.32-10.44-13.72-20.88a34.564 34.564 0 0 0 3.07-14.31C212.68 15.403 197.176-.038 178.089 0a34.579 34.579 0 0 0-8.07.909c-18.607 4.352-30.162 22.964-25.81 41.571a34.194 34.194 0 0 0 2.12 6.24c-.4 10.44-6.84 15.48-13.72 20.88a58.864 58.864 0 0 0-15.52 16 20.843 20.843 0 0 0-11.44 5.88 20.76 20.76 0 0 0-6.12 14.72v6.92a19.118 19.118 0 0 0-12.84 5.6 19.111 19.111 0 0 0-3.8 5.37c-4.526 9.541-.46 20.944 9.08 25.469v185.68a20.798 20.798 0 0 0 6.12 14.72 20.803 20.803 0 0 0 14.84 6.12h130.32c11.5-.022 20.818-9.34 20.84-20.84v-185.52a19.321 19.321 0 0 0 5.28-3.76 19.16 19.16 0 0 0 5.664-13.041c.314-10.575-8.007-19.404-18.584-19.717zM139.289 78c9.24-7.24 17.84-14 17.84-30.28a5.274 5.274 0 0 0-.76-2.76 23.999 23.999 0 0 1 4.74-27.536c9.432-9.313 24.628-9.216 33.94.216v-.04a24 24 0 0 1 6.4 22.52 23.98 23.98 0 0 1-1.88 5.2 5.287 5.287 0 0 0-.56 2.36c0 16.28 8.6 23.04 17.84 30.28a79.953 79.953 0 0 1 8.52 7.4h-94.6a80.204 80.204 0 0 1 8.52-7.36zm-29 28.161c0-5.655 4.585-10.24 10.24-10.24h115.28l-.16.04c5.655 0 10.24 4.585 10.24 10.24v6.88h-135.6v-6.92zm143.2 228.92c-.022 5.646-4.594 10.218-10.24 10.24h-130.28a10.203 10.203 0 0 1-7.24-3 10.2 10.2 0 0 1-3-7.24v-15.64h34.4a5.32 5.32 0 0 0 0-10.6h-34.4v-22.28h14.56a5.32 5.32 0 1 0 0-10.6h-14.56v-22.32h34.4a5.32 5.32 0 0 0 0-10.6h-34.4v-22.28h14.56a5.32 5.32 0 1 0 0-10.6h-14.56v-22.28h34.4a5.32 5.32 0 0 0 0-10.6h-34.4v-25.84h150.76v183.64zm2.32-194.24h-155.4a8.6 8.6 0 0 1-6.08-14.64 8.517 8.517 0 0 1 6.04-2.52h155.44a8.58 8.58 0 0 1 0 17.16z"/></svg>