<svg height="512pt" viewBox="0 0 512 512" width="512pt" xmlns="http://www.w3.org/2000/svg"><path d="M362.7 102.61c0-27.41-10.673-53.176-30.055-72.555C313.265 10.672 287.5 0 260.09 0c-27.406 0-53.176 10.672-72.555 30.055l-157.48 157.48C10.672 206.915 0 232.684 0 260.09c0 27.41 10.672 53.176 30.055 72.555 19.379 19.382 45.148 30.054 72.554 30.054 27.41 0 53.176-10.672 72.555-30.054l157.484-157.48c19.38-19.38 30.051-45.145 30.051-72.556zM153.952 311.433c-13.715 13.714-31.95 21.265-51.344 21.265s-37.629-7.55-51.343-21.265C37.555 297.719 30 279.484 30 260.09c0-19.395 7.555-37.625 21.266-51.344l68.136-68.133 102.684 102.688zm89.348-89.348L140.613 119.402l68.133-68.136C222.461 37.555 240.696 30 260.09 30c19.394 0 37.629 7.555 51.344 21.266 13.714 13.714 21.265 31.949 21.265 51.343s-7.55 37.63-21.265 51.344zm130.735 13.989c-76.07 0-137.96 61.89-137.96 137.961 0 76.074 61.89 137.965 137.96 137.965C450.11 512 512 450.11 512 374.035c0-76.07-61.89-137.96-137.965-137.96zm0 30c43.473 0 81.02 25.824 98.117 62.938h-196.23c17.098-37.114 54.644-62.938 98.113-62.938zM482 374.035c0 5.102-.363 10.113-1.05 15.027H267.124a108.355 108.355 0 0 1-1.05-15.027c0-5.097.363-10.11 1.05-15.023h213.824A108.34 108.34 0 0 1 482 374.035zM374.035 482c-43.469 0-81.015-25.828-98.113-62.938h196.23C455.055 456.173 417.508 482 374.035 482zm0 0"/></svg>