<svg xmlns="http://www.w3.org/2000/svg" width="612" height="612"><path d="M230.724 181.208a1489.01 1489.01 0 0 1-5.119 5.508c2.17-2.337 5.119-5.508 5.119-5.508z"/><path d="M336.962 200.875c7.956 9.792 11.906 21.337 11.906 34.634 0 9.514-2.727 18.666-8.151 27.512-2.977 5.007-6.898 9.848-11.795 14.465l-16.301 16.107c-15.634 15.356-25.732 28.958-30.35 40.865-4.618 11.878-6.927 27.54-6.927 46.957h36.275c0-17.108 1.947-30.044 5.814-38.807 3.866-8.763 12.323-19.444 25.37-32.102 17.942-17.387 29.849-30.572 35.746-39.53s8.874-20.641 8.874-35.051c0-23.756-8.039-43.285-24.146-58.585-16.106-15.3-37.526-22.922-64.288-22.922-28.931 0-51.686 8.929-68.266 26.789s-24.87 41.449-24.87 70.797h36.275c.667-17.665 3.478-31.184 8.346-40.559 8.679-16.83 24.369-25.259 47.068-25.259 18.333.001 31.491 4.897 39.42 14.689z"/><path d="M612 306C612 137.004 474.995 0 306 0 137.004 0 0 137.004 0 306c0 168.995 137.004 306 306 306 168.995 0 306-137.005 306-306zm-584.182 0C27.818 152.36 152.36 27.818 306 27.818S584.182 152.36 584.182 306 459.64 584.182 306 584.182 27.818 459.64 27.818 306z"/><path d="M274.51 415.214h40.559v42.367H274.51z"/></svg>