<svg xmlns="http://www.w3.org/2000/svg" viewBox="0 0 512.002 512.002"><path d="M489.769 315.736c-4.874-6.44-3.89-15.184 2.28-20.328.901-.75 1.797-1.505 2.684-2.258 10.98-9.31 17.275-22.887 17.269-37.237.006-14.361-6.289-27.937-17.269-37.25-.89-.755-1.781-1.505-2.672-2.247-6.182-5.156-7.167-13.899-2.282-20.349l2.061-2.73c17.734-23.577 10.431-58.513-19.153-73.252-8.184-4.076-11.584-12.687-8.088-20.469 17.305-38.559-20.947-75.151-85.475-38.107-33.038 18.966-69.573 54.003-108.594 104.136-3.49 4.484-8.786 7.055-14.532 7.055-5.744 0-11.041-2.572-14.531-7.055-39.019-50.132-75.555-85.169-108.594-104.136-64.344-36.938-102.848-.58-85.476 38.102 3.221 7.169.961 15.973-8.752 20.806-27.811 13.951-36.794 48.581-18.477 72.934l2.06 2.727c4.876 6.439 3.891 15.182-2.288 20.334a398.56 398.56 0 0 0-2.675 2.252c-23.062 19.557-22.975 55.005-.009 74.477.897.763 1.793 1.516 2.68 2.255 6.183 5.157 7.168 13.901 2.289 20.343l-2.065 2.736c-17.633 23.442-10.619 58.37 19.15 73.254 8.184 4.076 11.584 12.686 8.084 20.476-.362.808-.722 1.615-1.085 2.434-7.627 17.236-2.003 35.822 13.677 45.199 10.294 6.157 33.453 13.104 72.886-9.532 33.038-18.968 69.573-54.003 108.594-104.136 3.49-4.484 8.787-7.055 14.531-7.055 5.745 0 11.042 2.572 14.532 7.055 39.019 50.133 75.555 85.168 108.594 104.136 20.624 11.839 36.794 15.587 49.004 15.587 32.682-.003 48.318-26.939 37.557-51.26-.358-.812-.72-1.619-1.083-2.431-3.238-7.206-.933-15.963 8.751-20.805 27.961-14.023 36.691-48.718 18.484-72.925l-2.067-2.736zm-16.708-48.124c-.812.688-1.623 1.372-2.453 2.063-19.842 16.552-23.152 45.665-7.539 66.279l2.003 2.654c5.384 7.155 3.174 17.893-7.317 23.14-24.075 11.992-34.489 40.184-23.706 64.179 1.575 3.5 2.083 4.382.77 5.165-1.224.732-3.346 1.264-6.364 1.264-16.799-.002-61.237-16.493-131.492-106.758-9.882-12.695-24.811-19.978-40.962-19.978-16.151 0-31.08 7.282-40.961 19.978C132.163 432.076 85.217 435.894 77.183 431.091c-1.317-.786-.799-1.671.768-5.161 10.322-22.968 1.645-51.508-24.286-64.473-8.833-4.43-12.635-15.004-6.739-22.844l2.004-2.655c15.616-20.617 12.306-49.73-7.551-66.294a301.466 301.466 0 0 1-2.448-2.06c-7.237-6.137-7.275-17.225 0-23.395a384.25 384.25 0 0 1 2.462-2.07c19.843-16.55 23.153-45.665 7.546-66.271l-2.009-2.661c-5.317-7.068-3.277-17.861 7.317-23.141 22.239-11.078 35.566-37.413 22.695-66.445-.964-2.179-.352-2.546.24-2.899 8.031-4.813 54.979-.986 137.857 105.494 9.882 12.695 24.811 19.978 40.961 19.978 16.152 0 31.081-7.282 40.962-19.978C379.838 79.737 426.781 75.912 434.82 80.721c.592.353 1.204.72.243 2.893-12.111 27.291-1.492 54.383 23.274 66.741 8.908 4.467 12.595 15.062 6.746 22.837l-2.01 2.663c-15.616 20.617-12.306 49.732 7.541 66.285.822.684 1.641 1.373 2.457 2.067 4.734 4.016 5.439 9.049 5.438 11.705 0 2.644-.705 7.679-5.448 11.7z"/><path d="M359.229 272.653c-24.56 0-35.363-7.961-49.321-16.747 13.957-8.784 24.76-16.747 49.321-16.747 9.249 0 16.747-7.498 16.747-16.747 0-9.249-7.498-16.747-16.747-16.747-32.67 0-50.318 11.205-64.499 20.209-12.147 7.713-20.924 13.285-38.728 13.285-17.805 0-26.583-5.572-38.729-13.285-14.181-9.003-31.83-20.209-64.499-20.209-9.249 0-16.747 7.498-16.747 16.747 0 9.249 7.498 16.747 16.747 16.747 24.56 0 35.363 7.961 49.321 16.747-13.957 8.784-24.76 16.747-49.321 16.747-9.249 0-16.747 7.498-16.747 16.747 0 9.249 7.498 16.747 16.747 16.747 32.67 0 50.318-11.205 64.499-20.209 12.147-7.713 20.924-13.285 38.729-13.285 17.804 0 26.582 5.572 38.728 13.285 14.181 9.003 31.83 20.209 64.499 20.209 9.249 0 16.747-7.498 16.747-16.747 0-9.249-7.498-16.747-16.747-16.747z"/></svg>