<svg height="511pt" viewBox="-3 1 511 511.999" width="511pt" xmlns="http://www.w3.org/2000/svg"><path d="M208.082 181.2c-.66 0-1.309-.06-1.96-.188-.642-.133-1.27-.32-1.872-.57-.598-.25-1.18-.563-1.719-.922-.55-.372-1.058-.79-1.531-1.25a10.242 10.242 0 0 1-2.16-3.238c-.25-.61-.438-1.243-.567-1.872a9.786 9.786 0 0 1-.191-1.96 10.038 10.038 0 0 1 1.68-5.55c.37-.548.781-1.06 1.238-1.521 2.332-2.32 5.781-3.379 9.031-2.73.64.132 1.27.32 1.871.57.598.25 1.188.562 1.73.922a9.653 9.653 0 0 1 2.758 2.758c.36.542.673 1.12.923 1.73.25.601.437 1.23.57 1.871.129.64.199 1.3.199 1.95 0 .652-.07 1.312-.2 1.96a10.85 10.85 0 0 1-.57 1.871c-.25.598-.562 1.18-.921 1.719a9.478 9.478 0 0 1-1.239 1.52c-.46.46-.972.878-1.52 1.25-.542.359-1.132.671-1.73.921-.601.25-1.23.438-1.87.57a9.86 9.86 0 0 1-1.95.188zm0 0"/><path d="M502.195 388.738l-119.71-119.531.05-37.844c.008-6.16-.379-12.347-1.156-18.472 16.055-9.371 26.867-26.786 26.867-46.676 0-29.778-24.223-54-54-54-7.16 0-14 1.398-20.258 3.941l-36.84-52.722c-5.773-8.563-14.543-14.301-24.703-16.172-10.191-1.875-20.468.394-28.925 6.386-15.899 11.258-20.52 33.164-10.833 50.364l-71.515-71.516c-14.793-14.793-38.723-15.086-53.344-.652A37.237 37.237 0 0 0 98.18 48.07c-14.36-9.8-34.293-8.543-47.22 3.91-7.155 6.891-11.148 16.274-11.245 26.418a38.91 38.91 0 0 0 6.46 21.766 37.274 37.274 0 0 0-16.359 9.688c-13.273 13.449-14.09 34.77-2.625 49.617a37.182 37.182 0 0 0-15.707 9.36C4.402 175.91.5 185.328.5 195.347c0 10.015 3.902 19.437 10.984 26.52.102.1.203.198.309.296l20.383 18.707a61.243 61.243 0 0 0-2.946 18.824 61.482 61.482 0 0 0 9.504 32.856c-13.613 14.629-21.53 34.004-21.53 53.414 0 25.144 12.62 48.523 33.32 62.433.05 33.875 27.624 61.422 61.515 61.422 20.91 0 39.785-10.383 50.992-27.027 15.961 17.16 38.285 27.027 62.356 27.027 31.066 0 59.226-16.976 74.156-43.093l82.32 82.343a9.968 9.968 0 0 0 7.07 2.93 9.97 9.97 0 0 0 7.075-2.93L502.195 402.88c3.907-3.902 3.907-10.234 0-14.14zM388.246 166.215c0 18.746-15.25 34-34 34-18.746 0-34-15.254-34-34 0-18.75 15.254-34 34-34 18.75 0 34 15.25 34 34zM44.051 123.902c6.402-6.488 16.765-6.937 23.71-1.078l79.66 79.66a9.963 9.963 0 0 0 7.071 2.926 9.989 9.989 0 0 0 7.074-2.926c3.903-3.906 3.903-10.238 0-14.144l-96.46-96.453c-3.473-3.473-5.438-8.32-5.391-13.301.043-4.73 1.863-9.066 5.12-12.203 6.821-6.57 17.821-6.461 24.517.238l85.597 85.594a9.97 9.97 0 0 0 7.074 2.93 9.968 9.968 0 0 0 7.07-2.93c3.903-3.903 3.903-10.235 0-14.14L120.77 69.75c-5.829-6.945-5.368-17.281 1.109-23.676 6.824-6.734 18.105-6.48 25.148.563l116.637 116.64c5.106 5.102 12.93 5.575 18.61 1.121 5.68-4.457 7.085-12.168 3.34-18.34a9.58 9.58 0 0 0-.302-.468l-35.015-51.067c-4.942-8.394-2.867-19.136 4.781-24.554a17.94 17.94 0 0 1 13.746-3.035 17.966 17.966 0 0 1 11.766 7.722c.035.055.074.106.11.16l36.464 52.18c-10.414 9.852-16.918 23.79-16.918 39.219 0 29.773 24.223 54 54 54 2.633 0 5.223-.192 7.758-.559.36 3.887.535 7.79.531 11.68l-.058 41.996a9.987 9.987 0 0 0 2.93 7.082L411.19 326.2l-91.945 91.946-9.043-9.043c19.598-13.114 31.453-34.993 31.453-58.973 0-29.73-19.16-56.945-46.453-67.266-6.191-48.011-46.687-84.68-95.031-84.68-22.473 0-44.516 7.989-62.074 22.227a61.387 61.387 0 0 0-44.282-22.152l-49.203-49.203c-7.047-7.047-7.297-18.328-.562-25.153zM25.492 207.59a17.376 17.376 0 0 1-4.992-12.242c0-4.676 1.82-9.07 5.125-12.38 6.395-6.39 16.703-6.816 23.602-1.015l20.082 20.078c-11.016 4.11-20.547 11.29-27.551 20.492zm199.895 242.234c-22.887 0-43.711-11.66-55.711-31.183a9.99 9.99 0 0 0-9.739-4.688 9.996 9.996 0 0 0-8.312 6.906c-5.488 17.325-21.398 28.965-39.59 28.965-22.89 0-41.515-18.625-41.515-41.515 0-1.438.074-2.887.222-4.313a10.005 10.005 0 0 0-5.086-9.762c-17.55-9.761-28.453-28.257-28.453-48.265 0-16.41 8.156-33.531 21.285-44.68a9.998 9.998 0 0 0 1.043-14.219 41.463 41.463 0 0 1-10.304-27.37c0-22.895 18.625-41.516 41.515-41.516 15.422 0 29.488 8.472 36.715 22.113a10 10 0 0 0 16.04 2.254c14.913-15.488 35.57-24.371 56.671-24.371 40.066 0 73.324 31.965 75.715 72.77a9.998 9.998 0 0 0 7.449 9.09c22.207 5.82 38.324 26.886 38.324 50.089 0 19.383-10.793 36.863-28.168 45.61a10.006 10.006 0 0 0-5.14 6.261c-7.809 28.156-33.7 47.824-62.961 47.824zm163.547 38.035l-55.559-55.562 92.047-92.047 55.562 55.559zm0 0"/><path d="M339.531 78.563c-21.66 0-39.285-17.622-39.285-39.282S317.871 0 339.531 0s39.281 17.621 39.281 39.281-17.62 39.282-39.28 39.282zm0-58.563c-10.633 0-19.285 8.648-19.285 19.281s8.652 19.282 19.285 19.282c10.63 0 19.281-8.649 19.281-19.282S350.16 20 339.533 20zm99.485 109.89c-21.657 0-39.282-17.624-39.282-39.285 0-21.66 17.625-39.28 39.282-39.28 21.66 0 39.285 17.62 39.285 39.28-.004 21.66-17.625 39.286-39.285 39.286zm0-58.566c-10.63 0-19.282 8.653-19.282 19.281 0 10.633 8.653 19.286 19.282 19.286 10.632 0 19.285-8.653 19.285-19.286-.004-10.628-8.653-19.28-19.285-19.28zm0 0"/></svg>