<svg height="476pt" viewBox="-15 0 476 476.415" width="476pt" xmlns="http://www.w3.org/2000/svg"><path d="M424.781 387.43l.992-225.582a24.758 24.758 0 0 0-7.336-17.54 24.765 24.765 0 0 0-17.601-7.175H115.52V44.852a24.902 24.902 0 0 0-17.668-24.157L32.719 1.062C19.41-2.921 5.383 4.582 1.309 17.863c-.004.02 0 .04-.004.059A25.088 25.088 0 0 0 3.203 37.14a25.356 25.356 0 0 0 15.121 12.273L65.52 63.602v169.046a138.367 138.367 0 0 0-47.04 104.204c0 76.878 62.477 139.562 139.356 139.562 74.195.004 134.96-58.281 139.121-131.281h78.563v43.875c-16.583 11.469-23.633 32.484-17.32 51.629 6.316 19.148 24.484 31.847 44.632 31.203 20.152-.649 37.469-14.488 42.54-34 5.073-19.512-3.31-40.031-20.59-50.41zM157.77 460.277c-68.051.004-123.266-55.066-123.434-123.117-.172-68.05 54.77-123.398 122.816-123.734 68.051-.332 123.532 54.472 124.032 122.52a7.437 7.437 0 0 0 0 1.816c-.575 67.773-55.637 122.437-123.414 122.515zm217.75-205.144H270.625c-35.297-48.668-97.77-69.297-155.105-51.211v-16.79h260zm-78.563 74a136.936 136.936 0 0 0-16.281-58h94.844v58zm94.563-65.528c0-.175.023-.347.023-.523s-.023-.352-.023-.52v-75.894c-.102-8.613-7.122-15.543-15.735-15.535h-268.09a8.15 8.15 0 0 0-8.175 8v30.976a182.62 182.62 0 0 0-18 10.254V60.855a12.358 12.358 0 0 0-8.895-11.78L22.879 34.093a9.236 9.236 0 0 1-5.516-4.485 9.249 9.249 0 0 1-.71-7.07V22.5a9.254 9.254 0 0 1 11.5-6.117l65.09 19.633a9.005 9.005 0 0 1 6.277 8.836v99.828a8.552 8.552 0 0 0 8.175 8.453h293.14a8.752 8.752 0 0 1 8.938 8.676l-.968 219.812a44.068 44.068 0 0 0-7.446-.691 43.403 43.403 0 0 0-9.84 1.047zm9.738 192.368a29.549 29.549 0 0 1-27.285-18.157 29.547 29.547 0 0 1 6.254-32.175 29.555 29.555 0 0 1 32.105-6.61c.7.461 1.465.813 2.27 1.035 12.199 6.176 18.566 19.918 15.394 33.22-3.176 13.3-15.062 22.683-28.738 22.683zm0 0"/><path d="M157.77 235.922c-55.747 0-100.934 45.187-100.934 100.93 0 55.746 45.187 100.933 100.934 100.933 55.742 0 100.93-45.187 100.93-100.933-.063-55.715-45.216-100.868-100.93-100.93zm0 185.863c-46.907 0-84.934-38.027-84.934-84.933s38.027-84.93 84.934-84.93 84.93 38.023 84.93 84.93c-.052 46.886-38.048 84.878-84.93 84.933zm0 0"/></svg>