<?xml version="1.0" encoding="iso-8859-1"?>
<!-- Generator: Adobe Illustrator 19.0.0, SVG Export Plug-In . SVG Version: 6.00 Build 0)  -->
<svg version="1.1" id="Capa_1" xmlns="http://www.w3.org/2000/svg" xmlns:xlink="http://www.w3.org/1999/xlink" x="0px" y="0px"
	 viewBox="0 0 512.001 512.001" style="enable-background:new 0 0 512.001 512.001;" xml:space="preserve">
<g>
	<g>
		<path d="M361.07,260.21c-1.859-1.86-4.439-2.93-7.069-2.93s-5.21,1.069-7.07,2.93c-1.86,1.859-2.93,4.439-2.93,7.07
			c0,2.63,1.069,5.21,2.93,7.069c1.86,1.861,4.44,2.931,7.07,2.931s5.21-1.07,7.069-2.931c1.86-1.859,2.931-4.439,2.931-7.069
			C364,264.649,362.93,262.069,361.07,260.21z"/>
	</g>
</g>
<g>
	<g>
		<path d="M465.115,101.168C475.503,91.32,482,77.409,482,62v-8c0-29.775-24.225-54-54-54c-29.775,0-54,24.225-54,54v8
			c0,15.409,6.498,29.32,16.885,39.168C363.461,112.01,344,138.766,344,170v57.667c0,5.522,4.478,10,10,10c5.522,0,10-4.478,10-10
			V170c0-29.775,24.225-54,54-54h20c29.775,0,54,24.225,54,54v104c0,5.522,4.478,10,10,10c5.522,0,10-4.478,10-10V170
			C512,138.766,492.539,112.01,465.115,101.168z M462,62c0,18.748-15.252,34-34,34s-34-15.252-34-34v-8c0-18.748,15.252-34,34-34
			s34,15.252,34,34V62z"/>
	</g>
</g>
<g>
	<g>
		<path d="M137.182,133.961c0.525-1.215,0.819-2.553,0.819-3.961V78c0-29.775-24.225-54-54-54S30,48.225,30,78v52
			c0,1.408,0.294,2.746,0.819,3.961C12.172,147.411,0,169.304,0,194v80c0,5.522,4.478,10,10,10s10-4.478,10-10v-80
			c0-29.775,24.225-54,54-54h20c29.775,0,54,24.225,54,54v80c0,5.522,4.478,10,10,10c5.522,0,10-4.478,10-10v-80
			C168,169.304,155.828,147.411,137.182,133.961z M118,120H94H74H50V78c0-18.748,15.252-34,34-34s34,15.252,34,34V120z"/>
	</g>
</g>
<g>
	<g>
		<path d="M109.774,355.021c-5.522,0-10,4.478-10,10c0,5.522,4.478,10,10,10h0.071c5.522,0,9.964-4.478,9.964-10
			C119.81,359.499,115.297,355.021,109.774,355.021z"/>
	</g>
</g>
<g>
	<g>
		<path d="M478,455.478V206c0-5.522-4.478-10-10-10c-5.522,0-10,4.478-10,10v43h-60v-43c0-5.522-4.478-10-10-10
			c-5.522,0-10,4.478-10,10v249.478c-18.44,7.41-31.5,25.464-31.5,46.522c0,5.522,4.478,10,10,10h143c5.522,0,10-4.478,10-10
			C509.5,480.942,496.44,462.887,478,455.478z M418,492h-49.794c4.133-11.71,15.312-20.125,28.419-20.125H418V492z M428,303
			c-5.522,0-10,4.478-10,10v138.875h-20V269h60v182.875h-20V313C438,307.478,433.523,303,428,303z M438,492v-20.125h21.375
			c13.107,0,24.286,8.415,28.419,20.125H438z"/>
	</g>
</g>
<g>
	<g>
		<path d="M354,291c-5.522,0-10,4.478-10,10c0,13.544-10.979,24.569-24.504,24.65c-4.682-15.456-15.608-28.216-29.831-35.348
			C298.507,281.59,304,269.49,304,256.127c0-26.468-21.532-48-48-48c-26.468,0-48,21.532-48,48c0,13.363,5.494,25.463,14.335,34.174
			c-14.223,7.132-25.149,19.892-29.831,35.348C178.979,325.569,168,314.544,168,301c0-5.522-4.478-10-10-10
			c-4.454,0-8.225,2.914-9.518,6.938l-11.733-93.187c-0.69-5.479-5.681-9.353-11.171-8.673c-5.479,0.69-9.362,5.691-8.673,11.171
			l23.584,187.313H27.511l2.46-19.54H74.24c5.522,0,10-4.478,10-10c0-5.522-4.478-10-10-10H32.49L51.094,207.25
			c0.689-5.479-3.193-10.48-8.673-11.171c-5.463-0.679-10.48,3.192-11.171,8.673l-25,198.562c-0.358,2.848,0.523,5.711,2.422,7.863
			c1.899,2.152,4.63,3.386,7.5,3.386H46.25v47.313c0,0.155,0.016,0.306,0.023,0.459l-32.595,32.594
			c-2.859,2.86-3.715,7.161-2.168,10.898c1.548,3.736,5.194,6.173,9.239,6.173h143c4.045,0,7.691-2.437,9.239-6.173
			c1.547-3.737,0.691-8.038-2.168-10.898l-32.595-32.594c0.007-0.153,0.023-0.304,0.023-0.459v-47.313h13.577
			c2.87,0,5.602-1.233,7.5-3.386c1.898-2.153,2.78-5.016,2.422-7.863l-10.911-86.661c6.059,16.134,21.198,27.858,39.162,28.916
			v74.765c0,5.522,4.478,10,10,10h10.127v62.063c0,10.81,8.794,19.604,19.604,19.604h16.793c3.49,0,6.762-0.927,9.604-2.532
			c2.841,1.605,6.114,2.532,9.604,2.532h16.793c10.81,0,19.604-8.794,19.604-19.604v-62.063H312c5.522,0,10-4.478,10-10v-74.765
			c23.391-1.38,42-20.838,42-44.569C364,295.478,359.523,291,354,291z M102.25,415.671h16v36.204h-16V415.671z M82.25,492H44.893
			l20.125-20.125H82.25V492z M82.25,451.875h-16v-36.204h16V451.875z M139.607,492H102.25v-20.125h17.232L139.607,492z M256,228.127
			c15.439,0,28,12.561,28,28s-12.561,28-28,28c-15.439,0-28-12.561-28-28C228,240.688,240.562,228.127,256,228.127z M246.128,492
			h-16v-14.333h16V492z M246.128,457.667h-16v-27.334h16V457.667z M282.128,492h-16v-14.333h16V492z M282.128,457.667h-16v-27.334
			h16V457.667z M302.001,410.333h-9.873h-36h-36H210V342.56c0-21.191,17.241-38.433,38.433-38.433h15.135
			c21.191,0,38.433,17.241,38.433,38.433V410.333z"/>
	</g>
</g>
<g>
</g>
<g>
</g>
<g>
</g>
<g>
</g>
<g>
</g>
<g>
</g>
<g>
</g>
<g>
</g>
<g>
</g>
<g>
</g>
<g>
</g>
<g>
</g>
<g>
</g>
<g>
</g>
<g>
</g>
</svg>
