<?xml version="1.0" encoding="iso-8859-1"?>
<!-- Generator: Adobe Illustrator 19.0.0, SVG Export Plug-In . SVG Version: 6.00 Build 0)  -->
<svg version="1.1" id="Capa_1" xmlns="http://www.w3.org/2000/svg" xmlns:xlink="http://www.w3.org/1999/xlink" x="0px" y="0px"
	 viewBox="0 0 356.081 356.081" style="enable-background:new 0 0 356.081 356.081;" xml:space="preserve">
<g>
	<g>
		<path d="M256.449,113.201v-6.92c0-5.526-2.202-10.823-6.12-14.72c-3.098-3.117-7.102-5.175-11.44-5.88
			c-4.107-6.273-9.374-11.704-15.52-16c-6.88-5.4-13.32-10.44-13.72-20.88c2.033-4.496,3.08-9.376,3.07-14.31
			C212.68,15.403,197.176-0.038,178.089,0c-2.716-0.015-5.425,0.29-8.07,0.909c-18.607,4.352-30.162,22.964-25.81,41.571
			c0.504,2.143,1.214,4.233,2.12,6.24c-0.4,10.44-6.84,15.48-13.72,20.88c-6.145,4.296-11.413,9.727-15.52,16
			c-4.338,0.705-8.342,2.763-11.44,5.88c-3.918,3.897-6.12,9.194-6.12,14.72v6.92c-4.834,0.175-9.423,2.176-12.84,5.6
			c-1.568,1.557-2.853,3.374-3.8,5.37c-4.526,9.541-0.46,20.944,9.08,25.469v185.68c0.004,5.525,2.206,10.821,6.12,14.72
			c3.929,3.943,9.274,6.148,14.84,6.12h130.32c11.5-0.022,20.818-9.34,20.84-20.84v-185.52c1.959-0.947,3.744-2.218,5.28-3.76
			c3.491-3.46,5.518-8.128,5.664-13.041C275.347,122.343,267.026,113.514,256.449,113.201z M139.289,78
			c9.24-7.24,17.84-14,17.84-30.28c0.006-0.972-0.257-1.928-0.76-2.76c-4.477-9.247-2.571-20.318,4.74-27.536
			c9.432-9.313,24.628-9.216,33.94,0.216v-0.04c5.898,5.887,8.321,14.411,6.4,22.52c-0.424,1.8-1.055,3.545-1.88,5.2
			c-0.367,0.733-0.559,1.541-0.56,2.36c0,16.28,8.6,23.04,17.84,30.28c3.011,2.263,5.858,4.736,8.52,7.4h-94.6
			C133.433,82.71,136.28,80.251,139.289,78z M110.289,106.161c0-5.655,4.585-10.24,10.24-10.24h115.28l-0.16,0.04
			c5.655,0,10.24,4.585,10.24,10.24v6.88h-135.6V106.161z M253.489,335.081c-0.022,5.646-4.594,10.218-10.24,10.24h-130.28
			c-2.716,0.004-5.322-1.076-7.24-3c-1.924-1.918-3.004-4.523-3-7.24v-15.64h34.4c2.574-0.224,4.615-2.265,4.839-4.839
			c0.254-2.927-1.912-5.506-4.839-5.761h-34.4v-22.28h14.56c0.307,0.027,0.615,0.027,0.922,0c2.927-0.255,5.094-2.834,4.839-5.761
			c-0.255-2.927-2.834-5.094-5.761-4.839h-14.56v-22.32h34.4c2.574-0.224,4.615-2.265,4.839-4.839
			c0.254-2.927-1.912-5.506-4.839-5.761h-34.4v-22.28h14.56c0.307,0.027,0.615,0.027,0.922,0c2.927-0.255,5.094-2.834,4.839-5.761
			s-2.834-5.094-5.761-4.839h-14.56v-22.28h34.4c2.574-0.224,4.615-2.265,4.839-4.839c0.255-2.927-1.912-5.506-4.839-5.761h-34.4
			v-25.84h150.76V335.081z M255.809,140.841h-155.4c-2.246-0.011-4.399-0.9-5.998-2.478c-3.381-3.336-3.418-8.781-0.082-12.162
			c1.598-1.611,3.771-2.518,6.04-2.52h155.44c4.739,0,8.58,3.841,8.58,8.58C264.389,136.999,260.548,140.841,255.809,140.841z"/>
	</g>
</g>
<g>
</g>
<g>
</g>
<g>
</g>
<g>
</g>
<g>
</g>
<g>
</g>
<g>
</g>
<g>
</g>
<g>
</g>
<g>
</g>
<g>
</g>
<g>
</g>
<g>
</g>
<g>
</g>
<g>
</g>
</svg>
